<?xml version="1.0" encoding="UTF-8" standalone="no"?><svg xmlns="http://www.w3.org/2000/svg" xmlns:xlink="http://www.w3.org/1999/xlink" contentScriptType="application/ecmascript" contentStyleType="text/css" height="525px" preserveAspectRatio="none" style="width:752px;height:525px;" version="1.1" viewBox="0 0 752 525" width="752px" zoomAndPan="magnify"><defs><filter height="300%" id="f1xctaflgjy66m" width="300%" x="-1" y="-1"><feGaussianBlur result="blurOut" stdDeviation="2.0"/><feColorMatrix in="blurOut" result="blurOut2" type="matrix" values="0 0 0 0 0 0 0 0 0 0 0 0 0 0 0 0 0 0 .4 0"/><feOffset dx="4.0" dy="4.0" in="blurOut2" result="blurOut3"/><feBlend in="SourceGraphic" in2="blurOut3" mode="normal"/></filter></defs><g><text fill="#888888" font-family="sans-serif" font-size="10" lengthAdjust="spacingAndGlyphs" textLength="48" x="692" y="12.0459">DLTDOJO</text><text fill="#000000" font-family="sans-serif" font-size="18" lengthAdjust="spacingAndGlyphs" textLength="238" x="251" y="35.9258">mad-white-component-1907-1</text><!--cluster Docker Container--><polygon fill="#FFFFFF" filter="url(#f1xctaflgjy66m)" points="14,73.8809,143,73.8809,150,99.8213,259,99.8213,259,473.8809,14,473.8809,14,73.8809" style="stroke: #000000; stroke-width: 1.5;"/><line style="stroke: #000000; stroke-width: 1.5;" x1="14" x2="150" y1="99.8213" y2="99.8213"/><text fill="#000000" font-family="sans-serif" font-size="14" font-weight="bold" lengthAdjust="spacingAndGlyphs" textLength="123" x="18" y="92.7451">Docker Container</text><!--cluster Code Server container--><polygon fill="#FFFFFF" filter="url(#f1xctaflgjy66m)" points="38,119.8809,204,119.8809,211,145.8213,235,145.8213,235,449.8809,38,449.8809,38,119.8809" style="stroke: #000000; stroke-width: 1.5;"/><line style="stroke: #000000; stroke-width: 1.5;" x1="38" x2="211" y1="145.8213" y2="145.8213"/><text fill="#000000" font-family="sans-serif" font-size="14" font-weight="bold" lengthAdjust="spacingAndGlyphs" textLength="160" x="42" y="138.7451">Code Server container</text><!--cluster VS Code Extension--><polygon fill="#FFFFFF" filter="url(#f1xctaflgjy66m)" points="62,165.8809,201,165.8809,208,191.8213,211,191.8213,211,259.8809,62,259.8809,62,165.8809" style="stroke: #000000; stroke-width: 1.5;"/><line style="stroke: #000000; stroke-width: 1.5;" x1="62" x2="208" y1="191.8213" y2="191.8213"/><text fill="#000000" font-family="sans-serif" font-size="14" font-weight="bold" lengthAdjust="spacingAndGlyphs" textLength="133" x="66" y="184.7451">VS Code Extension</text><!--cluster Kubernetes--><polygon fill="#FFFFFF" filter="url(#f1xctaflgjy66m)" points="336,63.8809,425,63.8809,432,89.8213,706,89.8213,706,377.8809,336,377.8809,336,63.8809" style="stroke: #000000; stroke-width: 1.5;"/><line style="stroke: #000000; stroke-width: 1.5;" x1="336" x2="432" y1="89.8213" y2="89.8213"/><text fill="#000000" font-family="sans-serif" font-size="14" font-weight="bold" lengthAdjust="spacingAndGlyphs" textLength="83" x="340" y="82.7451">Kubernetes</text><!--cluster microk8s--><polygon fill="#FFFFFF" filter="url(#f1xctaflgjy66m)" points="578,109.8809,647,109.8809,654,135.8213,682,135.8213,682,353.8809,578,353.8809,578,109.8809" style="stroke: #000000; stroke-width: 1.5;"/><line style="stroke: #000000; stroke-width: 1.5;" x1="578" x2="654" y1="135.8213" y2="135.8213"/><text fill="#000000" font-family="sans-serif" font-size="14" font-weight="bold" lengthAdjust="spacingAndGlyphs" textLength="63" x="582" y="128.7451">microk8s</text><!--cluster Gitops--><polygon fill="#FFFFFF" filter="url(#f1xctaflgjy66m)" points="360,155.8809,412,155.8809,419,181.8213,470,181.8213,470,344.8809,360,344.8809,360,155.8809" style="stroke: #000000; stroke-width: 1.5;"/><line style="stroke: #000000; stroke-width: 1.5;" x1="360" x2="419" y1="181.8213" y2="181.8213"/><text fill="#000000" font-family="sans-serif" font-size="14" font-weight="bold" lengthAdjust="spacingAndGlyphs" textLength="46" x="364" y="174.7451">Gitops</text><!--entity CS--><rect fill="#FFFF00" filter="url(#f1xctaflgjy66m)" height="59.8809" style="stroke: #A80036; stroke-width: 1.5;" width="62" x="105.5" y="278.8809"/><rect fill="#FFFF00" height="5" style="stroke: #A80036; stroke-width: 1.5;" width="10" x="100.5" y="283.8809"/><rect fill="#FFFF00" height="5" style="stroke: #A80036; stroke-width: 1.5;" width="10" x="100.5" y="328.7617"/><text fill="#000000" font-family="sans-serif" font-size="14" lengthAdjust="spacingAndGlyphs" textLength="34" x="115.5" y="305.7451">Code</text><text fill="#000000" font-family="sans-serif" font-size="14" lengthAdjust="spacingAndGlyphs" textLength="42" x="115.5" y="325.6855">Server</text><!--entity mad-white\nprojects--><rect fill="#FEFECE" filter="url(#f1xctaflgjy66m)" height="59.8809" style="stroke: #A80036; stroke-width: 1.5;" width="84" x="94.5" y="373.8809"/><rect fill="#FEFECE" height="5" style="stroke: #A80036; stroke-width: 1.5;" width="10" x="89.5" y="378.8809"/><rect fill="#FEFECE" height="5" style="stroke: #A80036; stroke-width: 1.5;" width="10" x="89.5" y="423.7617"/><text fill="#000000" font-family="sans-serif" font-size="14" lengthAdjust="spacingAndGlyphs" textLength="64" x="104.5" y="400.7451">mad-white</text><text fill="#000000" font-family="sans-serif" font-size="14" lengthAdjust="spacingAndGlyphs" textLength="50" x="104.5" y="420.6855">projects</text><!--entity plantuml--><rect fill="#FEFECE" filter="url(#f1xctaflgjy66m)" height="39.9404" style="stroke: #A80036; stroke-width: 1.5;" width="73" x="100" y="203.8809"/><rect fill="#FEFECE" height="5" style="stroke: #A80036; stroke-width: 1.5;" width="10" x="95" y="208.8809"/><rect fill="#FEFECE" height="5" style="stroke: #A80036; stroke-width: 1.5;" width="10" x="95" y="233.8213"/><text fill="#000000" font-family="sans-serif" font-size="14" lengthAdjust="spacingAndGlyphs" textLength="53" x="110" y="230.7451">plantuml</text><!--entity DNS--><rect fill="#FEFECE" filter="url(#f1xctaflgjy66m)" height="39.9404" style="stroke: #A80036; stroke-width: 1.5;" width="48" x="606" y="147.8809"/><rect fill="#FEFECE" height="5" style="stroke: #A80036; stroke-width: 1.5;" width="10" x="601" y="152.8809"/><rect fill="#FEFECE" height="5" style="stroke: #A80036; stroke-width: 1.5;" width="10" x="601" y="177.8213"/><text fill="#000000" font-family="sans-serif" font-size="14" lengthAdjust="spacingAndGlyphs" textLength="28" x="616" y="174.7451">DNS</text><!--entity Registry--><rect fill="#FEFECE" filter="url(#f1xctaflgjy66m)" height="39.9404" style="stroke: #A80036; stroke-width: 1.5;" width="72" x="594" y="222.8809"/><rect fill="#FEFECE" height="5" style="stroke: #A80036; stroke-width: 1.5;" width="10" x="589" y="227.8809"/><rect fill="#FEFECE" height="5" style="stroke: #A80036; stroke-width: 1.5;" width="10" x="589" y="252.8213"/><text fill="#000000" font-family="sans-serif" font-size="14" lengthAdjust="spacingAndGlyphs" textLength="52" x="604" y="249.7451">Registry</text><!--entity Storage--><rect fill="#FEFECE" filter="url(#f1xctaflgjy66m)" height="39.9404" style="stroke: #A80036; stroke-width: 1.5;" width="70" x="595" y="297.8809"/><rect fill="#FEFECE" height="5" style="stroke: #A80036; stroke-width: 1.5;" width="10" x="590" y="302.8809"/><rect fill="#FEFECE" height="5" style="stroke: #A80036; stroke-width: 1.5;" width="10" x="590" y="327.8213"/><text fill="#000000" font-family="sans-serif" font-size="14" lengthAdjust="spacingAndGlyphs" textLength="50" x="605" y="324.7451">Storage</text><!--entity GIT--><rect fill="#008000" filter="url(#f1xctaflgjy66m)" height="39.9404" style="stroke: #A80036; stroke-width: 1.5;" width="78" x="376" y="288.8809"/><rect fill="#008000" height="5" style="stroke: #A80036; stroke-width: 1.5;" width="10" x="371" y="293.8809"/><rect fill="#008000" height="5" style="stroke: #A80036; stroke-width: 1.5;" width="10" x="371" y="318.8213"/><text fill="#000000" font-family="sans-serif" font-size="14" lengthAdjust="spacingAndGlyphs" textLength="58" x="386" y="315.7451">GIT gogs</text><!--entity CI--><rect fill="#0000FF" filter="url(#f1xctaflgjy66m)" height="39.9404" style="stroke: #A80036; stroke-width: 1.5;" width="74" x="378" y="193.8809"/><rect fill="#0000FF" height="5" style="stroke: #A80036; stroke-width: 1.5;" width="10" x="373" y="198.8809"/><rect fill="#0000FF" height="5" style="stroke: #A80036; stroke-width: 1.5;" width="10" x="373" y="223.8213"/><text fill="#000000" font-family="sans-serif" font-size="14" lengthAdjust="spacingAndGlyphs" textLength="54" x="388" y="220.7451">CI drone</text><!--link CS to GIT--><path d="M167.617,308.8809 C216.701,308.8809 314.134,308.8809 370.657,308.8809 " fill="none" id="CS-GIT" style="stroke: #A80036; stroke-width: 1.0;"/><polygon fill="#A80036" points="375.996,308.8809,366.996,304.8809,370.996,308.8809,366.996,312.8809,375.996,308.8809" style="stroke: #A80036; stroke-width: 1.0;"/><text fill="#000000" font-family="sans-serif" font-size="13" lengthAdjust="spacingAndGlyphs" textLength="43" x="276" y="305.5405">1. push</text><!--link GIT to CI--><path d="M415,288.7339 C415,274.2489 415,254.6169 415,239.0929 " fill="none" id="GIT-CI" style="stroke: #A80036; stroke-width: 1.0;"/><polygon fill="#A80036" points="415,233.9989,411,242.9989,415,238.9989,419,242.9989,415,233.9989" style="stroke: #A80036; stroke-width: 1.0;"/><text fill="#000000" font-family="sans-serif" font-size="13" lengthAdjust="spacingAndGlyphs" textLength="93" x="355.5" y="268.0405">2. build and test</text><!--link CI to Registry--><path d="M440.975,233.9049 C453.667,242.8099 469.805,252.3039 486,256.8809 C519.925,266.4689 559.973,261.2039 589.046,254.5629 " fill="none" id="CI-Registry" style="stroke: #A80036; stroke-width: 1.0;"/><polygon fill="#A80036" points="593.978,253.3999,584.2998,251.5745,589.1117,254.5486,586.1377,259.3605,593.978,253.3999" style="stroke: #A80036; stroke-width: 1.0;"/><text fill="#000000" font-family="sans-serif" font-size="13" lengthAdjust="spacingAndGlyphs" textLength="43" x="502.5" y="253.5405">3. push</text><!--link CI to Registry--><path d="M456.993,219.0069 C486.271,222.7189 526.582,227.9339 562,232.8809 C572.366,234.3289 583.623,235.9789 593.898,237.5149 " fill="none" id="CI-Registry-1" style="stroke: #A80036; stroke-width: 1.0;"/><polygon fill="#A80036" points="452.025,218.3779,460.4521,223.4752,456.9855,219.0051,461.4557,215.5384,452.025,218.3779" style="stroke: #A80036; stroke-width: 1.0;"/><text fill="#000000" font-family="sans-serif" font-size="13" lengthAdjust="spacingAndGlyphs" textLength="74" x="487" y="219.5405">4. pull image</text><text fill="#888888" font-family="sans-serif" font-size="10" lengthAdjust="spacingAndGlyphs" textLength="186" x="277" y="511.9268">https://github.com/dltdojo/taichu-crypto</text><!--
@startuml
header DLTDOJO
footer https://github.com/dltdojo/taichu-crypto
title mad-white-component-1907-1
skinparam handwritten false
left to right direction

package "Docker Container" {
    folder "Code Server container"{
      [Code\nServer] as CS #Yellow
      [mad-white\nprojects]
      folder "VS Code Extension"{
       [plantuml]
      }
    }
}

package "Kubernetes" {
  folder "microk8s" {
	[DNS]
	[Registry]
	[Storage]
  }
  folder "Gitops"{
    [GIT gogs] as GIT #Green
    [CI drone] as CI #Blue
  }
}

CS - -> GIT : 1. push
GIT -> CI : 2. build and test
CI - -> Registry : 3. push
CI <- - Registry : 4. pull image

@enduml

PlantUML version 1.2019.06(Sat May 25 01:10:25 CST 2019)
(GPL source distribution)
Java Runtime: Java(TM) SE Runtime Environment
JVM: Java HotSpot(TM) 64-Bit Server VM
Java Version: 1.8.0_221-b11
Operating System: Windows 10
OS Version: 10.0
Default Encoding: MS950
Language: zh
Country: TW
--></g></svg>