<?xml version="1.0" encoding="UTF-8" standalone="no"?>
<svg
   xmlns:dc="http://purl.org/dc/elements/1.1/"
   xmlns:cc="http://creativecommons.org/ns#"
   xmlns:rdf="http://www.w3.org/1999/02/22-rdf-syntax-ns#"
   xmlns:svg="http://www.w3.org/2000/svg"
   xmlns="http://www.w3.org/2000/svg"
   xmlns:sodipodi="http://sodipodi.sourceforge.net/DTD/sodipodi-0.dtd"
   xmlns:inkscape="http://www.inkscape.org/namespaces/inkscape"
   width="210mm"
   height="297mm"
   viewBox="0 0 210 297"
   version="1.1"
   id="svg8"
   inkscape:version="1.0.1 (1.0.1+r74)"
   sodipodi:docname="ethuseless-v1.svg"
   inkscape:export-filename="/home/joyelin/github/taichu-crypto/raw/ethuseless2020/ethuseless-v1.png"
   inkscape:export-xdpi="72"
   inkscape:export-ydpi="72">
  <defs
     id="defs2" />
  <sodipodi:namedview
     id="base"
     pagecolor="#ffffff"
     bordercolor="#666666"
     borderopacity="1.0"
     inkscape:pageopacity="0.0"
     inkscape:pageshadow="2"
     inkscape:zoom="0.35"
     inkscape:cx="-178.57143"
     inkscape:cy="560"
     inkscape:document-units="mm"
     inkscape:current-layer="layer1"
     inkscape:document-rotation="0"
     showgrid="false"
     inkscape:window-width="1475"
     inkscape:window-height="1016"
     inkscape:window-x="72"
     inkscape:window-y="27"
     inkscape:window-maximized="0" />
  <metadata
     id="metadata5">
    <rdf:RDF>
      <cc:Work
         rdf:about="">
        <dc:format>image/svg+xml</dc:format>
        <dc:type
           rdf:resource="http://purl.org/dc/dcmitype/StillImage" />
        <dc:title></dc:title>
      </cc:Work>
    </rdf:RDF>
  </metadata>
  <g
     inkscape:label="Layer 1"
     inkscape:groupmode="layer"
     id="layer1">
    <rect
       id="rect106"
       width="142.22057"
       height="289.45441"
       x="36.384392"
       y="3.0236943"
       style="fill:#f9f9f9;stroke-width:0.221582" />
    <path
       d="m 121.44828,46.765136 1.88886,-1.243882 c 0,-0.598906 0.0461,-1.151742 0.18428,-1.796718 0.0921,-0.644976 -0.0461,-1.151742 -0.36856,-1.658509 -0.27642,-0.460697 -0.46069,-1.013533 -0.46069,-1.612439 0,-0.644976 -0.0921,-1.243882 -0.27642,-1.796719 -0.64498,-0.230348 -1.24388,-0.368557 -1.75065,-0.460697 -0.55284,-0.09214 -1.15174,-0.230348 -1.70458,-0.414627 -0.59891,-0.184279 -1.15174,-0.506767 -1.65851,-0.921394 -0.4607,-0.460697 -0.92139,-0.875324 -1.38209,-1.243882 l -0.27642,-0.829254 -1.10567,-1.61244 h -0.50678 l -0.5989,-1.658509 0.18427,-1.382091 h 0.41463 c 0.3225,-0.783185 0.64499,-1.5203 0.87534,-2.349554 0.23034,-0.783185 0.46069,-1.56637 0.64497,-2.303485 0.23035,-0.737116 0.50677,-1.474231 0.73712,-2.165276 0.23035,-0.737115 0.55283,-1.5203 1.01353,-2.257415 l -0.36856,-2.441694 -2.39562,-1.474231 -2.02709,2.027067 0.69106,0.552836 c 0,0.875325 -0.0921,1.704579 -0.32249,2.441694 -0.23036,0.783185 -0.41464,1.5203 -0.50678,2.349555 -0.0921,0.829255 -0.32249,1.56637 -0.73711,2.303485 -0.36856,0.737115 -0.59891,1.47423 -0.73712,2.211345 -0.3225,0.506767 -0.64498,1.013534 -0.96747,1.474231 -0.32249,0.460697 -0.69105,0.829254 -1.15175,1.197812 -0.4607,0.414627 -0.87533,0.829255 -1.2439,1.289951 -0.41462,0.460697 -0.87532,0.783185 -1.28995,0.967464 v 1.289952 h -0.50677 v 0.644975 h -0.96747 v -0.644975 l -1.05961,-0.460697 h -0.41463 v 1.382091 h -0.55284 l 0.55284,2.165276 -0.32249,0.783184 0.9214,0.875325 0.23035,0.829254 h 0.96747 v -0.506766 l 2.07315,-0.644976 c 0.32248,-0.368558 0.64497,-0.691046 1.15175,-0.921394 0.4607,-0.276418 0.87533,-0.552837 1.28996,-0.829255 0.36856,-0.276418 0.69105,-0.552836 1.01354,-0.829254 0.32249,-0.230349 0.64498,-0.644976 0.9214,-1.197813 h 0.50676 l 0.18428,1.382091 2.76421,4.60697 0.41462,0.322488 1.01354,1.658509 0.69104,0.552837 v 0.460697 l 0.64498,0.276418 0.27642,0.598906 v -0.230349 l 1.79671,0.230349 v 0.552836 z M 87.034132,46.580858 c 0.506766,0 0.875324,-0.04607 1.197812,-0.13821 0.276418,-0.09214 0.552836,-0.276418 0.875324,-0.552836 0.322488,-0.230348 0.644976,-0.460697 0.967464,-0.691045 0.322488,-0.230349 0.598906,-0.414628 0.921394,-0.506767 v -0.598906 h 0.460697 c 0.138209,-0.414627 0.276418,-0.737115 0.460697,-0.967464 0.138209,-0.230348 0.322488,-0.460697 0.414627,-0.783185 0.138209,-0.322488 0.276418,-0.644976 0.368558,-1.013533 0.09214,-0.368558 0.138209,-0.691046 0.138209,-1.013533 h 0.737115 v 0.506766 l 2.257415,-2.165276 v -0.598906 h 0.460697 l 1.56637,-2.165276 V 35.109503 L 96.52449,33.95776 96.708768,33.174575 v -0.598906 l -1.105672,-0.783185 -1.61244,0.506767 -0.967464,2.487764 -2.349554,1.934927 h -0.414627 c 0.184278,-0.967464 0.230348,-1.934927 0.138209,-2.948461 -0.09214,-0.967463 0.04607,-1.888857 0.460697,-2.718112 0.414627,-0.829254 0.644975,-1.704579 0.691045,-2.579903 0.04607,-0.921394 0.276418,-1.796718 0.598906,-2.764182 0,-0.691045 0.04607,-1.42816 0.138209,-2.165276 0.04607,-0.737115 0,-1.382091 -0.230348,-1.888857 -0.276418,-0.552837 -0.598906,-1.105673 -0.967464,-1.704579 -0.368557,-0.506767 -0.691045,-1.059603 -1.013533,-1.61244 h -1.888858 c -0.276418,0.184279 -0.598906,0.368558 -0.921394,0.552837 -0.322488,0.184279 -0.506767,0.506766 -0.506767,0.921394 0,0.506766 0,0.967463 0,1.42816 0,0.414628 -0.04607,0.829255 -0.184278,1.197813 0,0.598906 0.04607,1.059603 0.09214,1.382091 0.04607,0.368557 0.184279,0.783184 0.368558,1.243881 0.138209,0.460697 0.322488,0.829255 0.506766,1.197813 0.138209,0.368557 0.276419,0.737115 0.414628,1.151742 l -0.921394,11.241006 -2.395625,1.65851 c 0,0.506766 0,0.967463 0,1.566369 0,0.598906 0,1.059603 0.09214,1.428161 0.09214,0.368558 0.276418,0.783185 0.552836,1.197812 0.230349,0.414627 0.414627,0.829255 0.552837,1.243882 z m 7.186873,-7.094734 -0.230349,0.184279 -0.230348,-0.184279 0.230348,-0.368558 z m 1.151742,-1.151742 -0.322488,0.322487 -0.184279,-0.322487 v -0.506767 l 0.737116,0.230348 z m 0.691046,-0.829255 -0.230349,0.322488 -0.230348,-0.322488 0.230348,-0.230349 z m 0.921394,-0.230349 -0.691046,0.230349 h -0.460697 l 0.460697,-1.059603 h 0.691046 z m 7.601523,-0.552836 -0.23034,0.230349 -0.23036,-0.230349 v -0.829255 h 0.4607 z M 96.985187,27.92263 c 0.322487,0 0.644975,-0.04607 0.967463,-0.138209 0.276418,-0.09214 0.506767,-0.230349 0.737115,-0.368558 0.230349,-0.184279 0.506767,-0.276418 0.829255,-0.276418 0.322488,0 0.59891,0 0.96746,0 v -1.105673 h -0.506763 l -0.644976,-3.0406 -3.731645,-1.336021 h -0.552837 c 0,0.506766 0.04607,1.105672 0.184279,1.750648 0.09214,0.644976 0.230348,1.197812 0.368558,1.658509 0.138209,0.460697 0.322487,0.921394 0.506766,1.474231 0.09214,0.598906 0.414628,1.013533 0.875325,1.382091 z"
       style="font-style:normal;font-variant:normal;font-weight:normal;font-stretch:normal;font-size:46.0697px;line-height:1.25;font-family:aoyagireisyo2;-inkscape-font-specification:'aoyagireisyo2, Normal';font-variant-ligatures:normal;font-variant-caps:normal;font-variant-numeric:normal;font-variant-east-asian:normal;fill:#000000;fill-opacity:1;stroke:none;stroke-width:0.239946"
       id="path90" />
    <path
       d="m 119.1588,95.963038 c 0.46069,0 0.87532,-0.18428 1.24388,-0.59891 0.32249,-0.41463 0.69104,-0.78318 1.10567,-1.10567 0.36856,-0.27642 0.78319,-0.50677 1.19781,-0.64498 0.4607,-0.13821 0.82926,-0.36855 1.10568,-0.69104 l 0.46069,-0.69105 0.64498,-0.23035 2.02707,-5.34408 v 0.230349 l -2.67205,1.197812 c -1.33602,0.138209 -2.48776,0.04607 -3.54736,-0.276418 -1.01354,-0.322488 -2.07314,-0.737115 -3.08667,-1.289952 -1.05961,-0.506766 -2.07314,-1.013533 -3.08667,-1.42816 -1.05962,-0.414628 -2.11922,-0.875325 -3.17883,-1.474231 v -0.460697 l -0.59891,-0.691045 -1.3821,-1.428161 -2.21136,-2.257415 -0.64498,-0.460697 v -0.737115 l -2.21136,-2.764182 h -0.4607 V 74.356349 L 103.17254,74.126 102.52756,72.974258 v -0.691046 c 0.73712,0 1.47424,0 2.25743,0 0.73713,0 1.52031,0 2.3035,0 0.78319,0 1.56638,0.09214 2.21136,0.230349 0.69105,0.138209 1.3821,0.322488 2.07315,0.460697 h 1.3821 l 1.33602,-2.119206 V 69.65724 l -0.64498,-0.644976 c -1.0596,-0.322488 -2.11921,-0.552837 -3.13276,-0.644976 -1.0596,-0.04607 -2.07314,-0.138209 -3.13276,-0.230348 -1.01353,-0.04607 -2.11921,-0.09214 -3.31703,-0.09214 -1.19782,0 -2.25742,-0.138209 -3.08668,-0.460697 -0.13821,-0.460697 -0.23035,-1.013533 -0.23035,-1.658509 0,-0.552836 0,-1.243882 0,-1.934927 0,-0.644976 -0.0921,-1.289952 -0.23035,-1.842788 -0.13821,-0.552837 -0.27642,-1.059603 -0.414632,-1.56637 l -0.506766,-0.230348 -2.579903,0.552836 -0.276419,1.105673 h -0.460697 l -1.336021,2.119206 c 0,0.138209 0,0.322488 0,0.552836 0,0.230349 0,0.506767 0,0.691046 0,0.230348 0,0.460697 0,0.691045 0,0.230349 0.184279,0.460697 0.506767,0.598906 v 0.506767 c -0.598906,0.138209 -1.197812,0.276418 -1.750649,0.506767 -0.598906,0.230348 -1.243882,0.506766 -1.888857,0.829254 -0.691046,0.322488 -1.382091,0.598906 -1.934928,0.691046 -0.598906,0.138209 -1.197812,0.368557 -1.796718,0.691045 l -0.875324,1.842788 h -0.460697 l -0.414627,1.013533 c 0,0.138209 0,0.322488 0,0.552837 0,0.230348 0,0.460697 0,0.691045 0,0.230349 0,0.460697 0,0.691046 0,0.230348 0.138209,0.414627 0.414627,0.598906 0.598906,0 1.243882,-0.138209 1.796718,-0.322488 0.598906,-0.230349 1.243882,-0.414627 1.888858,-0.506767 0.691045,-0.04607 1.336021,-0.184279 1.888857,-0.322488 0.598906,-0.138209 1.197812,-0.322488 1.750649,-0.460697 l 2.211345,0.230349 0.230349,1.105673 c 0,0.783184 -0.04607,1.612439 -0.09214,2.349554 -0.09214,0.783185 -0.184278,1.5203 -0.322487,2.211346 -0.13821,0.691045 -0.368558,1.382091 -0.644976,2.073136 -0.322488,0.691046 -0.552837,1.428161 -0.691046,2.211346 h -0.460697 l -2.257415,3.0406 h -0.598906 v 0.460697 c -0.783185,0.322488 -1.47423,0.644976 -2.119206,1.059603 -0.691046,0.368561 -1.336021,0.691041 -2.119206,0.921391 -0.783185,0.23035 -1.5203,0.36856 -2.349555,0.36856 -0.783185,0 -1.658509,0 -2.533833,0 v 0.23035 h 0.644976 v 0.41463 h -0.644976 l -0.644976,0.96746 v 0.23035 h 0.230349 v 0.69104 h -0.460697 l 0.691045,1.61244 c 0.552836,0 1.197812,0 1.888858,0 0.644975,0 1.289951,-0.13821 1.888857,-0.36856 0.552837,-0.23034 1.105673,-0.50676 1.658509,-0.82925 0.460697,-0.32249 0.967464,-0.55284 1.382091,-0.87532 l 0.921394,-0.96747 2.441694,-1.61244 1.105673,-1.612436 h 0.460697 v -0.230348 l 0.644976,0.230348 0.921394,1.612436 0.829255,0.96747 v 0.41462 l 0.921394,0.23035 0.414628,0.73712 0.644975,0.23035 2.257419,-0.23035 0.64497,-2.57991 -0.41462,-2.073131 -0.921399,-0.921394 c -0.322488,-0.138209 -0.552836,-0.368558 -0.829254,-0.598906 -0.322489,-0.230349 -0.598906,-0.368558 -0.921395,-0.460697 -0.322488,-0.04607 -0.552836,-0.184279 -0.875325,-0.322488 -0.322488,-0.184279 -0.598906,-0.276418 -0.921394,-0.276418 0.138209,-0.598906 0.368558,-1.243882 0.691046,-1.842788 0.322488,-0.598906 0.598906,-1.243882 0.875324,-1.842788 0.276419,-0.644976 0.552837,-1.289952 0.783185,-1.888858 0.230349,-0.598906 0.368558,-1.336021 0.368558,-2.073136 l 1.289954,0.230348 v 0.460697 h 0.69105 v 0.460697 l 0.64497,0.230349 v 0.737115 l 0.64498,0.644976 2.02708,2.349554 0.69105,0.460697 v 0.644976 l 0.36856,0.276418 0.96747,1.382091 0.64498,0.506767 v 0.691045 h 0.41463 l 1.79672,2.994534 1.98102,2.34955 h 0.41463 l 0.23035,0.69105 2.02707,1.38209 v 0.46069 c 0.4607,0.32249 0.92141,0.55284 1.33603,0.87533 0.41463,0.32249 0.87533,0.55283 1.33602,0.73711 0.41463,0.13821 0.9214,0.23035 1.47424,0.32249 0.50676,0.0461 0.96746,0.18428 1.38209,0.41463 z"
       style="font-style:normal;font-variant:normal;font-weight:normal;font-stretch:normal;font-size:46.0697px;line-height:1.25;font-family:aoyagireisyo2;-inkscape-font-specification:'aoyagireisyo2, Normal';font-variant-ligatures:normal;font-variant-caps:normal;font-variant-numeric:normal;font-variant-east-asian:normal;fill:#000000;fill-opacity:1;stroke:none;stroke-width:0.239946"
       id="path92" />
    <path
       d="m 88.341344,163.39683 1.409627,-0.98676 1.268664,-3.38309 -0.422888,-4.01745 -2.255403,-1.05721 -1.762035,0.49338 c 0.281925,0.63432 0.422889,1.40962 0.422889,2.25539 0,0.84578 0,1.69156 0,2.53734 0,0.84576 0,1.69155 0,2.53733 0,0.77528 0.493369,1.26866 1.339146,1.62107 z m 30.941406,0 0.91627,-0.4229 -0.4229,-5.00418 -5.49755,-5.42705 -1.69156,0.42287 1.69156,7.54151 z m -21.567385,-0.98676 1.902997,-1.48009 c 0,-0.63434 0,-1.26867 0,-1.97348 0,-0.63433 0,-1.33916 0,-1.97348 0,-0.63433 -0.211444,-1.26867 -0.704813,-1.76204 -0.493371,-0.49336 -0.98674,-1.05722 -1.550592,-1.69155 l -1.832515,0.42289 c 0,0.70481 0,1.4801 0,2.32589 0,0.7753 0.07048,1.62106 0.281926,2.46685 0.140964,0.84576 0.281926,1.55058 0.422888,2.18492 0.140963,0.70482 0.563851,1.19817 1.480109,1.48009 z m 8.175875,-1.90299 2.25542,-1.05721 v -2.88973 l -3.59458,-4.01744 h -0.98675 l -0.42289,0.98673 c 0,0.63433 0,1.26867 0,1.97348 0,0.70481 0.14097,1.26867 0.49338,1.69157 0.28192,0.49335 0.63433,0.98672 1.12771,1.48009 0.49337,0.49338 0.7753,1.12769 1.12771,1.83251 z m -35.945531,-3.52406 c 2.114441,-1.05723 4.1584,-2.11443 6.131878,-3.24215 1.902996,-1.19817 3.876475,-2.18492 5.990916,-2.96022 2.184921,-0.84576 4.299362,-1.55058 6.554767,-2.04395 2.18492,-0.49338 4.369843,-1.05722 6.413802,-1.69155 3.665032,-0.35241 7.118628,-0.42289 10.431278,-0.0705 3.24215,0.35241 6.48431,0.91625 9.58552,1.69155 3.10117,0.84579 6.20236,1.97348 9.16258,3.24215 2.96021,1.33914 6.13187,2.32589 9.4445,3.10116 0.63433,0 1.19816,0 1.55059,0 0.42289,0 0.84577,-0.0705 1.33914,-0.2819 0.49336,-0.21145 0.91626,-0.35242 1.33915,-0.56385 0.49337,-0.14091 0.84578,-0.35242 1.19817,-0.63434 l -0.49336,-3.0307 0.49336,-1.55059 v -0.4229 l -23.39981,-5.49752 0.49338,-5.49756 4.01745,-1.48011 -1.33916,-5.00417 c -0.63433,0 -1.19818,0 -1.76203,0 -0.63434,0 -1.12771,0 -1.62107,0 -0.49337,0 -0.84578,-0.28193 -1.12771,-0.70482 -0.21145,-0.49337 -0.63434,-0.98674 -1.26867,-1.33914 h -1.40964 l -0.42289,2.46686 h -3.59456 l -1.76205,-2.88975 -1.33916,0.42289 -0.49337,2.46686 -1.40964,0.56383 -5.779483,-2.04396 -1.339145,0.56386 -1.409627,2.46685 h -1.691553 l -0.49337,-1.55058 -2.184921,-0.91627 -1.902997,0.49337 0.986739,2.53733 v 1.90299 h -1.339146 l -2.678292,3.59455 v 1.48012 l 3.524069,-0.56386 h 1.409627 v 3.45358 l -18.889004,6.06141 -1.762035,4.01743 0.845777,3.0307 z m 35.029261,-14.51916 h -4.51083 l 0.49337,-5.92044 h 4.51084 l -0.49338,3.45359 z m 6.69577,-0.49337 -0.42289,0.49337 h -2.74878 v -5.92044 h 4.08794 z m -16.140298,-0.4229 -1.762033,0.91627 h -0.916257 l 0.493368,-4.51081 3.524067,1.12769 v 1.903 z m -8.034875,-16.56311 c 1.480109,-0.56384 3.030699,-1.26866 4.440325,-1.97348 1.480109,-0.70482 2.960218,-1.26866 4.510807,-1.76202 1.409628,-0.49339 3.030699,-0.91627 4.651771,-1.26868 1.62108,-0.3524 3.24216,-0.63432 4.79277,-0.91625 l 3.10119,0.42289 h 5.0042 l -0.49337,-4.44033 -1.83252,-1.05722 c -1.40963,0 -2.96024,0 -4.44036,0 -1.55059,0 -3.03071,0.0705 -4.51083,0.28192 -1.48011,0.21145 -2.960226,0.4229 -4.228891,0.7753 -1.409627,0.3524 -2.819255,0.70481 -4.369844,0.98674 h -2.678291 v -3.03071 l -3.10118,-3.45358 -2.748773,0.49337 -1.268666,2.96021 0.916258,3.4536 -1.339145,3.0307 0.422887,3.59454 z"
       style="font-style:normal;font-variant:normal;font-weight:normal;font-stretch:normal;font-size:46.0697px;line-height:1.25;font-family:aoyagireisyo2;-inkscape-font-specification:'aoyagireisyo2, Normal';font-variant-ligatures:normal;font-variant-caps:normal;font-variant-numeric:normal;font-variant-east-asian:normal;fill:#000000;fill-opacity:1;stroke:none;stroke-width:0.36709"
       id="path94" />
    <path
       d="m 129.18537,230.83061 2.04395,-4.1584 -2.04395,-14.23724 c 0,-2.46684 0.28192,-5.00417 0.77529,-7.61198 0.49338,-2.53733 0.98673,-5.07466 1.33914,-7.54151 0.35242,-2.39637 0.49338,-5.00418 0.49338,-7.75296 0,-2.74876 0.56385,-5.21561 1.69155,-7.33004 l -0.63433,-1.97349 c -1.05722,-0.21145 -2.18494,-0.63432 -3.17166,-1.05722 -1.05723,-0.49337 -2.18492,-0.84578 -3.17167,-1.19819 -1.1277,-0.28193 -2.32589,-0.42288 -3.52406,-0.42288 -1.33915,0 -2.46685,-0.21144 -3.52408,-0.56385 l -9.58549,0.56385 v 0.91625 l -5.84998,-0.42289 v -0.49336 c -1.40963,0.3524 -3.0307,0.56385 -4.581304,0.70481 -1.621066,0.1409 -3.101171,0.28192 -4.581292,0.49338 -1.409612,0.21144 -2.889734,0.56385 -4.228869,1.05722 -1.409628,0.63432 -2.74878,0.91625 -4.228886,0.91625 l -1.621064,2.81926 c 0,0.91626 0.281909,1.76202 0.845762,2.46684 0.493379,0.84579 1.057232,1.62107 1.550603,2.32589 0.493359,0.77529 0.775289,1.55058 0.775289,2.32588 0,0.70483 0.211446,1.62107 0.63433,2.53734 0,1.8325 0,3.66501 0,5.2861 0,1.62106 -0.07054,3.31261 -0.281931,5.00416 -0.211438,1.76205 -0.634329,3.31264 -1.127688,4.86321 -0.493371,1.55061 -1.127707,3.1012 -1.762043,4.58129 l -7.118617,6.97766 -1.480106,2.2554 h -1.127706 l -0.986735,2.25541 0.986735,3.66503 h 1.550595 v 0.35242 l 5.49754,-2.60782 c 0.986741,-1.1982 2.114455,-2.39637 3.101182,-3.66504 1.057231,-1.26866 1.90299,-2.53731 2.466843,-3.94695 0.493385,-1.33914 1.057238,-2.74878 1.55059,-4.08791 0.493376,-1.40964 0.986745,-2.81926 1.409636,-4.36985 l 1.409629,0.4229 2.748764,-0.4229 v -1.83251 l 8.598743,-2.32589 h 1.62109 l 0.42288,9.16258 -0.42288,2.81924 0.98674,7.82344 4.86324,-3.24215 -0.63434,-6.90717 v -10.64268 l 15.5764,0.56385 -1.12769,18.32516 1.12769,5.35659 z m -24.10467,-29.39073 -10.149352,2.81925 h -2.255395 c 0,-0.63433 0,-1.19817 0,-1.62106 0,-0.49338 0,-0.98675 0,-1.48012 0,-0.49336 0.211437,-0.84577 0.634329,-1.1277 0.352407,-0.21144 0.775308,-0.49337 1.127698,-0.84579 l 7.40056,-2.81924 h 3.80601 z m 20.79205,-0.49336 -0.56385,0.49336 -3.17167,-0.98673 -8.52824,0.49337 -3.1717,-0.84579 0.4229,-3.24215 11.27704,-0.84576 1.12771,-1.90301 -1.12771,-2.32588 -11.27704,-0.42287 1.12769,-7.82344 1.62111,0.49337 v -0.91627 h 0.63433 l -1.1982,0.4229 h -1.55059 l 0.49335,-2.81926 h 4.79276 v -0.49337 l 1.69156,1.05722 4.79274,0.91627 -2.18493,1.83251 h -2.60781 v -0.49337 l -1.05722,-0.4229 -1.69155,0.4229 h 1.69155 v 0.91626 l 5.28611,0.42287 1.12769,5.07467 h 0.98674 l 1.05723,2.74876 z m -20.2282,-9.16259 -5.849987,0.91625 h -6.484281 l 0.563853,-1.83251 -0.563853,-2.32588 v -2.74877 l 4.79273,-1.33914 v -0.42289 l 5.920448,0.42289 1.62109,3.7355 z m -4.79275,-7.75294 -0.49338,0.42289 -0.563857,-0.42289 0.563857,-0.49337 z m 0.98674,0 -0.56385,0.42289 -0.42289,-0.42289 0.42289,-0.49337 z m 20.86255,0 -0.56386,0.42289 h -0.56386 l 0.56386,-0.91626 z m -19.73484,-0.49337 -0.56386,0.49337 h -0.56385 l 0.56385,-0.91627 z m 12.75718,-1.33914 h 0.56385 v -0.49338 h -0.98674 z m 5.84994,-0.91627 -0.49336,0.42289 h -0.56385 l 0.56385,-0.98674 z m -9.02163,-1.05722 -0.56386,0.49337 -0.49335,-0.49337 0.49335,-0.3524 z m 2.18494,0 -0.49336,0.49337 h -1.1982 v -0.84577 z m 0.98675,0 -0.42289,0.49337 -0.56386,-0.49337 0.56386,-0.3524 z m 3.7355,0 -0.49337,0.49337 h -0.49336 l 0.49336,-0.84577 z m -10.07885,-0.77529 -0.56386,0.42289 h -0.49337 l 0.49337,-0.84578 z m 5.3566,0.42289 -5.3566,-0.42289 v -0.98675 h 1.05721 v -0.91625 h 1.55059 l 0.56386,1.48011 h 2.18494 z m 1.5506,-0.84578 -0.56385,0.42289 -0.42289,-0.42289 0.42289,-0.56386 z m 1.1277,0 -0.63434,0.42289 -0.49336,-0.42289 0.49336,-0.56386 z m 1.55058,0 -0.49336,0.42289 h -0.56385 l 0.56385,-0.98675 z m 1.5506,0 -0.56385,0.42289 -0.49338,-0.42289 0.49338,-0.56386 z m 1.05721,0 -0.49336,0.42289 -0.56385,-0.42289 0.56385,-0.56386 z m -8.52825,-0.56386 -0.49338,0.56386 -0.56386,-0.56386 0.56386,-0.42289 z m 8.52825,-0.42289 -0.49336,0.42289 -0.56385,-0.42289 0.56385,-0.49336 z m -6.83669,-0.49336 -0.49336,0.49336 -0.63433,-0.49336 0.63433,-0.56385 z m 0.98675,0 -0.42289,0.49336 -0.56386,-0.49336 0.56386,-0.56385 z m 1.69155,0 -0.63434,0.49336 -0.49336,-0.49336 0.49336,-0.56385 z"
       style="font-style:normal;font-variant:normal;font-weight:normal;font-stretch:normal;font-size:46.0697px;line-height:1.25;font-family:aoyagireisyo2;-inkscape-font-specification:'aoyagireisyo2, Normal';font-variant-ligatures:normal;font-variant-caps:normal;font-variant-numeric:normal;font-variant-east-asian:normal;fill:#000000;fill-opacity:1;stroke:none;stroke-width:0.36709"
       id="path96" />
    <path
       d="m 108.95433,280.99598 c 0.55284,0 1.15175,0 1.75066,0 0.55284,0 1.0596,-0.13821 1.56638,-0.41462 0.41463,-0.27642 0.82926,-0.64498 1.19781,-1.10568 0.36857,-0.41462 0.82927,-0.73711 1.3821,-0.87532 0.36856,-0.96746 0.82926,-1.88886 1.33603,-2.81025 0.46069,-0.96747 0.87532,-1.88886 1.24388,-2.94846 0.36855,-0.96747 0.78318,-1.93493 1.24388,-2.90239 0.4607,-0.9214 0.78318,-1.93493 0.96746,-2.99453 h 0.59891 v -1.15175 h 0.50677 l 0.87532,-2.16527 h 0.55284 l 0.82925,-3.08667 -0.82925,-1.93493 h -0.55284 v -0.55284 c -0.59891,-0.36855 -1.19781,-0.55283 -1.79672,-0.64497 -0.69104,-0.0921 -1.28995,-0.23035 -1.79672,-0.4607 -0.5989,-0.23035 -1.19781,-0.32249 -1.84278,-0.32249 -0.69105,0 -1.42817,0 -2.16528,0 l -0.55285,-1.88885 v -0.87533 c 0.7832,0 1.61245,0 2.57992,0 0.92139,0 1.75064,0.0461 2.48776,0.13821 0.73712,0.13821 1.47423,0.23035 2.21135,0.32249 0.78318,0.0921 1.5203,0.32249 2.25741,0.69104 h 2.5799 v -0.55283 h 0.50677 l 0.27642,-0.82926 h 0.5989 v -0.82925 c -0.92139,-0.55284 -1.93492,-1.01354 -2.94846,-1.38209 -1.0596,-0.36856 -2.1192,-0.59891 -3.27094,-0.73712 -1.10568,-0.0921 -2.21135,-0.13821 -3.31702,-0.13821 -1.10568,0 -2.30349,0 -3.40916,0 l -0.55285,-4.65304 -1.93493,-1.47423 h -0.59891 l -1.98101,1.981 c 0,0.41463 0,0.73711 0,1.01353 0,0.27642 0,0.50677 0,0.78319 0,0.27642 0.0921,0.55283 0.27642,0.82925 0.18428,0.32249 0.36856,0.55284 0.55284,0.73712 v 0.78318 l -5.89696,1.981 v 0.27642 h -0.55283 v 0.55283 h -0.50678 l -0.5989,1.93493 h -0.27643 l 0.27643,1.981 1.65851,-0.32249 v -0.59891 h 0.64498 v -0.55283 l 3.59346,-1.33602 h 0.82926 l 0.55284,1.61244 -2.48777,7.55543 -4.19238,5.20587 v 0.55284 h -0.5989 v 0.59891 h -0.55284 l -0.27642,0.55283 -7.877928,4.92946 h 0.875324 l 0.829255,1.19781 0.829254,0.50677 v 0.82925 c 0.783185,-0.18428 1.47423,-0.32249 2.257415,-0.41462 0.783185,-0.0921 1.382091,-0.41463 1.981,-0.96747 0.55284,-0.5989 1.10568,-1.15174 1.79672,-1.70458 0.69105,-0.50676 1.2439,-0.96746 1.79673,-1.38209 l 0.92141,-1.61244 0.82925,-0.27642 4.46879,-7.18687 h 0.59891 c 0.13821,-0.36856 0.32249,-0.69104 0.55284,-1.01353 0.18428,-0.27642 0.36856,-0.55284 0.55283,-0.82926 0.18428,-0.27641 0.32249,-0.5989 0.41464,-1.01353 0.0921,-0.32249 0.13821,-0.69105 0.13821,-1.0596 l 2.21136,-0.27642 c 0.36855,0 0.78318,0 1.28995,0 0.46069,0 0.82925,0.0461 1.24388,0.13821 0.41463,0.0921 0.87532,0.13821 1.42816,0.13821 0.55284,0 0.92139,0.18428 1.10567,0.55283 -0.18428,1.28996 -0.46069,2.48777 -0.82925,3.73165 -0.36856,1.19781 -0.73712,2.39562 -1.10567,3.63951 -0.36856,1.19781 -0.78319,2.34955 -1.24389,3.40915 -0.50676,1.10568 -1.10567,2.21135 -1.88885,3.31702 -0.36856,0.36856 -0.78319,0.69105 -1.2439,1.01353 -0.46069,0.32249 -0.87532,0.50677 -1.33603,0.69105 -0.50676,0.18428 -0.96746,0.27642 -1.42817,0.27642 -0.50676,0 -1.0596,0.0921 -1.61244,0.27642 l -1.3821,1.38209 v 0.55283 l -0.82925,0.23035 z m -26.950824,-7.46329 c 1.151743,-0.55283 2.303485,-1.10567 3.547367,-1.79672 1.197812,-0.64497 2.349554,-1.28995 3.501297,-2.07313 1.105672,-0.73712 2.349554,-1.19781 3.639506,-1.38209 1.289951,-0.18428 2.533833,-0.64498 3.639505,-1.33602 l 0.276419,-1.15175 v -1.88885 h -1.934927 l 1.105672,-4.19235 3.409159,-1.38209 0.506766,-0.82925 c 0,-0.36856 0,-0.69105 0,-1.01354 0,-0.27641 0,-0.5989 0,-0.92139 0,-0.36856 -0.04607,-0.64498 -0.13821,-0.82925 -0.09214,-0.18428 -0.322488,-0.36856 -0.644976,-0.55284 l -2.579903,0.27642 h -0.552836 v -4.97553 h -0.552836 v -0.59891 l -0.829255,-0.27641 h -2.533833 l -0.276419,1.15174 0.552837,2.76418 v 2.76418 l -3.08667,0.78319 c -0.184279,0.18428 -0.414627,0.32248 -0.691046,0.41462 -0.322487,0.0921 -0.598906,0.27642 -0.829254,0.59891 -0.276418,0.32249 -0.460697,0.55284 -0.552836,0.82925 -0.13821,0.27642 -0.276419,0.50677 -0.460697,0.69105 l 0.276418,1.38209 4.46876,0.55284 -0.276418,2.21134 -1.658509,1.42816 v 0.55284 c -0.783185,0.18428 -1.428161,0.4607 -1.934927,0.92139 -0.598906,0.50677 -1.151743,0.87533 -1.704579,1.15175 -0.598906,0.27641 -1.197812,0.50676 -1.796718,0.78318 -0.691046,0.27642 -1.382091,0.41463 -2.119206,0.41463 l -0.552837,2.53383 c 0,0.36856 0,0.69105 0,0.96747 0,0.27641 0,0.55283 0,0.82925 0,0.27642 0.09214,0.50677 0.276419,0.64498 0.18428,0.18427 0.368557,0.36855 0.506767,0.55283 z"
       style="font-style:normal;font-variant:normal;font-weight:normal;font-stretch:normal;font-size:46.0697px;line-height:1.25;font-family:aoyagireisyo2;-inkscape-font-specification:'aoyagireisyo2, Normal';font-variant-ligatures:normal;font-variant-caps:normal;font-variant-numeric:normal;font-variant-east-asian:normal;fill:#000000;fill-opacity:1;stroke:none;stroke-width:0.239946"
       id="path98" />
  </g>
</svg>
