<?xml version="1.0" encoding="UTF-8" standalone="no"?><svg xmlns="http://www.w3.org/2000/svg" xmlns:xlink="http://www.w3.org/1999/xlink" contentScriptType="application/ecmascript" contentStyleType="text/css" height="974px" preserveAspectRatio="none" style="width:523px;height:974px;" version="1.1" viewBox="0 0 523 974" width="523px" zoomAndPan="magnify"><defs><filter height="300%" id="fxgfvhjt8b9br" width="300%" x="-1" y="-1"><feGaussianBlur result="blurOut" stdDeviation="2.0"/><feColorMatrix in="blurOut" result="blurOut2" type="matrix" values="0 0 0 0 0 0 0 0 0 0 0 0 0 0 0 0 0 0 .4 0"/><feOffset dx="4.0" dy="4.0" in="blurOut2" result="blurOut3"/><feBlend in="SourceGraphic" in2="blurOut3" mode="normal"/></filter></defs><g><text fill="#000000" font-family="sans-serif" font-size="14" font-weight="bold" lengthAdjust="spacingAndGlyphs" textLength="196" x="159" y="44.1074">dltdojo-taichu-crypto-1907-1</text><path d="M25,141.124 L25.2802,141.124 L24.4476,151.1007 L25.2577,161.0774 L25.5329,171.0541 L24.0488,181.0308 L24.8964,191.0075 L24.4313,200.9842 L24.4887,210.9609 L24.9091,220.9376 L24.0782,230.9143 L25.7382,240.891 L24.1596,250.8677 L24.7363,260.8444 L25.5759,270.8211 L24.8856,280.7978 L25.091,290.7745 L24.9574,300.7512 L25.238,310.7279 L25.3188,320.7046 L25.7809,330.6813 L25.8947,340.658 L25.9057,350.6347 L25.3395,360.6114 L25.6181,370.5881 L25.9363,380.5648 L24.0384,390.5415 L25.9047,400.5182 L24.6047,410.4949 L25.7117,420.4716 L24.34,430.4483 L24.9087,440.425 L25.9888,450.4017 L24.935,460.3784 L25.1404,470.3551 L25.4515,480.3318 L25.555,490.3085 L24.9948,500.2852 L25.383,510.2619 L24.2368,520.2386 L25.3792,530.2153 L25.7309,540.1919 L25.5927,550.1686 L25.8174,560.1453 L24.3559,570.122 L24.1304,580.0987 L24.1715,590.0754 L24.9215,600.0521 L24.738,610.0288 L25.9085,620.0055 L24.7671,629.9822 L24.5426,639.9589 L25.3044,649.9356 L24.1109,659.9123 L24.3078,669.889 L25.8653,679.8657 L25.5809,689.8424 L25.9793,699.8191 L24.5709,709.7958 L25.4256,719.7725 L25.7872,729.7492 L24.3701,739.7259 L24.8722,749.7026 L25.168,759.6793 L25.869,769.656 L24.9944,779.6327 L25.6168,789.6094 L24.2616,799.5861 L24.097,809.5628 L25.6715,819.5395 L24.0441,829.5162 L25.6786,839.4929 L25.2755,849.4696 L25,859.4463 " fill="none" style="stroke: #A80036; stroke-width: 1.0; stroke-dasharray: 5.0,5.0;"/><path d="M98.5,141.124 L98.7802,141.124 L97.9476,151.1007 L98.7577,161.0774 L99.0329,171.0541 L97.5488,181.0308 L98.3964,191.0075 L97.9313,200.9842 L97.9887,210.9609 L98.4091,220.9376 L97.5782,230.9143 L99.2382,240.891 L97.6596,250.8677 L98.2363,260.8444 L99.0759,270.8211 L98.3856,280.7978 L98.591,290.7745 L98.4574,300.7512 L98.738,310.7279 L98.8188,320.7046 L99.2809,330.6813 L99.3947,340.658 L99.4057,350.6347 L98.8395,360.6114 L99.1181,370.5881 L99.4363,380.5648 L97.5384,390.5415 L99.4047,400.5182 L98.1047,410.4949 L99.2117,420.4716 L97.84,430.4483 L98.4087,440.425 L99.4888,450.4017 L98.435,460.3784 L98.6404,470.3551 L98.9515,480.3318 L99.055,490.3085 L98.4948,500.2852 L98.883,510.2619 L97.7368,520.2386 L98.8792,530.2153 L99.2309,540.1919 L99.0927,550.1686 L99.3174,560.1453 L97.8559,570.122 L97.6304,580.0987 L97.6715,590.0754 L98.4215,600.0521 L98.238,610.0288 L99.4085,620.0055 L98.2671,629.9822 L98.0426,639.9589 L98.8044,649.9356 L97.6109,659.9123 L97.8078,669.889 L99.3653,679.8657 L99.0809,689.8424 L99.4793,699.8191 L98.0709,709.7958 L98.9256,719.7725 L99.2872,729.7492 L97.8701,739.7259 L98.3722,749.7026 L98.668,759.6793 L99.369,769.656 L98.4944,779.6327 L99.1168,789.6094 L97.7616,799.5861 L97.597,809.5628 L99.1715,819.5395 L97.5441,829.5162 L99.1786,839.4929 L98.7755,849.4696 L98.5,859.4463 " fill="none" style="stroke: #A80036; stroke-width: 1.0; stroke-dasharray: 5.0,5.0;"/><path d="M184,141.124 L184.2802,141.124 L183.4476,151.1007 L184.2577,161.0774 L184.5329,171.0541 L183.0488,181.0308 L183.8964,191.0075 L183.4313,200.9842 L183.4887,210.9609 L183.9091,220.9376 L183.0782,230.9143 L184.7382,240.891 L183.1596,250.8677 L183.7363,260.8444 L184.5759,270.8211 L183.8856,280.7978 L184.091,290.7745 L183.9574,300.7512 L184.238,310.7279 L184.3188,320.7046 L184.7809,330.6813 L184.8947,340.658 L184.9057,350.6347 L184.3395,360.6114 L184.6181,370.5881 L184.9363,380.5648 L183.0384,390.5415 L184.9047,400.5182 L183.6047,410.4949 L184.7117,420.4716 L183.34,430.4483 L183.9087,440.425 L184.9888,450.4017 L183.935,460.3784 L184.1404,470.3551 L184.4515,480.3318 L184.555,490.3085 L183.9948,500.2852 L184.383,510.2619 L183.2368,520.2386 L184.3792,530.2153 L184.7309,540.1919 L184.5927,550.1686 L184.8174,560.1453 L183.3559,570.122 L183.1304,580.0987 L183.1715,590.0754 L183.9215,600.0521 L183.738,610.0288 L184.9085,620.0055 L183.7671,629.9822 L183.5426,639.9589 L184.3044,649.9356 L183.1109,659.9123 L183.3078,669.889 L184.8653,679.8657 L184.5809,689.8424 L184.9793,699.8191 L183.5709,709.7958 L184.4256,719.7725 L184.7872,729.7492 L183.3701,739.7259 L183.8722,749.7026 L184.168,759.6793 L184.869,769.656 L183.9944,779.6327 L184.6168,789.6094 L183.2616,799.5861 L183.097,809.5628 L184.6715,819.5395 L183.0441,829.5162 L184.6786,839.4929 L184.2755,849.4696 L184,859.4463 " fill="none" style="stroke: #A80036; stroke-width: 1.0; stroke-dasharray: 5.0,5.0;"/><path d="M260,141.124 L260.2802,141.124 L259.4476,151.1007 L260.2577,161.0774 L260.5329,171.0541 L259.0488,181.0308 L259.8964,191.0075 L259.4313,200.9842 L259.4887,210.9609 L259.9091,220.9376 L259.0782,230.9143 L260.7382,240.891 L259.1596,250.8677 L259.7363,260.8444 L260.5759,270.8211 L259.8856,280.7978 L260.091,290.7745 L259.9574,300.7512 L260.238,310.7279 L260.3188,320.7046 L260.7809,330.6813 L260.8947,340.658 L260.9057,350.6347 L260.3395,360.6114 L260.6181,370.5881 L260.9363,380.5648 L259.0384,390.5415 L260.9047,400.5182 L259.6047,410.4949 L260.7117,420.4716 L259.34,430.4483 L259.9087,440.425 L260.9888,450.4017 L259.935,460.3784 L260.1404,470.3551 L260.4515,480.3318 L260.555,490.3085 L259.9948,500.2852 L260.383,510.2619 L259.2368,520.2386 L260.3792,530.2153 L260.7309,540.1919 L260.5927,550.1686 L260.8174,560.1453 L259.3559,570.122 L259.1304,580.0987 L259.1715,590.0754 L259.9215,600.0521 L259.738,610.0288 L260.9085,620.0055 L259.7671,629.9822 L259.5426,639.9589 L260.3044,649.9356 L259.1109,659.9123 L259.3078,669.889 L260.8653,679.8657 L260.5809,689.8424 L260.9793,699.8191 L259.5709,709.7958 L260.4256,719.7725 L260.7872,729.7492 L259.3701,739.7259 L259.8722,749.7026 L260.168,759.6793 L260.869,769.656 L259.9944,779.6327 L260.6168,789.6094 L259.2616,799.5861 L259.097,809.5628 L260.6715,819.5395 L259.0441,829.5162 L260.6786,839.4929 L260.2755,849.4696 L260,859.4463 " fill="none" style="stroke: #A80036; stroke-width: 1.0; stroke-dasharray: 5.0,5.0;"/><path d="M359,141.124 L359.2802,141.124 L358.4476,151.1007 L359.2577,161.0774 L359.5329,171.0541 L358.0488,181.0308 L358.8964,191.0075 L358.4313,200.9842 L358.4887,210.9609 L358.9091,220.9376 L358.0782,230.9143 L359.7382,240.891 L358.1596,250.8677 L358.7363,260.8444 L359.5759,270.8211 L358.8856,280.7978 L359.091,290.7745 L358.9574,300.7512 L359.238,310.7279 L359.3188,320.7046 L359.7809,330.6813 L359.8947,340.658 L359.9057,350.6347 L359.3395,360.6114 L359.6181,370.5881 L359.9363,380.5648 L358.0384,390.5415 L359.9047,400.5182 L358.6047,410.4949 L359.7117,420.4716 L358.34,430.4483 L358.9087,440.425 L359.9888,450.4017 L358.935,460.3784 L359.1404,470.3551 L359.4515,480.3318 L359.555,490.3085 L358.9948,500.2852 L359.383,510.2619 L358.2368,520.2386 L359.3792,530.2153 L359.7309,540.1919 L359.5927,550.1686 L359.8174,560.1453 L358.3559,570.122 L358.1304,580.0987 L358.1715,590.0754 L358.9215,600.0521 L358.738,610.0288 L359.9085,620.0055 L358.7671,629.9822 L358.5426,639.9589 L359.3044,649.9356 L358.1109,659.9123 L358.3078,669.889 L359.8653,679.8657 L359.5809,689.8424 L359.9793,699.8191 L358.5709,709.7958 L359.4256,719.7725 L359.7872,729.7492 L358.3701,739.7259 L358.8722,749.7026 L359.168,759.6793 L359.869,769.656 L358.9944,779.6327 L359.6168,789.6094 L358.2616,799.5861 L358.097,809.5628 L359.6715,819.5395 L358.0441,829.5162 L359.6786,839.4929 L359.2755,849.4696 L359,859.4463 " fill="none" style="stroke: #A80036; stroke-width: 1.0; stroke-dasharray: 5.0,5.0;"/><path d="M438,141.124 L438.2802,141.124 L437.4476,151.1007 L438.2577,161.0774 L438.5329,171.0541 L437.0488,181.0308 L437.8964,191.0075 L437.4313,200.9842 L437.4887,210.9609 L437.9091,220.9376 L437.0782,230.9143 L438.7382,240.891 L437.1596,250.8677 L437.7363,260.8444 L438.5759,270.8211 L437.8856,280.7978 L438.091,290.7745 L437.9574,300.7512 L438.238,310.7279 L438.3188,320.7046 L438.7809,330.6813 L438.8947,340.658 L438.9057,350.6347 L438.3395,360.6114 L438.6181,370.5881 L438.9363,380.5648 L437.0384,390.5415 L438.9047,400.5182 L437.6047,410.4949 L438.7117,420.4716 L437.34,430.4483 L437.9087,440.425 L438.9888,450.4017 L437.935,460.3784 L438.1404,470.3551 L438.4515,480.3318 L438.555,490.3085 L437.9948,500.2852 L438.383,510.2619 L437.2368,520.2386 L438.3792,530.2153 L438.7309,540.1919 L438.5927,550.1686 L438.8174,560.1453 L437.3559,570.122 L437.1304,580.0987 L437.1715,590.0754 L437.9215,600.0521 L437.738,610.0288 L438.9085,620.0055 L437.7671,629.9822 L437.5426,639.9589 L438.3044,649.9356 L437.1109,659.9123 L437.3078,669.889 L438.8653,679.8657 L438.5809,689.8424 L438.9793,699.8191 L437.5709,709.7958 L438.4256,719.7725 L438.7872,729.7492 L437.3701,739.7259 L437.8722,749.7026 L438.168,759.6793 L438.869,769.656 L437.9944,779.6327 L438.6168,789.6094 L437.2616,799.5861 L437.097,809.5628 L438.6715,819.5395 L437.0441,829.5162 L438.6786,839.4929 L438.2755,849.4696 L438,859.4463 " fill="none" style="stroke: #A80036; stroke-width: 1.0; stroke-dasharray: 5.0,5.0;"/><path d="M489,141.124 L489.2802,141.124 L488.4476,151.1007 L489.2577,161.0774 L489.5329,171.0541 L488.0488,181.0308 L488.8964,191.0075 L488.4313,200.9842 L488.4887,210.9609 L488.9091,220.9376 L488.0782,230.9143 L489.7382,240.891 L488.1596,250.8677 L488.7363,260.8444 L489.5759,270.8211 L488.8856,280.7978 L489.091,290.7745 L488.9574,300.7512 L489.238,310.7279 L489.3188,320.7046 L489.7809,330.6813 L489.8947,340.658 L489.9057,350.6347 L489.3395,360.6114 L489.6181,370.5881 L489.9363,380.5648 L488.0384,390.5415 L489.9047,400.5182 L488.6047,410.4949 L489.7117,420.4716 L488.34,430.4483 L488.9087,440.425 L489.9888,450.4017 L488.935,460.3784 L489.1404,470.3551 L489.4515,480.3318 L489.555,490.3085 L488.9948,500.2852 L489.383,510.2619 L488.2368,520.2386 L489.3792,530.2153 L489.7309,540.1919 L489.5927,550.1686 L489.8174,560.1453 L488.3559,570.122 L488.1304,580.0987 L488.1715,590.0754 L488.9215,600.0521 L488.738,610.0288 L489.9085,620.0055 L488.7671,629.9822 L488.5426,639.9589 L489.3044,649.9356 L488.1109,659.9123 L488.3078,669.889 L489.8653,679.8657 L489.5809,689.8424 L489.9793,699.8191 L488.5709,709.7958 L489.4256,719.7725 L489.7872,729.7492 L488.3701,739.7259 L488.8722,749.7026 L489.168,759.6793 L489.869,769.656 L488.9944,779.6327 L489.6168,789.6094 L488.2616,799.5861 L488.097,809.5628 L489.6715,819.5395 L488.0441,829.5162 L489.6786,839.4929 L489.2755,849.4696 L489,859.4463 " fill="none" style="stroke: #A80036; stroke-width: 1.0; stroke-dasharray: 5.0,5.0;"/><text fill="#000000" font-family="sans-serif" font-size="14" lengthAdjust="spacingAndGlyphs" textLength="28" x="8" y="138.0479">場管</text><polygon fill="#FF0000" filter="url(#fxgfvhjt8b9br)" points="33.0442,66.1295,31.8715,67.7318,30.4845,70.0787,28.5008,71.6602,26.4163,72.5251,24.7542,72.6002,22.618,71.5185,20.6023,70.8119,19.0724,69.3772,18.2699,67.7347,17.7939,66.4269,17.3277,64.7186,16.5709,63.2487,17.1525,61.8134,17.662,60.2412,19.574,58.9978,20.9192,57.3844,22.5843,56.8486,24.5637,56.3873,27.1021,56.6614,28.4924,57.3171,30.1089,57.6143,32.0743,59.6279,32.7595,61.7537,33.0571,63.2042,32.72,65.5944" style="stroke: #A80036; stroke-width: 2.0;"/><path d="M25,72.1836 L25.1868,72.1836 L24.6317,77.5836 L25.1718,82.9836 L25.3553,88.3836 L24.3659,93.7836 L25,99.1836 M12,80.1836 L12,80.1145 L17.2,79.8045 L22.4,79.8427 L27.6,80.123 L32.8,79.569 L38,80.1836 M25,99.1836 L25.3719,99.5059 L21.9766,101.8167 L19.6672,105.0685 L17.4901,108.4351 L14.5424,111.1337 L12,114.1836 M25,99.1836 L25.0458,99.2233 L27.5785,102.165 L30.3199,105.2875 L32.9606,108.3228 L35.7934,111.5246 L38,114.1836 " fill="none" filter="url(#fxgfvhjt8b9br)" style="stroke: #A80036; stroke-width: 2.0;"/><text fill="#000000" font-family="sans-serif" font-size="14" lengthAdjust="spacingAndGlyphs" textLength="28" x="8" y="875.3105">場管</text><polygon fill="#FF0000" filter="url(#fxgfvhjt8b9br)" points="33.0442,890.3326,31.8715,891.9349,30.4845,894.2818,28.5008,895.8634,26.4163,896.7283,24.7542,896.8033,22.618,895.7217,20.6023,895.015,19.0724,893.5803,18.2699,891.9378,17.7939,890.63,17.3277,888.9218,16.5709,887.4518,17.1525,886.0165,17.662,884.4443,19.574,883.2009,20.9192,881.5875,22.5843,881.0518,24.5637,880.5904,27.1021,880.8645,28.4924,881.5202,30.1089,881.8174,32.0743,883.8311,32.7595,885.9569,33.0571,887.4073,32.72,889.7975" style="stroke: #A80036; stroke-width: 2.0;"/><path d="M25,896.3867 L25.1868,896.3867 L24.6317,901.7867 L25.1718,907.1867 L25.3553,912.5867 L24.3659,917.9867 L25,923.3867 M12,904.3867 L12,904.3176 L17.2,904.0076 L22.4,904.0458 L27.6,904.3261 L32.8,903.7722 L38,904.3867 M25,923.3867 L25.3719,923.709 L21.9766,926.0198 L19.6672,929.2716 L17.4901,932.6382 L14.5424,935.3368 L12,938.3867 M25,923.3867 L25.0458,923.4264 L27.5785,926.3681 L30.3199,929.4906 L32.9606,932.5259 L35.7934,935.7277 L38,938.3867 " fill="none" filter="url(#fxgfvhjt8b9br)" style="stroke: #A80036; stroke-width: 2.0;"/><text fill="#000000" font-family="sans-serif" font-size="14" lengthAdjust="spacingAndGlyphs" textLength="56" x="68" y="118.1074">虛機服務</text><text fill="#000000" font-family="sans-serif" font-size="14" lengthAdjust="spacingAndGlyphs" textLength="71" x="60.5" y="138.0479">VM Service</text><path d="M81,65.2432 L81,65.2432 L81.0651,65.3101 L82.6716,63.3611 L84.6599,61.8048 L86.5238,60.1205 L87.979,58.0158 L90,56.4932 L89.9952,56.459 L91.7739,56.0554 L93.5766,55.8243 L95.3958,55.7132 L97.1577,55.1888 L99,55.2432 L99,55.2432 L99.0339,55.4869 L100.7615,55.2157 L102.5879,55.6561 L104.4264,56.1833 L106.1948,56.2054 L108,56.4932 L108.0211,56.5149 L109.7901,58.233 L111.6553,60.0501 L113.4741,61.8194 L115.3815,63.6798 L117,65.2432 L117.5965,65.2432 L117.6038,70.4432 L117.2263,75.6432 L117.4121,80.8432 L117.6242,86.0432 L117,91.2432 L117,91.2432 L116.7766,91.0133 L115.4102,93.2094 L113.3081,94.6487 L111.7654,96.6633 L109.6466,98.0854 L108,99.9932 L107.9958,99.963 L106.2453,100.5696 L104.397,100.4717 L102.6064,100.7895 L100.8207,101.1422 L99,101.2432 L99,101.2432 L99.0254,101.4264 L97.1998,100.9914 L95.4176,100.8696 L93.565,100.2412 L91.8174,100.3684 L90,99.9932 L90.1698,100.1679 L88.3377,98.3848 L86.5899,96.6885 L84.4503,94.5892 L82.5979,92.7853 L81,91.2432 L80.4476,91.2432 L80.9477,86.0432 L80.8253,80.8432 L81.6057,75.6432 L80.8447,70.4432 L81,65.2432 " fill="#FEFECE" filter="url(#fxgfvhjt8b9br)" style="stroke: #000000; stroke-width: 1.5;"/><path d="M81,65.2432 L81,65.2432 L81.0651,65.3101 L82.6716,66.8611 L84.6599,68.8048 L86.5238,70.6205 L87.979,72.0158 L90,73.9932 L89.9952,73.959 L91.7739,74.0554 L93.5766,74.3243 L95.3958,74.7132 L97.1577,74.6888 L99,75.2432 L99,75.2432 L99.0339,75.4869 L100.7615,74.7157 L102.5879,74.6561 L104.4264,74.6833 L106.1948,74.2054 L108,73.9932 L108.0211,74.0149 L109.7901,72.233 L111.6553,70.5501 L113.4741,68.8194 L115.3815,67.1798 L117,65.2432 " fill="none" style="stroke: #000000; stroke-width: 1.5;"/><text fill="#000000" font-family="sans-serif" font-size="14" lengthAdjust="spacingAndGlyphs" textLength="56" x="68" y="875.3105">虛機服務</text><text fill="#000000" font-family="sans-serif" font-size="14" lengthAdjust="spacingAndGlyphs" textLength="71" x="60.5" y="895.251">VM Service</text><path d="M81,908.3271 L81,908.3271 L81.0651,908.3941 L82.6716,906.4451 L84.6599,904.8887 L86.5238,903.2045 L87.979,901.0998 L90,899.5771 L89.9952,899.5429 L91.7739,899.1394 L93.5766,898.9083 L95.3958,898.7971 L97.1577,898.2728 L99,898.3271 L99,898.3271 L99.0339,898.5709 L100.7615,898.2997 L102.5879,898.7401 L104.4264,899.2673 L106.1948,899.2894 L108,899.5771 L108.0211,899.5989 L109.7901,901.317 L111.6553,903.134 L113.4741,904.9034 L115.3815,906.7638 L117,908.3271 L117.5965,908.3271 L117.6038,913.5271 L117.2263,918.7271 L117.4121,923.9271 L117.6242,929.1271 L117,934.3271 L117,934.3271 L116.7766,934.0973 L115.4102,936.2934 L113.3081,937.7327 L111.7654,939.7473 L109.6466,941.1694 L108,943.0771 L107.9958,943.047 L106.2453,943.6536 L104.397,943.5557 L102.6064,943.8735 L100.8207,944.2262 L99,944.3271 L99,944.3271 L99.0254,944.5104 L97.1998,944.0754 L95.4176,943.9536 L93.565,943.3252 L91.8174,943.4523 L90,943.0771 L90.1698,943.2518 L88.3377,941.4688 L86.5899,939.7725 L84.4503,937.6732 L82.5979,935.8693 L81,934.3271 L80.4476,934.3271 L80.9477,929.1271 L80.8253,923.9271 L81.6057,918.7271 L80.8447,913.5271 L81,908.3271 " fill="#FEFECE" filter="url(#fxgfvhjt8b9br)" style="stroke: #000000; stroke-width: 1.5;"/><path d="M81,908.3271 L81,908.3271 L81.0651,908.3941 L82.6716,909.9451 L84.6599,911.8887 L86.5238,913.7045 L87.979,915.0998 L90,917.0771 L89.9952,917.0429 L91.7739,917.1394 L93.5766,917.4083 L95.3958,917.7971 L97.1577,917.7728 L99,918.3271 L99,918.3271 L99.0339,918.5709 L100.7615,917.7997 L102.5879,917.7401 L104.4264,917.7673 L106.1948,917.2894 L108,917.0771 L108.0211,917.0989 L109.7901,915.317 L111.6553,913.634 L113.4741,911.9034 L115.3815,910.2638 L117,908.3271 " fill="none" style="stroke: #000000; stroke-width: 1.5;"/><polygon fill="#FEFECE" filter="url(#fxgfvhjt8b9br)" points="161,82.2432,161,82.3132,169.4,82.1051,177.8,82.3076,186.2,82.3764,194.6,82.0054,203,82.2432,202.9223,82.2432,202.5735,93.0193,202.6165,103.7955,202.9318,114.5717,202.3086,125.3479,203,136.124,203,136.3086,194.6,135.9139,186.2,136.0581,177.8,136.268,169.4,136.0954,161,136.124,161.0682,136.124,160.9681,125.3479,161.1785,114.5717,161.2391,103.7955,161.5857,93.0193,161,82.2432" style="stroke: #A80036; stroke-width: 1.5;"/><text fill="#000000" font-family="sans-serif" font-size="14" lengthAdjust="spacingAndGlyphs" textLength="28" x="168" y="106.1074">虛機</text><text fill="#000000" font-family="sans-serif" font-size="14" lengthAdjust="spacingAndGlyphs" textLength="20" x="172" y="126.0479">VM</text><polygon fill="#FEFECE" filter="url(#fxgfvhjt8b9br)" points="161,858.4463,161,858.5163,169.4,858.3082,177.8,858.5107,186.2,858.5795,194.6,858.2085,203,858.4463,202.9223,858.4463,202.5735,869.2225,202.6165,879.9986,202.9318,890.7748,202.3086,901.551,203,912.3271,203,912.5117,194.6,912.1171,186.2,912.2612,177.8,912.4711,169.4,912.2986,161,912.3271,161.0682,912.3271,160.9681,901.551,161.1785,890.7748,161.2391,879.9986,161.5857,869.2225,161,858.4463" style="stroke: #A80036; stroke-width: 1.5;"/><text fill="#000000" font-family="sans-serif" font-size="14" lengthAdjust="spacingAndGlyphs" textLength="28" x="168" y="882.3105">虛機</text><text fill="#000000" font-family="sans-serif" font-size="14" lengthAdjust="spacingAndGlyphs" textLength="20" x="172" y="902.251">VM</text><text fill="#000000" font-family="sans-serif" font-size="14" lengthAdjust="spacingAndGlyphs" textLength="28" x="243.5" y="118.1074">場服</text><text fill="#000000" font-family="sans-serif" font-size="14" lengthAdjust="spacingAndGlyphs" textLength="81" x="217" y="138.0479">Code-Server</text><polygon fill="#FEFECE" filter="url(#fxgfvhjt8b9br)" points="272.5663,88.162,270.8073,90.5655,268.7268,94.0858,265.7512,96.4581,262.6244,97.7555,260.1313,97.8681,256.9269,96.2456,253.9035,95.1856,251.6086,93.0335,250.4048,90.5698,249.6909,88.6081,248.9915,86.0457,247.8564,83.8408,248.7287,81.6879,249.4929,79.3296,252.3611,77.4644,254.3789,75.0444,256.8764,74.2407,259.8456,73.5487,263.6532,73.9599,265.7386,74.9434,268.1633,75.3892,271.1115,78.4097,272.1392,81.5984,272.5857,83.7741,272.08,87.3594" style="stroke: #A80036; stroke-width: 2.0;"/><polygon fill="#A80036" points="256.5,73.2432,256.5449,73.297,257.6116,72.1371,258.9412,71.2927,260.1853,70.3455,261.1478,69.0605,262.5,68.2432,262.4759,68.2335,261.968,69.1904,261.5813,70.1957,261.2789,71.2347,260.686,72.1576,260.5,73.2432,260.6713,73.3117,260.7049,74.1651,261.2388,75.2187,261.8337,76.2966,262.0735,77.2325,262.5,78.2432,262.5146,78.2606,261.2932,77.235,260.1381,76.2889,258.951,75.3044,257.825,74.3931,256.5,73.2432" style="stroke: #A80036; stroke-width: 1.0;"/><text fill="#000000" font-family="sans-serif" font-size="14" lengthAdjust="spacingAndGlyphs" textLength="28" x="243.5" y="875.3105">場服</text><text fill="#000000" font-family="sans-serif" font-size="14" lengthAdjust="spacingAndGlyphs" textLength="81" x="217" y="895.251">Code-Server</text><polygon fill="#FEFECE" filter="url(#fxgfvhjt8b9br)" points="272.5663,917.246,270.8073,919.6495,268.7268,923.1697,265.7512,925.5421,262.6244,926.8394,260.1313,926.952,256.9269,925.3296,253.9035,924.2696,251.6086,922.1175,250.4048,919.6538,249.6909,917.6921,248.9915,915.1297,247.8564,912.9248,248.7287,910.7719,249.4929,908.4136,252.3611,906.5484,254.3789,904.1283,256.8764,903.3247,259.8456,902.6327,263.6532,903.0438,265.7386,904.0274,268.1633,904.4732,271.1115,907.4937,272.1392,910.6824,272.5857,912.8581,272.08,916.4434" style="stroke: #A80036; stroke-width: 2.0;"/><polygon fill="#A80036" points="256.5,902.3271,256.5449,902.381,257.6116,901.2211,258.9412,900.3766,260.1853,899.4295,261.1478,898.1445,262.5,897.3271,262.4759,897.3175,261.968,898.2743,261.5813,899.2797,261.2789,900.3187,260.686,901.2416,260.5,902.3271,260.6713,902.3957,260.7049,903.2491,261.2388,904.3027,261.8337,905.3806,262.0735,906.3165,262.5,907.3271,262.5146,907.3446,261.2932,906.319,260.1381,905.3729,258.951,904.3884,257.825,903.4771,256.5,902.3271" style="stroke: #A80036; stroke-width: 1.0;"/><polygon fill="#FEFECE" filter="url(#fxgfvhjt8b9br)" points="318,78.2432,318,78.4533,328.25,77.8288,338.5,78.4365,348.75,78.6428,359,77.5298,369.25,78.1655,379.5,77.8167,389.75,77.8597,400,78.2432,399.9318,78.2432,399.3086,89.0193,400.5536,99.7955,399.3697,110.5717,399.8022,121.3479,400,132.124,400,132.556,389.75,132.0382,379.5,132.1923,369.25,132.0921,359,132.3025,348.75,132.3632,338.5,132.7097,328.25,132.7951,318,132.124,318.6793,132.124,318.2546,121.3479,318.4636,110.5717,318.7022,99.7955,317.2788,89.0193,318,78.2432" style="stroke: #A80036; stroke-width: 1.5;"/><polygon fill="#FEFECE" filter="url(#fxgfvhjt8b9br)" points="314,82.2432,314,82.4533,324.25,81.8288,334.5,82.4365,344.75,82.6428,355,81.5298,365.25,82.1655,375.5,81.8167,385.75,81.8597,396,82.2432,395.9318,82.2432,395.3086,93.0193,396.5536,103.7955,395.3697,114.5717,395.8022,125.3479,396,136.124,396,136.556,385.75,136.0382,375.5,136.1923,365.25,136.0921,355,136.3025,344.75,136.3632,334.5,136.7097,324.25,136.7951,314,136.124,314.6793,136.124,314.2546,125.3479,314.4636,114.5717,314.7022,103.7955,313.2788,93.0193,314,82.2432" style="stroke: #A80036; stroke-width: 1.5;"/><text fill="#000000" font-family="sans-serif" font-size="14" lengthAdjust="spacingAndGlyphs" textLength="42" x="334" y="106.1074">區塊鏈</text><text fill="#000000" font-family="sans-serif" font-size="14" lengthAdjust="spacingAndGlyphs" textLength="68" x="321" y="126.0479">Blockchain</text><polygon fill="#FEFECE" filter="url(#fxgfvhjt8b9br)" points="318,858.4463,318,858.6565,328.25,858.032,338.5,858.6396,348.75,858.846,359,857.7329,369.25,858.3686,379.5,858.0198,389.75,858.0628,400,858.4463,399.9318,858.4463,399.3086,869.2225,400.5536,879.9986,399.3697,890.7748,399.8022,901.551,400,912.3271,400,912.7591,389.75,912.2414,379.5,912.3954,369.25,912.2952,359,912.5057,348.75,912.5663,338.5,912.9128,328.25,912.9982,318,912.3271,318.6793,912.3271,318.2546,901.551,318.4636,890.7748,318.7022,879.9986,317.2788,869.2225,318,858.4463" style="stroke: #A80036; stroke-width: 1.5;"/><polygon fill="#FEFECE" filter="url(#fxgfvhjt8b9br)" points="314,862.4463,314,862.6565,324.25,862.032,334.5,862.6396,344.75,862.846,355,861.7329,365.25,862.3686,375.5,862.0198,385.75,862.0628,396,862.4463,395.9318,862.4463,395.3086,873.2225,396.5536,883.9986,395.3697,894.7748,395.8022,905.551,396,916.3271,396,916.7591,385.75,916.2414,375.5,916.3954,365.25,916.2952,355,916.5057,344.75,916.5663,334.5,916.9128,324.25,916.9982,314,916.3271,314.6793,916.3271,314.2546,905.551,314.4636,894.7748,314.7022,883.9986,313.2788,873.2225,314,862.4463" style="stroke: #A80036; stroke-width: 1.5;"/><text fill="#000000" font-family="sans-serif" font-size="14" lengthAdjust="spacingAndGlyphs" textLength="42" x="334" y="886.3105">區塊鏈</text><text fill="#000000" font-family="sans-serif" font-size="14" lengthAdjust="spacingAndGlyphs" textLength="68" x="321" y="906.251">Blockchain</text><text fill="#000000" font-family="sans-serif" font-size="14" lengthAdjust="spacingAndGlyphs" textLength="42" x="414" y="138.0479">練習生</text><polygon fill="#ADFF2F" filter="url(#fxgfvhjt8b9br)" points="446.0442,66.1295,444.8715,67.7318,443.4845,70.0787,441.5008,71.6602,439.4163,72.5251,437.7542,72.6002,435.618,71.5185,433.6023,70.8119,432.0724,69.3772,431.2699,67.7347,430.7939,66.4269,430.3277,64.7186,429.5709,63.2487,430.1525,61.8134,430.662,60.2412,432.574,58.9978,433.9192,57.3844,435.5843,56.8486,437.5637,56.3873,440.1021,56.6614,441.4924,57.3171,443.1089,57.6143,445.0743,59.6279,445.7595,61.7537,446.0571,63.2042,445.72,65.5944" style="stroke: #A80036; stroke-width: 2.0;"/><path d="M438,72.1836 L438.1868,72.1836 L437.6317,77.5836 L438.1718,82.9836 L438.3553,88.3836 L437.3659,93.7836 L438,99.1836 M425,80.1836 L425,80.1145 L430.2,79.8045 L435.4,79.8427 L440.6,80.123 L445.8,79.569 L451,80.1836 M438,99.1836 L438.3719,99.5059 L434.9766,101.8167 L432.6672,105.0685 L430.4901,108.4351 L427.5424,111.1337 L425,114.1836 M438,99.1836 L438.0458,99.2233 L440.5785,102.165 L443.3199,105.2875 L445.9606,108.3228 L448.7934,111.5246 L451,114.1836 " fill="none" filter="url(#fxgfvhjt8b9br)" style="stroke: #A80036; stroke-width: 2.0;"/><text fill="#000000" font-family="sans-serif" font-size="14" lengthAdjust="spacingAndGlyphs" textLength="42" x="414" y="875.3105">練習生</text><polygon fill="#ADFF2F" filter="url(#fxgfvhjt8b9br)" points="446.0442,890.3326,444.8715,891.9349,443.4845,894.2818,441.5008,895.8634,439.4163,896.7283,437.7542,896.8033,435.618,895.7217,433.6023,895.015,432.0724,893.5803,431.2699,891.9378,430.7939,890.63,430.3277,888.9218,429.5709,887.4518,430.1525,886.0165,430.662,884.4443,432.574,883.2009,433.9192,881.5875,435.5843,881.0518,437.5637,880.5904,440.1021,880.8645,441.4924,881.5202,443.1089,881.8174,445.0743,883.8311,445.7595,885.9569,446.0571,887.4073,445.72,889.7975" style="stroke: #A80036; stroke-width: 2.0;"/><path d="M438,896.3867 L438.1868,896.3867 L437.6317,901.7867 L438.1718,907.1867 L438.3553,912.5867 L437.3659,917.9867 L438,923.3867 M425,904.3867 L425,904.3176 L430.2,904.0076 L435.4,904.0458 L440.6,904.3261 L445.8,903.7722 L451,904.3867 M438,923.3867 L438.3719,923.709 L434.9766,926.0198 L432.6672,929.2716 L430.4901,932.6382 L427.5424,935.3368 L425,938.3867 M438,923.3867 L438.0458,923.4264 L440.5785,926.3681 L443.3199,929.4906 L445.9606,932.5259 L448.7934,935.7277 L451,938.3867 " fill="none" filter="url(#fxgfvhjt8b9br)" style="stroke: #A80036; stroke-width: 2.0;"/><text fill="#000000" font-family="sans-serif" font-size="14" lengthAdjust="spacingAndGlyphs" textLength="28" x="472" y="138.0479">教練</text><polygon fill="#0000FF" filter="url(#fxgfvhjt8b9br)" points="497.0442,66.1295,495.8715,67.7318,494.4845,70.0787,492.5008,71.6602,490.4163,72.5251,488.7542,72.6002,486.618,71.5185,484.6023,70.8119,483.0724,69.3772,482.2699,67.7347,481.7939,66.4269,481.3277,64.7186,480.5709,63.2487,481.1525,61.8134,481.662,60.2412,483.574,58.9978,484.9192,57.3844,486.5843,56.8486,488.5637,56.3873,491.1021,56.6614,492.4924,57.3171,494.1089,57.6143,496.0743,59.6279,496.7595,61.7537,497.0571,63.2042,496.72,65.5944" style="stroke: #A80036; stroke-width: 2.0;"/><path d="M489,72.1836 L489.1868,72.1836 L488.6317,77.5836 L489.1718,82.9836 L489.3553,88.3836 L488.3659,93.7836 L489,99.1836 M476,80.1836 L476,80.1145 L481.2,79.8045 L486.4,79.8427 L491.6,80.123 L496.8,79.569 L502,80.1836 M489,99.1836 L489.3719,99.5059 L485.9766,101.8167 L483.6672,105.0685 L481.4901,108.4351 L478.5424,111.1337 L476,114.1836 M489,99.1836 L489.0458,99.2233 L491.5785,102.165 L494.3199,105.2875 L496.9606,108.3228 L499.7934,111.5246 L502,114.1836 " fill="none" filter="url(#fxgfvhjt8b9br)" style="stroke: #A80036; stroke-width: 2.0;"/><text fill="#000000" font-family="sans-serif" font-size="14" lengthAdjust="spacingAndGlyphs" textLength="28" x="472" y="875.3105">教練</text><polygon fill="#0000FF" filter="url(#fxgfvhjt8b9br)" points="497.0442,890.3326,495.8715,891.9349,494.4845,894.2818,492.5008,895.8634,490.4163,896.7283,488.7542,896.8033,486.618,895.7217,484.6023,895.015,483.0724,893.5803,482.2699,891.9378,481.7939,890.63,481.3277,888.9218,480.5709,887.4518,481.1525,886.0165,481.662,884.4443,483.574,883.2009,484.9192,881.5875,486.5843,881.0518,488.5637,880.5904,491.1021,880.8645,492.4924,881.5202,494.1089,881.8174,496.0743,883.8311,496.7595,885.9569,497.0571,887.4073,496.72,889.7975" style="stroke: #A80036; stroke-width: 2.0;"/><path d="M489,896.3867 L489.1868,896.3867 L488.6317,901.7867 L489.1718,907.1867 L489.3553,912.5867 L488.3659,917.9867 L489,923.3867 M476,904.3867 L476,904.3176 L481.2,904.0076 L486.4,904.0458 L491.6,904.3261 L496.8,903.7722 L502,904.3867 M489,923.3867 L489.3719,923.709 L485.9766,926.0198 L483.6672,929.2716 L481.4901,932.6382 L478.5424,935.3368 L476,938.3867 M489,923.3867 L489.0458,923.4264 L491.5785,926.3681 L494.3199,929.4906 L496.9606,932.5259 L499.7934,935.7277 L502,938.3867 " fill="none" filter="url(#fxgfvhjt8b9br)" style="stroke: #A80036; stroke-width: 2.0;"/><path d="M3,173.3821 L3,173.6623 L12.9608,172.8297 L22.9216,173.6398 L32.8824,173.915 L42.8431,172.4309 L52.8039,173.2785 L62.7647,172.8134 L72.7255,172.8707 L82.6863,173.2912 L92.6471,172.4603 L102.6078,174.1203 L112.5686,172.5417 L122.5294,173.1184 L132.4902,173.958 L142.451,173.2677 L152.4118,173.4731 L162.3725,173.3395 L172.3333,173.6201 L182.2941,173.7009 L192.2549,174.163 L202.2157,174.2768 L212.1765,174.2878 L222.1373,173.7216 L232.098,174.0002 L242.0588,174.3184 L252.0196,172.4205 L261.9804,174.2868 L271.9412,172.9867 L281.902,174.0938 L291.8627,172.722 L301.8235,173.2907 L311.7843,174.3709 L321.7451,173.3171 L331.7059,173.5225 L341.6667,173.8336 L351.6275,173.9371 L361.5882,173.3769 L371.549,173.765 L381.5098,172.6189 L391.4706,173.7613 L401.4314,174.113 L411.3922,173.9748 L421.3529,174.1994 L431.3137,172.738 L441.2745,172.5125 L451.2353,172.5535 L461.1961,173.3036 L471.1569,173.12 L481.1176,174.2906 L491.0784,173.1492 L501.0392,172.9247 L511,173.3821 " fill="#EEEEEE" style="stroke: #000000; stroke-width: 1.0;"/><path d="M3,176.3821 L3,176.6623 L12.9608,175.8297 L22.9216,176.6398 L32.8824,176.915 L42.8431,175.4309 L52.8039,176.2785 L62.7647,175.8134 L72.7255,175.8707 L82.6863,176.2912 L92.6471,175.4603 L102.6078,177.1203 L112.5686,175.5417 L122.5294,176.1184 L132.4902,176.958 L142.451,176.2677 L152.4118,176.4731 L162.3725,176.3395 L172.3333,176.6201 L182.2941,176.7009 L192.2549,177.163 L202.2157,177.2768 L212.1765,177.2878 L222.1373,176.7216 L232.098,177.0002 L242.0588,177.3184 L252.0196,175.4205 L261.9804,177.2868 L271.9412,175.9867 L281.902,177.0938 L291.8627,175.722 L301.8235,176.2907 L311.7843,177.3709 L321.7451,176.3171 L331.7059,176.5225 L341.6667,176.8336 L351.6275,176.9371 L361.5882,176.3769 L371.549,176.765 L381.5098,175.6189 L391.4706,176.7613 L401.4314,177.113 L411.3922,176.9748 L421.3529,177.1994 L431.3137,175.738 L441.2745,175.5125 L451.2353,175.5535 L461.1961,176.3036 L471.1569,176.12 L481.1176,177.2906 L491.0784,176.1492 L501.0392,175.9247 L511,176.3821 " fill="#EEEEEE" style="stroke: #000000; stroke-width: 1.0;"/><polygon fill="#EEEEEE" filter="url(#fxgfvhjt8b9br)" points="234,161.124,234,161.3342,243.2,160.7097,252.4,161.3173,261.6,161.5237,270.8,160.4106,280,161.124,279.9741,161.124,279.8578,166.4272,279.8722,171.7305,279.9773,177.0337,279.7695,182.3369,280,187.6401,280,188.1938,270.8,187.0099,261.6,187.4424,252.4,188.0721,243.2,187.5544,234,187.6401,234.0227,187.6401,233.9894,182.3369,234.0595,177.0337,234.0797,171.7305,234.1952,166.4272,234,161.124" style="stroke: #000000; stroke-width: 2.0;"/><text fill="#000000" font-family="sans-serif" font-size="13" font-weight="bold" lengthAdjust="spacingAndGlyphs" textLength="28" x="240" y="180.7837">備場</text><polygon fill="#A80036" points="87,218.1563,87.026,218.2213,88.9487,218.828,91.0239,219.8161,93.0495,220.6799,94.9117,221.1355,97,222.1563,96.9904,222.1322,94.9472,222.8243,92.9525,223.6376,90.9916,224.5352,88.9144,225.1423,87,226.1563,87.1305,226.2867,87.6514,225.2077,88.5534,224.5096,89.5018,223.8581,90.1798,222.936,91,222.1563,91.0161,222.1723,90.1925,221.3487,89.4421,220.5983,88.6564,219.8126,87.938,219.0943,87,218.1563" style="stroke: #A80036; stroke-width: 1.0;"/><path d="M25,222.1563 L25,222.4365 L34.7143,221.6038 L44.4286,222.414 L54.1429,222.6892 L63.8571,221.2051 L73.5714,222.0526 L83.2857,221.5876 L93,222.1563 " fill="none" style="stroke: #A80036; stroke-width: 1.0;"/><text fill="#000000" font-family="sans-serif" font-size="13" font-weight="bold" lengthAdjust="spacingAndGlyphs" textLength="7" x="32" y="217.2998">1</text><text fill="#000000" font-family="sans-serif" font-size="13" lengthAdjust="spacingAndGlyphs" textLength="39" x="43" y="217.2998">開虛機</text><polygon fill="#A80036" points="172,274.1885,172.026,274.2535,173.9487,274.8602,176.0239,275.8483,178.0495,276.7122,179.9117,277.1677,182,278.1885,181.9904,278.1644,179.9472,278.8565,177.9525,279.6698,175.9916,280.5674,173.9144,281.1745,172,282.1885,172.1305,282.319,172.6514,281.2399,173.5534,280.5419,174.5018,279.8903,175.1798,278.9683,176,278.1885,176.0161,278.2046,175.1925,277.3809,174.4421,276.6306,173.6564,275.8448,172.938,275.1265,172,274.1885" style="stroke: #A80036; stroke-width: 1.0;"/><path d="M25,278.1885 L25,278.4687 L35.2,277.636 L45.4,278.4462 L55.6,278.7214 L65.8,277.2373 L76,278.0849 L86.2,277.6198 L96.4,277.6771 L106.6,278.0976 L116.8,277.2667 L127,278.9267 L137.2,277.3481 L147.4,277.9248 L157.6,278.7644 L167.8,278.0741 L178,278.1885 " fill="none" style="stroke: #A80036; stroke-width: 1.0;"/><text fill="#000000" font-family="sans-serif" font-size="13" font-weight="bold" lengthAdjust="spacingAndGlyphs" textLength="7" x="32" y="273.332">2</text><text fill="#000000" font-family="sans-serif" font-size="13" lengthAdjust="spacingAndGlyphs" textLength="86" x="43" y="273.332">建場 taichu init</text><path d="M189,235.1563 L189.5605,235.1563 L187.8951,244.442 L189.5154,253.7277 L190.0658,263.0134 L187.0976,272.2991 L188.7928,281.5848 L187.8627,290.8705 L189,300.1563 L189,299.1336 L198.9167,299.9745 L208.8333,298.3126 L218.75,301.6326 L228.6667,298.4755 L238.5833,299.6289 L248.5,301.3081 L258.4167,299.9275 L268.3333,300.3382 L278.25,300.0711 L288.1667,300.6323 L298.0833,300.7939 L308,300.1563 L309.5618,300.1563 L309.7895,290.9896 L309.8114,281.8229 L308.679,272.6563 L309.2362,263.4896 L309.8726,254.3229 L308,245.1563 L307.5467,244.703 L306.4265,243.5827 L303.8136,240.9699 L302.3355,239.4918 L299.6889,236.8451 L298,235.1563 L298,234.9736 L288.0909,237.1339 L278.1818,235.0263 L268.2727,235.4371 L258.3636,236.0593 L248.4545,236.2662 L238.5455,235.1458 L228.6364,235.9222 L218.7273,233.6298 L208.8182,235.9146 L198.9091,236.6181 L189,235.1563 " fill="#FBFB77" filter="url(#fxgfvhjt8b9br)" style="stroke: #A80036; stroke-width: 1.0;"/><path d="M298,235.1563 L298.3951,235.1563 L298.5449,237.1563 L297.5706,239.1563 L297.4203,241.1563 L297.4476,243.1563 L298,245.1563 L298,245.1039 L300,244.9816 L302,245.7619 L304,245.001 L306,244.8513 L308,245.1563 L308.1435,245.2997 L305.5809,242.7371 L303.6737,240.83 L302.4079,239.5641 L300.2738,237.4301 L298,235.1563 " fill="#FBFB77" style="stroke: #A80036; stroke-width: 1.0;"/><text fill="#000000" font-family="sans-serif" font-size="13" lengthAdjust="spacingAndGlyphs" textLength="65" x="195" y="255.8159">建場管帳號</text><text fill="#000000" font-family="sans-serif" font-size="13" lengthAdjust="spacingAndGlyphs" textLength="52" x="195" y="274.332">安裝軟體</text><text fill="#000000" font-family="sans-serif" font-size="13" lengthAdjust="spacingAndGlyphs" textLength="98" x="195" y="292.8481">啟動 Gitops 服務</text><polygon fill="#A80036" points="172,344.4788,172.026,344.5438,173.9487,345.1505,176.0239,346.1386,178.0495,347.0025,179.9117,347.458,182,348.4788,181.9904,348.4547,179.9472,349.1468,177.9525,349.9601,175.9916,350.8577,173.9144,351.4648,172,352.4788,172.1305,352.6093,172.6514,351.5302,173.5534,350.8321,174.5018,350.1806,175.1798,349.2585,176,348.4788,176.0161,348.4948,175.1925,347.6712,174.4421,346.9208,173.6564,346.1351,172.938,345.4168,172,344.4788" style="stroke: #A80036; stroke-width: 1.0;"/><path d="M25,348.4788 L25,348.759 L35.2,347.9263 L45.4,348.7365 L55.6,349.0117 L65.8,347.5276 L76,348.3751 L86.2,347.9101 L96.4,347.9674 L106.6,348.3879 L116.8,347.5569 L127,349.2169 L137.2,347.6384 L147.4,348.2151 L157.6,349.0547 L167.8,348.3644 L178,348.4788 " fill="none" style="stroke: #A80036; stroke-width: 1.0;"/><text fill="#000000" font-family="sans-serif" font-size="13" font-weight="bold" lengthAdjust="spacingAndGlyphs" textLength="7" x="32" y="343.6223">3</text><text fill="#000000" font-family="sans-serif" font-size="13" lengthAdjust="spacingAndGlyphs" textLength="124" x="43" y="343.6223">建立場用 Gitops 專案</text><path d="M189,314.7046 L189.5605,314.7046 L187.8951,324.1046 L189.5154,333.5046 L190.0658,342.9046 L187.0976,352.3046 L189,361.7046 L189,361.4974 L199.4286,360.5673 L209.8571,360.6819 L220.2857,361.5228 L230.7143,359.8609 L241.1429,363.181 L251.5714,360.0238 L262,361.7046 L261.8242,361.7046 L262.384,354.3046 L261.9238,346.9046 L262.0607,339.5046 L261.9716,332.1046 L262,324.7046 L262.1122,324.8168 L260.1503,322.8549 L258.3681,321.0727 L256.4218,319.1264 L254.4269,317.1315 L252,314.7046 L252,315.3836 L241.5,315.9408 L231,316.5772 L220.5,312.7814 L210,316.514 L199.5,313.9139 L189,314.7046 " fill="#FBFB77" filter="url(#fxgfvhjt8b9br)" style="stroke: #A80036; stroke-width: 1.0;"/><path d="M252,314.7046 L252.4745,314.7046 L251.56,316.7046 L251.9391,318.7046 L252.6592,320.7046 L251.9567,322.7046 L252,324.7046 L252,324.7982 L254,325.0056 L256,325.0746 L258,324.7011 L260,324.9599 L262,324.7046 L261.6402,324.3448 L260.1787,322.8833 L258.3446,321.0492 L256.2794,318.984 L254.3853,317.0899 L252,314.7046 " fill="#FBFB77" style="stroke: #A80036; stroke-width: 1.0;"/><text fill="#000000" font-family="sans-serif" font-size="13" lengthAdjust="spacingAndGlyphs" textLength="52" x="195" y="335.3643">建使用者</text><text fill="#000000" font-family="sans-serif" font-size="13" lengthAdjust="spacingAndGlyphs" textLength="52" x="195" y="353.8804">建立專案</text><polygon fill="#A80036" points="248.5,391.2529,248.526,391.318,250.4487,391.9247,252.5239,392.9128,254.5495,393.7766,256.4117,394.2321,258.5,395.2529,258.4904,395.2289,256.4472,395.9209,254.4525,396.7342,252.4916,397.6318,250.4144,398.239,248.5,399.2529,248.6305,399.3834,249.1514,398.3044,250.0534,397.6063,251.0018,396.9547,251.6798,396.0327,252.5,395.2529,252.5161,395.269,251.6925,394.4454,250.9421,393.695,250.1564,392.9093,249.438,392.191,248.5,391.2529" style="stroke: #A80036; stroke-width: 1.0;"/><path d="M25,395.2529 L25,395.5332 L34.9783,394.7005 L44.9565,395.5106 L54.9348,395.7858 L64.913,394.3017 L74.8913,395.1493 L84.8696,394.6843 L94.8478,394.7416 L104.8261,395.1621 L114.8043,394.3311 L124.7826,395.9911 L134.7609,394.4126 L144.7391,394.9892 L154.7174,395.8289 L164.6957,395.1386 L174.6739,395.3439 L184.6522,395.2103 L194.6304,395.491 L204.6087,395.5718 L214.587,396.0338 L224.5652,396.1477 L234.5435,396.1586 L244.5217,395.5924 L254.5,395.2529 " fill="none" style="stroke: #A80036; stroke-width: 1.0;"/><text fill="#000000" font-family="sans-serif" font-size="13" font-weight="bold" lengthAdjust="spacingAndGlyphs" textLength="7" x="32" y="390.3965">4</text><text fill="#000000" font-family="sans-serif" font-size="13" lengthAdjust="spacingAndGlyphs" textLength="96" x="43" y="390.3965">start code-server</text><path d="M3,425.511 L3,425.7912 L12.9608,424.9586 L22.9216,425.7687 L32.8824,426.0439 L42.8431,424.5598 L52.8039,425.4074 L62.7647,424.9423 L72.7255,424.9997 L82.6863,425.4201 L92.6471,424.5892 L102.6078,426.2492 L112.5686,424.6706 L122.5294,425.2473 L132.4902,426.0869 L142.451,425.3966 L152.4118,425.602 L162.3725,425.4684 L172.3333,425.749 L182.2941,425.8298 L192.2549,426.2919 L202.2157,426.4057 L212.1765,426.4167 L222.1373,425.8505 L232.098,426.1291 L242.0588,426.4473 L252.0196,424.5494 L261.9804,426.4157 L271.9412,425.1156 L281.902,426.2227 L291.8627,424.851 L301.8235,425.4197 L311.7843,426.4998 L321.7451,425.446 L331.7059,425.6514 L341.6667,425.9625 L351.6275,426.066 L361.5882,425.5058 L371.549,425.8939 L381.5098,424.7478 L391.4706,425.8902 L401.4314,426.2419 L411.3922,426.1037 L421.3529,426.3284 L431.3137,424.8669 L441.2745,424.6414 L451.2353,424.6825 L461.1961,425.4325 L471.1569,425.2489 L481.1176,426.4195 L491.0784,425.2781 L501.0392,425.0536 L511,425.511 " fill="#EEEEEE" style="stroke: #000000; stroke-width: 1.0;"/><path d="M3,428.511 L3,428.7912 L12.9608,427.9586 L22.9216,428.7687 L32.8824,429.0439 L42.8431,427.5598 L52.8039,428.4074 L62.7647,427.9423 L72.7255,427.9997 L82.6863,428.4201 L92.6471,427.5892 L102.6078,429.2492 L112.5686,427.6706 L122.5294,428.2473 L132.4902,429.0869 L142.451,428.3966 L152.4118,428.602 L162.3725,428.4684 L172.3333,428.749 L182.2941,428.8298 L192.2549,429.2919 L202.2157,429.4057 L212.1765,429.4167 L222.1373,428.8505 L232.098,429.1291 L242.0588,429.4473 L252.0196,427.5494 L261.9804,429.4157 L271.9412,428.1156 L281.902,429.2227 L291.8627,427.851 L301.8235,428.4197 L311.7843,429.4998 L321.7451,428.446 L331.7059,428.6514 L341.6667,428.9625 L351.6275,429.066 L361.5882,428.5058 L371.549,428.8939 L381.5098,427.7478 L391.4706,428.8902 L401.4314,429.2419 L411.3922,429.1037 L421.3529,429.3284 L431.3137,427.8669 L441.2745,427.6414 L451.2353,427.6825 L461.1961,428.4325 L471.1569,428.2489 L481.1176,429.4195 L491.0784,428.2781 L501.0392,428.0536 L511,428.511 " fill="#EEEEEE" style="stroke: #000000; stroke-width: 1.0;"/><polygon fill="#EEEEEE" filter="url(#fxgfvhjt8b9br)" points="234,413.2529,234,413.4631,243.2,412.8386,252.4,413.4462,261.6,413.6526,270.8,412.5395,280,413.2529,279.9741,413.2529,279.8578,418.5562,279.8722,423.8594,279.9773,429.1626,279.7695,434.4658,280,439.769,280,440.3227,270.8,439.1388,261.6,439.5713,252.4,440.201,243.2,439.6833,234,439.769,234.0227,439.769,233.9894,434.4658,234.0595,429.1626,234.0797,423.8594,234.1952,418.5562,234,413.2529" style="stroke: #000000; stroke-width: 2.0;"/><text fill="#000000" font-family="sans-serif" font-size="13" font-weight="bold" lengthAdjust="spacingAndGlyphs" textLength="28" x="240" y="432.9126">公告</text><polygon fill="#A80036" points="426,470.2852,426.026,470.3502,427.9487,470.9569,430.0239,471.945,432.0495,472.8089,433.9117,473.2644,436,474.2852,435.9904,474.2611,433.9472,474.9532,431.9525,475.7665,429.9916,476.6641,427.9144,477.2712,426,478.2852,426.1305,478.4157,426.6514,477.3366,427.5534,476.6385,428.5018,475.987,429.1798,475.0649,430,474.2852,430.0161,474.3012,429.1925,473.4776,428.4421,472.7272,427.6564,471.9415,426.938,471.2232,426,470.2852" style="stroke: #A80036; stroke-width: 1.0;"/><path d="M25,474.2852 L25,474.5654 L34.9268,473.7327 L44.8537,474.5429 L54.7805,474.8181 L64.7073,473.334 L74.6341,474.1815 L84.561,473.7165 L94.4878,473.7738 L104.4146,474.1943 L114.3415,473.3633 L124.2683,475.0233 L134.1951,473.4448 L144.122,474.0215 L154.0488,474.8611 L163.9756,474.1708 L173.9024,474.3761 L183.8293,474.2426 L193.7561,474.5232 L203.6829,474.604 L213.6098,475.0661 L223.5366,475.1799 L233.4634,475.1908 L243.3902,474.6247 L253.3171,474.9033 L263.2439,475.2215 L273.1707,473.3236 L283.0976,475.1898 L293.0244,473.8898 L302.9512,474.9969 L312.878,473.6251 L322.8049,474.1938 L332.7317,475.274 L342.6585,474.2202 L352.5854,474.4256 L362.5122,474.7367 L372.439,474.8401 L382.3659,474.2799 L392.2927,474.6681 L402.2195,473.5219 L412.1463,474.6643 L422.0732,475.0161 L432,474.2852 " fill="none" style="stroke: #A80036; stroke-width: 1.0;"/><text fill="#000000" font-family="sans-serif" font-size="13" font-weight="bold" lengthAdjust="spacingAndGlyphs" textLength="7" x="32" y="469.4287">5</text><text fill="#000000" font-family="sans-serif" font-size="13" lengthAdjust="spacingAndGlyphs" textLength="150" x="43" y="469.4287">發送 CS url and password</text><polygon fill="#A80036" points="477,502.8013,477.026,502.8663,478.9487,503.473,481.0239,504.4611,483.0495,505.325,484.9117,505.7805,487,506.8013,486.9904,506.7772,484.9472,507.4693,482.9525,508.2826,480.9916,509.1802,478.9144,509.7873,477,510.8013,477.1305,510.9318,477.6514,509.8527,478.5534,509.1547,479.5018,508.5031,480.1798,507.5811,481,506.8013,481.0161,506.8174,480.1925,505.9937,479.4421,505.2433,478.6564,504.4576,477.938,503.7393,477,502.8013" style="stroke: #A80036; stroke-width: 1.0;"/><path d="M25,506.8013 L25,507.0815 L34.9565,506.2488 L44.913,507.059 L54.8696,507.3342 L64.8261,505.8501 L74.7826,506.6977 L84.7391,506.2326 L94.6957,506.2899 L104.6522,506.7104 L114.6087,505.8794 L124.5652,507.5395 L134.5217,505.9609 L144.4783,506.5376 L154.4348,507.3772 L164.3913,506.6869 L174.3478,506.8923 L184.3043,506.7587 L194.2609,507.0393 L204.2174,507.1201 L214.1739,507.5822 L224.1304,507.696 L234.087,507.7069 L244.0435,507.1408 L254,507.4194 L263.9565,507.7376 L273.913,505.8397 L283.8696,507.706 L293.8261,506.4059 L303.7826,507.513 L313.7391,506.1412 L323.6957,506.7099 L333.6522,507.7901 L343.6087,506.7363 L353.5652,506.9417 L363.5217,507.2528 L373.4783,507.3562 L383.4348,506.7961 L393.3913,507.1842 L403.3478,506.038 L413.3043,507.1805 L423.2609,507.5322 L433.2174,507.394 L443.1739,507.6186 L453.1304,506.1572 L463.087,505.9317 L473.0435,505.9727 L483,506.8013 " fill="none" style="stroke: #A80036; stroke-width: 1.0;"/><text fill="#000000" font-family="sans-serif" font-size="13" font-weight="bold" lengthAdjust="spacingAndGlyphs" textLength="7" x="32" y="501.9448">6</text><text fill="#000000" font-family="sans-serif" font-size="13" lengthAdjust="spacingAndGlyphs" textLength="150" x="43" y="501.9448">發送 CS url and password</text><polygon fill="#A80036" points="271.5,535.3174,271.526,535.3824,269.4487,535.9892,267.5239,536.9772,265.5495,537.8411,263.4117,538.2966,261.5,539.3174,261.4904,539.2933,263.4472,539.9854,265.4525,540.7987,267.4916,541.6963,269.4144,542.3034,271.5,543.3174,271.6305,543.4479,270.5514,542.3688,269.8534,541.6708,269.2018,541.0192,268.2798,540.0972,267.5,539.3174,267.5161,539.3335,268.2925,538.5099,269.1421,537.7595,269.9564,536.9737,270.838,536.2554,271.5,535.3174" style="stroke: #A80036; stroke-width: 1.0;"/><path d="M265.5,539.3174 L265.5,539.5976 L275.5882,538.765 L285.6765,539.5751 L295.7647,539.8503 L305.8529,538.3662 L315.9412,539.2138 L326.0294,538.7487 L336.1176,538.8061 L346.2059,539.2265 L356.2941,538.3956 L366.3824,540.0556 L376.4706,538.477 L386.5588,539.0537 L396.6471,539.8933 L406.7353,539.203 L416.8235,539.4084 L426.9118,539.2748 L437,539.3174 " fill="none" style="stroke: #A80036; stroke-width: 1.0;"/><text fill="#000000" font-family="sans-serif" font-size="13" font-weight="bold" lengthAdjust="spacingAndGlyphs" textLength="7" x="277.5" y="534.4609">7</text><text fill="#000000" font-family="sans-serif" font-size="13" lengthAdjust="spacingAndGlyphs" textLength="117" x="288.5" y="534.4609">登入 CS 設定 gitops</text><polygon fill="#A80036" points="271.5,567.8335,271.526,567.8985,269.4487,568.5053,267.5239,569.4933,265.5495,570.3572,263.4117,570.8127,261.5,571.8335,261.4904,571.8094,263.4472,572.5015,265.4525,573.3148,267.4916,574.2124,269.4144,574.8195,271.5,575.8335,271.6305,575.964,270.5514,574.8849,269.8534,574.1869,269.2018,573.5353,268.2798,572.6133,267.5,571.8335,267.5161,571.8496,268.2925,571.026,269.1421,570.2756,269.9564,569.4899,270.838,568.7715,271.5,567.8335" style="stroke: #A80036; stroke-width: 1.0;"/><path d="M265.5,571.8335 L265.5,572.1137 L275.6136,571.2811 L285.7273,572.0912 L295.8409,572.3664 L305.9545,570.8823 L316.0682,571.7299 L326.1818,571.2648 L336.2955,571.3222 L346.4091,571.7426 L356.5227,570.9117 L366.6364,572.5717 L376.75,570.9931 L386.8636,571.5698 L396.9773,572.4094 L407.0909,571.7191 L417.2045,571.9245 L427.3182,571.7909 L437.4318,572.0715 L447.5455,572.1523 L457.6591,572.6144 L467.7727,572.7282 L477.8864,572.7392 L488,571.8335 " fill="none" style="stroke: #A80036; stroke-width: 1.0;"/><text fill="#000000" font-family="sans-serif" font-size="13" font-weight="bold" lengthAdjust="spacingAndGlyphs" textLength="7" x="277.5" y="566.9771">8</text><text fill="#000000" font-family="sans-serif" font-size="13" lengthAdjust="spacingAndGlyphs" textLength="48" x="288.5" y="566.9771">登入 CS</text><path d="M3,602.0916 L3,602.3718 L12.9608,601.5391 L22.9216,602.3493 L32.8824,602.6245 L42.8431,601.1404 L52.8039,601.9879 L62.7647,601.5229 L72.7255,601.5802 L82.6863,602.0007 L92.6471,601.1697 L102.6078,602.8297 L112.5686,601.2512 L122.5294,601.8279 L132.4902,602.6675 L142.451,601.9772 L152.4118,602.1825 L162.3725,602.049 L172.3333,602.3296 L182.2941,602.4104 L192.2549,602.8725 L202.2157,602.9863 L212.1765,602.9972 L222.1373,602.4311 L232.098,602.7097 L242.0588,603.0279 L252.0196,601.13 L261.9804,602.9962 L271.9412,601.6962 L281.902,602.8033 L291.8627,601.4315 L301.8235,602.0002 L311.7843,603.0804 L321.7451,602.0266 L331.7059,602.232 L341.6667,602.5431 L351.6275,602.6465 L361.5882,602.0863 L371.549,602.4745 L381.5098,601.3283 L391.4706,602.4707 L401.4314,602.8225 L411.3922,602.6843 L421.3529,602.9089 L431.3137,601.4474 L441.2745,601.222 L451.2353,601.263 L461.1961,602.013 L471.1569,601.8295 L481.1176,603.0001 L491.0784,601.8586 L501.0392,601.6341 L511,602.0916 " fill="#EEEEEE" style="stroke: #000000; stroke-width: 1.0;"/><path d="M3,605.0916 L3,605.3718 L12.9608,604.5391 L22.9216,605.3493 L32.8824,605.6245 L42.8431,604.1404 L52.8039,604.9879 L62.7647,604.5229 L72.7255,604.5802 L82.6863,605.0007 L92.6471,604.1697 L102.6078,605.8297 L112.5686,604.2512 L122.5294,604.8279 L132.4902,605.6675 L142.451,604.9772 L152.4118,605.1825 L162.3725,605.049 L172.3333,605.3296 L182.2941,605.4104 L192.2549,605.8725 L202.2157,605.9863 L212.1765,605.9972 L222.1373,605.4311 L232.098,605.7097 L242.0588,606.0279 L252.0196,604.13 L261.9804,605.9962 L271.9412,604.6962 L281.902,605.8033 L291.8627,604.4315 L301.8235,605.0002 L311.7843,606.0804 L321.7451,605.0266 L331.7059,605.232 L341.6667,605.5431 L351.6275,605.6465 L361.5882,605.0863 L371.549,605.4745 L381.5098,604.3283 L391.4706,605.4707 L401.4314,605.8225 L411.3922,605.6843 L421.3529,605.9089 L431.3137,604.4474 L441.2745,604.222 L451.2353,604.263 L461.1961,605.013 L471.1569,604.8295 L481.1176,606.0001 L491.0784,604.8586 L501.0392,604.6341 L511,605.0916 " fill="#EEEEEE" style="stroke: #000000; stroke-width: 1.0;"/><polygon fill="#EEEEEE" filter="url(#fxgfvhjt8b9br)" points="234,589.8335,234,590.0437,243.2,589.4192,252.4,590.0268,261.6,590.2332,270.8,589.1201,280,589.8335,279.9741,589.8335,279.8578,595.1367,279.8722,600.4399,279.9773,605.7432,279.7695,611.0464,280,616.3496,280,616.9033,270.8,615.7193,261.6,616.1518,252.4,616.7816,243.2,616.2638,234,616.3496,234.0227,616.3496,233.9894,611.0464,234.0595,605.7432,234.0797,600.4399,234.1952,595.1367,234,589.8335" style="stroke: #000000; stroke-width: 2.0;"/><text fill="#000000" font-family="sans-serif" font-size="13" font-weight="bold" lengthAdjust="spacingAndGlyphs" textLength="28" x="240" y="609.4932">開練</text><polygon fill="#A80036" points="271.5,646.8657,271.526,646.9308,269.4487,647.5375,267.5239,648.5255,265.5495,649.3894,263.4117,649.8449,261.5,650.8657,261.4904,650.8417,263.4472,651.5337,265.4525,652.347,267.4916,653.2446,269.4144,653.8517,271.5,654.8657,271.6305,654.9962,270.5514,653.9172,269.8534,653.2191,269.2018,652.5675,268.2798,651.6455,267.5,650.8657,267.5161,650.8818,268.2925,650.0582,269.1421,649.3078,269.9564,648.5221,270.838,647.8038,271.5,646.8657" style="stroke: #A80036; stroke-width: 1.0;"/><path d="M265.5,650.8657 L265.5,651.146 L275.5882,650.3133 L285.6765,651.1234 L295.7647,651.3986 L305.8529,649.9145 L315.9412,650.7621 L326.0294,650.2971 L336.1176,650.3544 L346.2059,650.7748 L356.2941,649.9439 L366.3824,651.6039 L376.4706,650.0253 L386.5588,650.602 L396.6471,651.4417 L406.7353,650.7514 L416.8235,650.9567 L426.9118,650.8231 L437,650.8657 " fill="none" style="stroke: #A80036; stroke-width: 1.0;"/><text fill="#000000" font-family="sans-serif" font-size="13" font-weight="bold" lengthAdjust="spacingAndGlyphs" textLength="7" x="277.5" y="646.0093">9</text><text fill="#000000" font-family="sans-serif" font-size="13" lengthAdjust="spacingAndGlyphs" textLength="142" x="288.5" y="646.0093">coding and commit/push</text><polygon fill="#A80036" points="271.5,679.3818,271.526,679.4469,269.4487,680.0536,267.5239,681.0417,265.5495,681.9055,263.4117,682.361,261.5,683.3818,261.4904,683.3578,263.4472,684.0498,265.4525,684.8631,267.4916,685.7607,269.4144,686.3679,271.5,687.3818,271.6305,687.5123,270.5514,686.4333,269.8534,685.7352,269.2018,685.0836,268.2798,684.1616,267.5,683.3818,267.5161,683.3979,268.2925,682.5743,269.1421,681.8239,269.9564,681.0382,270.838,680.3199,271.5,679.3818" style="stroke: #A80036; stroke-width: 1.0;"/><path d="M265.5,683.3818 L265.5,683.6621 L275.6136,682.8294 L285.7273,683.6396 L295.8409,683.9147 L305.9545,682.4306 L316.0682,683.2782 L326.1818,682.8132 L336.2955,682.8705 L346.4091,683.291 L356.5227,682.46 L366.6364,684.12 L376.75,682.5415 L386.8636,683.1181 L396.9773,683.9578 L407.0909,683.2675 L417.2045,683.4728 L427.3182,683.3392 L437.4318,683.6199 L447.5455,683.7007 L457.6591,684.1628 L467.7727,684.2766 L477.8864,684.2875 L488,683.3818 " fill="none" style="stroke: #A80036; stroke-width: 1.0;"/><text fill="#000000" font-family="sans-serif" font-size="13" font-weight="bold" lengthAdjust="spacingAndGlyphs" textLength="14" x="277.5" y="678.5254">10</text><text fill="#000000" font-family="sans-serif" font-size="13" lengthAdjust="spacingAndGlyphs" textLength="35" x="295.5" y="678.5254">gitops</text><path d="M3,713.6399 L3,713.9201 L12.9608,713.0875 L22.9216,713.8976 L32.8824,714.1728 L42.8431,712.6887 L52.8039,713.5363 L62.7647,713.0712 L72.7255,713.1286 L82.6863,713.549 L92.6471,712.7181 L102.6078,714.3781 L112.5686,712.7995 L122.5294,713.3762 L132.4902,714.2158 L142.451,713.5255 L152.4118,713.7309 L162.3725,713.5973 L172.3333,713.8779 L182.2941,713.9587 L192.2549,714.4208 L202.2157,714.5346 L212.1765,714.5456 L222.1373,713.9794 L232.098,714.258 L242.0588,714.5762 L252.0196,712.6783 L261.9804,714.5446 L271.9412,713.2446 L281.902,714.3516 L291.8627,712.9799 L301.8235,713.5486 L311.7843,714.6287 L321.7451,713.5749 L331.7059,713.7803 L341.6667,714.0914 L351.6275,714.1949 L361.5882,713.6347 L371.549,714.0228 L381.5098,712.8767 L391.4706,714.0191 L401.4314,714.3708 L411.3922,714.2326 L421.3529,714.4573 L431.3137,712.9958 L441.2745,712.7703 L451.2353,712.8114 L461.1961,713.5614 L471.1569,713.3779 L481.1176,714.5484 L491.0784,713.407 L501.0392,713.1825 L511,713.6399 " fill="#EEEEEE" style="stroke: #000000; stroke-width: 1.0;"/><path d="M3,716.6399 L3,716.9201 L12.9608,716.0875 L22.9216,716.8976 L32.8824,717.1728 L42.8431,715.6887 L52.8039,716.5363 L62.7647,716.0712 L72.7255,716.1286 L82.6863,716.549 L92.6471,715.7181 L102.6078,717.3781 L112.5686,715.7995 L122.5294,716.3762 L132.4902,717.2158 L142.451,716.5255 L152.4118,716.7309 L162.3725,716.5973 L172.3333,716.8779 L182.2941,716.9587 L192.2549,717.4208 L202.2157,717.5346 L212.1765,717.5456 L222.1373,716.9794 L232.098,717.258 L242.0588,717.5762 L252.0196,715.6783 L261.9804,717.5446 L271.9412,716.2446 L281.902,717.3516 L291.8627,715.9799 L301.8235,716.5486 L311.7843,717.6287 L321.7451,716.5749 L331.7059,716.7803 L341.6667,717.0914 L351.6275,717.1949 L361.5882,716.6347 L371.549,717.0228 L381.5098,715.8767 L391.4706,717.0191 L401.4314,717.3708 L411.3922,717.2326 L421.3529,717.4573 L431.3137,715.9958 L441.2745,715.7703 L451.2353,715.8114 L461.1961,716.5614 L471.1569,716.3779 L481.1176,717.5484 L491.0784,716.407 L501.0392,716.1825 L511,716.6399 " fill="#EEEEEE" style="stroke: #000000; stroke-width: 1.0;"/><polygon fill="#EEEEEE" filter="url(#fxgfvhjt8b9br)" points="234,701.3818,234,701.592,243.2,700.9675,252.4,701.5751,261.6,701.7815,270.8,700.6684,280,701.3818,279.9741,701.3818,279.8578,706.6851,279.8722,711.9883,279.9773,717.2915,279.7695,722.5947,280,727.8979,280,728.4516,270.8,727.2677,261.6,727.7002,252.4,728.3299,243.2,727.8122,234,727.8979,234.0227,727.8979,233.9894,722.5947,234.0595,717.2915,234.0797,711.9883,234.1952,706.6851,234,701.3818" style="stroke: #000000; stroke-width: 2.0;"/><text fill="#000000" font-family="sans-serif" font-size="13" font-weight="bold" lengthAdjust="spacingAndGlyphs" textLength="28" x="240" y="721.0415">測驗</text><polygon fill="#A80036" points="271.5,758.4141,271.526,758.4791,269.4487,759.0858,267.5239,760.0739,265.5495,760.9378,263.4117,761.3933,261.5,762.4141,261.4904,762.39,263.4472,763.0821,265.4525,763.8954,267.4916,764.793,269.4144,765.4001,271.5,766.4141,271.6305,766.5446,270.5514,765.4655,269.8534,764.7674,269.2018,764.1159,268.2798,763.1938,267.5,762.4141,267.5161,762.4301,268.2925,761.6065,269.1421,760.8561,269.9564,760.0704,270.838,759.3521,271.5,758.4141" style="stroke: #A80036; stroke-width: 1.0;"/><path d="M265.5,762.4141 L265.5,762.6943 L275.5882,761.8616 L285.6765,762.6718 L295.7647,762.947 L305.8529,761.4629 L315.9412,762.3104 L326.0294,761.8454 L336.1176,761.9027 L346.2059,762.3232 L356.2941,761.4922 L366.3824,763.1523 L376.4706,761.5737 L386.5588,762.1504 L396.6471,762.99 L406.7353,762.2997 L416.8235,762.505 L426.9118,762.3715 L437,762.4141 " fill="none" style="stroke: #A80036; stroke-width: 1.0;"/><text fill="#000000" font-family="sans-serif" font-size="13" font-weight="bold" lengthAdjust="spacingAndGlyphs" textLength="14" x="277.5" y="757.5576">11</text><text fill="#000000" font-family="sans-serif" font-size="13" lengthAdjust="spacingAndGlyphs" textLength="28" x="295.5" y="757.5576">ci/cd</text><path d="M3,792.6721 L3,792.9524 L12.9608,792.1197 L22.9216,792.9298 L32.8824,793.205 L42.8431,791.7209 L52.8039,792.5685 L62.7647,792.1035 L72.7255,792.1608 L82.6863,792.5812 L92.6471,791.7503 L102.6078,793.4103 L112.5686,791.8317 L122.5294,792.4084 L132.4902,793.248 L142.451,792.5578 L152.4118,792.7631 L162.3725,792.6295 L172.3333,792.9102 L182.2941,792.991 L192.2549,793.453 L202.2157,793.5669 L212.1765,793.5778 L222.1373,793.0116 L232.098,793.2902 L242.0588,793.6084 L252.0196,791.7105 L261.9804,793.5768 L271.9412,792.2768 L281.902,793.3839 L291.8627,792.0121 L301.8235,792.5808 L311.7843,793.6609 L321.7451,792.6071 L331.7059,792.8125 L341.6667,793.1236 L351.6275,793.2271 L361.5882,792.6669 L371.549,793.0551 L381.5098,791.9089 L391.4706,793.0513 L401.4314,793.403 L411.3922,793.2648 L421.3529,793.4895 L431.3137,792.028 L441.2745,791.8025 L451.2353,791.8436 L461.1961,792.5936 L471.1569,792.4101 L481.1176,793.5807 L491.0784,792.4392 L501.0392,792.2147 L511,792.6721 " fill="#EEEEEE" style="stroke: #000000; stroke-width: 1.0;"/><path d="M3,795.6721 L3,795.9524 L12.9608,795.1197 L22.9216,795.9298 L32.8824,796.205 L42.8431,794.7209 L52.8039,795.5685 L62.7647,795.1035 L72.7255,795.1608 L82.6863,795.5812 L92.6471,794.7503 L102.6078,796.4103 L112.5686,794.8317 L122.5294,795.4084 L132.4902,796.248 L142.451,795.5578 L152.4118,795.7631 L162.3725,795.6295 L172.3333,795.9102 L182.2941,795.991 L192.2549,796.453 L202.2157,796.5669 L212.1765,796.5778 L222.1373,796.0116 L232.098,796.2902 L242.0588,796.6084 L252.0196,794.7105 L261.9804,796.5768 L271.9412,795.2768 L281.902,796.3839 L291.8627,795.0121 L301.8235,795.5808 L311.7843,796.6609 L321.7451,795.6071 L331.7059,795.8125 L341.6667,796.1236 L351.6275,796.2271 L361.5882,795.6669 L371.549,796.0551 L381.5098,794.9089 L391.4706,796.0513 L401.4314,796.403 L411.3922,796.2648 L421.3529,796.4895 L431.3137,795.028 L441.2745,794.8025 L451.2353,794.8436 L461.1961,795.5936 L471.1569,795.4101 L481.1176,796.5807 L491.0784,795.4392 L501.0392,795.2147 L511,795.6721 " fill="#EEEEEE" style="stroke: #000000; stroke-width: 1.0;"/><polygon fill="#EEEEEE" filter="url(#fxgfvhjt8b9br)" points="234,780.4141,234,780.6242,243.2,779.9997,252.4,780.6073,261.6,780.8137,270.8,779.7007,280,780.4141,279.9741,780.4141,279.8578,785.7173,279.8722,791.0205,279.9773,796.3237,279.7695,801.627,280,806.9302,280,807.4838,270.8,806.2999,261.6,806.7324,252.4,807.3621,243.2,806.8444,234,806.9302,234.0227,806.9302,233.9894,801.627,234.0595,796.3237,234.0797,791.0205,234.1952,785.7173,234,780.4141" style="stroke: #000000; stroke-width: 2.0;"/><text fill="#000000" font-family="sans-serif" font-size="13" font-weight="bold" lengthAdjust="spacingAndGlyphs" textLength="28" x="240" y="800.0737">紀錄</text><polygon fill="#A80036" points="347,837.4463,347.026,837.5113,348.9487,838.1181,351.0239,839.1061,353.0495,839.97,354.9117,840.4255,357,841.4463,356.9904,841.4222,354.9472,842.1143,352.9525,842.9276,350.9916,843.8252,348.9144,844.4323,347,845.4463,347.1305,845.5768,347.6514,844.4977,348.5534,843.7997,349.5018,843.1481,350.1798,842.2261,351,841.4463,351.0161,841.4624,350.1925,840.6388,349.4421,839.8884,348.6564,839.1027,347.938,838.3843,347,837.4463" style="stroke: #A80036; stroke-width: 1.0;"/><path d="M25,841.4463 L25,841.7265 L34.9394,840.8939 L44.8788,841.704 L54.8182,841.9792 L64.7576,840.4951 L74.697,841.3427 L84.6364,840.8776 L94.5758,840.935 L104.5152,841.3554 L114.4545,840.5245 L124.3939,842.1845 L134.3333,840.6059 L144.2727,841.1826 L154.2121,842.0222 L164.1515,841.3319 L174.0909,841.5373 L184.0303,841.4037 L193.9697,841.6843 L203.9091,841.7651 L213.8485,842.2272 L223.7879,842.341 L233.7273,842.352 L243.6667,841.7858 L253.6061,842.0644 L263.5455,842.3826 L273.4848,840.4847 L283.4242,842.351 L293.3636,841.051 L303.303,842.158 L313.2424,840.7863 L323.1818,841.355 L333.1212,842.4351 L343.0606,841.3813 L353,841.4463 " fill="none" style="stroke: #A80036; stroke-width: 1.0;"/><text fill="#000000" font-family="sans-serif" font-size="13" font-weight="bold" lengthAdjust="spacingAndGlyphs" textLength="14" x="32" y="836.5898">12</text><text fill="#000000" font-family="sans-serif" font-size="13" lengthAdjust="spacingAndGlyphs" textLength="26" x="50" y="836.5898">紀錄</text><text fill="#888888" font-family="sans-serif" font-size="10" lengthAdjust="spacingAndGlyphs" textLength="48" x="463" y="15.0459">DLTDOJO</text><text fill="#888888" font-family="sans-serif" font-size="10" lengthAdjust="spacingAndGlyphs" textLength="186" x="164" y="961.4326">https://github.com/dltdojo/taichu-crypto</text><!--
@startuml
header DLTDOJO
footer https://github.com/dltdojo/taichu-crypto
title dltdojo-taichu-crypto-1907-1
autonumber
skinparam handwritten true
actor "場管" as GUY #red
database "虛機服務\nVM Service" as VMS
participant "虛機\nVM"  as VM
control "場服\nCode-Server"  as CS
collections "區塊鏈\nBlockchain" as BC
actor "練習生" as STUDENT #GreenYellow
actor "教練" as COACH #Blue
== 備場 ==
GUY -> VMS : 開虛機
GUY -> VM : 建場 taichu init
note right
建場管帳號
安裝軟體
啟動 Gitops 服務
end note
GUY -> VM : 建立場用 Gitops 專案
note right
建使用者
建立專案
end note
GUY -> CS : start code-server
== 公告 ==
GUY -> STUDENT : 發送 CS url and password
GUY -> COACH : 發送 CS url and password
STUDENT -> CS : 登入 CS 設定 gitops 
COACH -> CS : 登入 CS
== 開練 ==
STUDENT -> CS : coding and commit/push
COACH -> CS : gitops
== 測驗 ==
STUDENT -> CS : ci/cd
== 紀錄 ==
GUY -> BC : 紀錄
@enduml

PlantUML version 1.2019.06(Sat May 25 01:10:25 CST 2019)
(GPL source distribution)
Java Runtime: Java(TM) SE Runtime Environment
JVM: Java HotSpot(TM) 64-Bit Server VM
Java Version: 1.8.0_221-b11
Operating System: Windows 10
OS Version: 10.0
Default Encoding: MS950
Language: zh
Country: TW
--></g></svg>