<?xml version="1.0" encoding="UTF-8" standalone="no"?><svg xmlns="http://www.w3.org/2000/svg" xmlns:xlink="http://www.w3.org/1999/xlink" contentScriptType="application/ecmascript" contentStyleType="text/css" height="440px" preserveAspectRatio="none" style="width:996px;height:440px;" version="1.1" viewBox="0 0 996 440" width="996px" zoomAndPan="magnify"><defs><filter height="300%" id="fe2hzr6puj4m4" width="300%" x="-1" y="-1"><feGaussianBlur result="blurOut" stdDeviation="2.0"/><feColorMatrix in="blurOut" result="blurOut2" type="matrix" values="0 0 0 0 0 0 0 0 0 0 0 0 0 0 0 0 0 0 .4 0"/><feOffset dx="4.0" dy="4.0" in="blurOut2" result="blurOut3"/><feBlend in="SourceGraphic" in2="blurOut3" mode="normal"/></filter></defs><g><!--cluster Site--><polygon fill="#9ACD32" filter="url(#fe2hzr6puj4m4)" points="485,32.5,518,32.5,525,58.4404,811,58.4404,811,281,485,281,485,32.5" style="stroke: #000000; stroke-width: 1.5;"/><line style="stroke: #000000; stroke-width: 1.5;" x1="485" x2="525" y1="58.4404" y2="58.4404"/><text fill="#000000" font-family="sans-serif" font-size="14" font-weight="bold" lengthAdjust="spacingAndGlyphs" textLength="27" x="489" y="51.3643">Site</text><!--cluster Ledger--><polygon fill="#FFA500" filter="url(#fe2hzr6puj4m4)" points="30,156,86,156,93,181.9404,445,181.9404,445,428,30,428,30,156" style="stroke: #000000; stroke-width: 1.5;"/><line style="stroke: #000000; stroke-width: 1.5;" x1="30" x2="93" y1="181.9404" y2="181.9404"/><text fill="#000000" font-family="sans-serif" font-size="14" font-weight="bold" lengthAdjust="spacingAndGlyphs" textLength="50" x="34" y="174.8643">Ledger</text><!--entity app--><rect fill="#FEFECE" filter="url(#fe2hzr6puj4m4)" height="39.9404" style="stroke: #A80036; stroke-width: 1.5;" width="44" x="510" y="83.5"/><text fill="#000000" font-family="sans-serif" font-size="14" lengthAdjust="spacingAndGlyphs" textLength="24" x="520" y="110.3643">app</text><!--entity database--><path d="M589.5,89 C589.5,79 629,79 629,79 C629,79 668.5,79 668.5,89 L668.5,117.9404 C668.5,127.9404 629,127.9404 629,127.9404 C629,127.9404 589.5,127.9404 589.5,117.9404 L589.5,89 " fill="#FEFECE" filter="url(#fe2hzr6puj4m4)" style="stroke: #000000; stroke-width: 1.5;"/><path d="M589.5,89 C589.5,99 629,99 629,99 C629,99 668.5,99 668.5,89 " fill="none" style="stroke: #000000; stroke-width: 1.5;"/><text fill="#000000" font-family="sans-serif" font-size="14" lengthAdjust="spacingAndGlyphs" textLength="59" x="599.5" y="119.8643">database</text><!--entity cloud--><path d="M712.6212,88.1153 C714.6255,81.6538 720.637,81.1308 724.7493,85.8231 C728.5978,79.2329 732.9011,79.0872 737.3064,85.276 C741.6932,79.815 745.5211,80.0321 749.022,86.1707 C753.2483,80.4448 759.0114,80.4912 761.8475,87.5638 C770.0381,91.5561 770.7547,98.2323 764.0382,104.189 C770.7345,110.4279 769.8647,118.4321 761.0199,122.0438 C759.3118,128.2529 754.0831,130.7533 748.7511,126.1596 C747.773,132.3833 742.4934,133.4939 738.1579,129.7152 C731.6337,135.1671 726.2452,133.2895 724.7131,124.8749 C718.9388,130.7384 714.1617,129.3507 712.0537,121.4924 C701.1993,119.4782 699.7336,113.2033 705.9449,104.9044 C699.8152,96.4432 703.641,90.5679 712.6212,88.1153 " fill="#FEFECE" style="stroke: #000000; stroke-width: 1.5;"/><text fill="#000000" font-family="sans-serif" font-size="14" lengthAdjust="spacingAndGlyphs" textLength="34" x="719" y="110.3643">cloud</text><!--entity node--><polygon fill="#FEFECE" filter="url(#fe2hzr6puj4m4)" points="509,217,519,207,581,207,581,246.9404,571,256.9404,509,256.9404,509,217" style="stroke: #000000; stroke-width: 1.5;"/><line style="stroke: #000000; stroke-width: 1.5;" x1="571" x2="580" y1="217" y2="208"/><line style="stroke: #000000; stroke-width: 1.5;" x1="509" x2="571" y1="217" y2="217"/><line style="stroke: #000000; stroke-width: 1.5;" x1="571" x2="571" y1="217" y2="256.9404"/><text fill="#000000" font-family="sans-serif" font-size="14" lengthAdjust="spacingAndGlyphs" textLength="32" x="524" y="243.8643">node</text><!--entity queue--><path d="M621,217 L671,217 C676,217 676,231.9702 676,231.9702 C676,231.9702 676,246.9404 671,246.9404 L621,246.9404 C616,246.9404 616,231.9702 616,231.9702 C616,231.9702 616,217 621,217 " fill="#FEFECE" filter="url(#fe2hzr6puj4m4)" style="stroke: #A80036; stroke-width: 1.5;"/><path d="M671,217 C666,217 666,231.9702 666,231.9702 C666,246.9404 671,246.9404 671,246.9404 " fill="none" style="stroke: #A80036; stroke-width: 1.5;"/><text fill="#000000" font-family="sans-serif" font-size="14" lengthAdjust="spacingAndGlyphs" textLength="40" x="621" y="238.8643">queue</text><!--entity storage--><rect fill="#FEFECE" filter="url(#fe2hzr6puj4m4)" height="39.9404" rx="35" ry="35" style="stroke: #000000; stroke-width: 1.5;" width="68" x="711" y="212"/><text fill="#000000" font-family="sans-serif" font-size="14" lengthAdjust="spacingAndGlyphs" textLength="48" x="721" y="238.8643">storage</text><!--entity DAPP--><rect fill="#FEFECE" filter="url(#fe2hzr6puj4m4)" height="59.8809" style="stroke: #A80036; stroke-width: 1.5;" width="154" x="54" y="202"/><text fill="#000000" font-family="sans-serif" font-size="14" lengthAdjust="spacingAndGlyphs" textLength="33" x="64" y="228.8643">dApp</text><text fill="#000000" font-family="sans-serif" font-size="14" lengthAdjust="spacingAndGlyphs" textLength="134" x="64" y="248.8047">Consensus Algorithm</text><!--entity LAPP--><rect fill="#FEFECE" filter="url(#fe2hzr6puj4m4)" height="39.9404" style="stroke: #A80036; stroke-width: 1.5;" width="44" x="243" y="212"/><text fill="#000000" font-family="sans-serif" font-size="14" lengthAdjust="spacingAndGlyphs" textLength="24" x="253" y="238.8643">app</text><!--entity LDB--><path d="M322.5,217.5 C322.5,207.5 362,207.5 362,207.5 C362,207.5 401.5,207.5 401.5,217.5 L401.5,246.4404 C401.5,256.4404 362,256.4404 362,256.4404 C362,256.4404 322.5,256.4404 322.5,246.4404 L322.5,217.5 " fill="#FEFECE" filter="url(#fe2hzr6puj4m4)" style="stroke: #000000; stroke-width: 1.5;"/><path d="M322.5,217.5 C322.5,227.5 362,227.5 362,227.5 C362,227.5 401.5,227.5 401.5,217.5 " fill="none" style="stroke: #000000; stroke-width: 1.5;"/><text fill="#000000" font-family="sans-serif" font-size="14" lengthAdjust="spacingAndGlyphs" textLength="59" x="332.5" y="248.3643">database</text><!--entity LPEER--><polygon fill="#FEFECE" filter="url(#fe2hzr6puj4m4)" points="96.5,364,106.5,354,165.5,354,165.5,393.9404,155.5,403.9404,96.5,403.9404,96.5,364" style="stroke: #000000; stroke-width: 1.5;"/><line style="stroke: #000000; stroke-width: 1.5;" x1="155.5" x2="164.5" y1="364" y2="355"/><line style="stroke: #000000; stroke-width: 1.5;" x1="96.5" x2="155.5" y1="364" y2="364"/><line style="stroke: #000000; stroke-width: 1.5;" x1="155.5" x2="155.5" y1="364" y2="403.9404"/><text fill="#000000" font-family="sans-serif" font-size="14" lengthAdjust="spacingAndGlyphs" textLength="29" x="111.5" y="390.8643">peer</text><!--entity LSTORAGE--><rect fill="#FEFECE" filter="url(#fe2hzr6puj4m4)" height="39.9404" rx="35" ry="35" style="stroke: #000000; stroke-width: 1.5;" width="68" x="201" y="359"/><text fill="#000000" font-family="sans-serif" font-size="14" lengthAdjust="spacingAndGlyphs" textLength="48" x="211" y="385.8643">storage</text><!--entity LRE--><ellipse cx="667" cy="345.5" fill="#FFA500" filter="url(#fe2hzr6puj4m4)" rx="8" ry="8" style="stroke: #A80036; stroke-width: 2.0;"/><path d="M667,353.5 L667,380.5 M654,361.5 L680,361.5 M667,380.5 L654,395.5 M667,380.5 L680,395.5 " fill="none" filter="url(#fe2hzr6puj4m4)" style="stroke: #A80036; stroke-width: 2.0;"/><text fill="#000000" font-family="sans-serif" font-size="14" lengthAdjust="spacingAndGlyphs" textLength="170" x="582" y="419.3643">Ledger Reliability Engineer</text><!--entity SRE--><ellipse cx="910" cy="198.5" fill="#9ACD32" filter="url(#fe2hzr6puj4m4)" rx="8" ry="8" style="stroke: #A80036; stroke-width: 2.0;"/><path d="M910,206.5 L910,233.5 M897,214.5 L923,214.5 M910,233.5 L897,248.5 M910,233.5 L923,248.5 " fill="none" filter="url(#fe2hzr6puj4m4)" style="stroke: #A80036; stroke-width: 2.0;"/><text fill="#000000" font-family="sans-serif" font-size="14" lengthAdjust="spacingAndGlyphs" textLength="149" x="835.5" y="272.3643">Site Reliability Engineer</text><!--entity DevOps--><ellipse cx="853" cy="379" fill="#FEFECE" filter="url(#fe2hzr6puj4m4)" rx="8" ry="8" style="stroke: #A80036; stroke-width: 2.0;"/><text fill="#000000" font-family="sans-serif" font-size="14" lengthAdjust="spacingAndGlyphs" textLength="51" x="827.5" y="412.8643">DevOps</text><!--link Ledger to LRE--><path d="M445.1699,245.0702 C445.2843,245.2309 445.3998,245.3928 445.5163,245.5558 C445.7493,245.8819 445.9866,246.2126 446.228,246.5478 C446.7107,247.2182 447.21,247.9064 447.7251,248.6108 C449.7858,251.4285 452.1011,254.5053 454.6331,257.7346 C464.7612,270.652 478.3575,286.011 493,297 C519.65,317.001 552.031,333.736 581.597,346.705 " fill="none" id="Ledger-LRE" style="stroke: #A80036; stroke-width: 1.0;"/><!--link LRE to DevOps--><path d="M752.008,379 C782.647,379 813.287,379 843.926,379 " fill="none" id="LRE-DevOps" style="stroke: #A80036; stroke-width: 1.0;"/><!--link Site to SRE--><path d="M811.1163,114.0951 C811.2556,114.2598 811.3965,114.4264 811.5389,114.5947 C811.8236,114.9314 812.1144,115.2751 812.411,115.6258 C813.0043,116.3272 813.621,117.0563 814.2597,117.8114 C815.5371,119.3216 816.9026,120.936 818.3454,122.6417 C821.2308,126.053 824.425,129.8293 827.8403,133.867 C841.5013,150.0177 858.6995,170.3505 873.826,188.234 " fill="none" id="Site-SRE" style="stroke: #A80036; stroke-width: 1.0;"/><!--link SRE to DevOps--><path d="M893.206,275.721 C880.136,308.969 863.091,352.3301 856.148,369.9911 " fill="none" id="SRE-DevOps" style="stroke: #A80036; stroke-width: 1.0;"/><!--link app to database--><!--link database to cloud--><!--link app to node--><!--link node to queue--><!--link queue to storage--><!--link DAPP to LAPP--><!--link LAPP to LDB--><!--link DAPP to LPEER--><!--link LPEER to LSTORAGE--><!--
@startuml
actor "Ledger Reliability Engineer" as LRE #Orange
actor "Site Reliability Engineer" as SRE #YellowGreen
interface  DevOps

folder Site #YellowGreen {
  agent app 
  database database
  cloud cloud
  node node
  queue queue
  storage storage
}

folder Ledger #Orange {
  agent "dApp\nConsensus Algorithm" as DAPP
  agent app as LAPP
  database database as LDB
  node peer as LPEER
  storage storage as LSTORAGE
}

Ledger - - LRE
LRE - DevOps
Site - - SRE
SRE - - DevOps
@enduml

PlantUML version 1.2019.09(Tue Aug 27 00:19:51 CST 2019)
(GPL source distribution)
Java Runtime: Java(TM) SE Runtime Environment
JVM: Java HotSpot(TM) 64-Bit Server VM
Java Version: 1.8.0_221-b11
Operating System: Windows 10
OS Version: 10.0
Default Encoding: MS950
Language: zh
Country: TW
--></g></svg>