<?xml version="1.0" encoding="UTF-8" standalone="no"?><svg xmlns="http://www.w3.org/2000/svg" xmlns:xlink="http://www.w3.org/1999/xlink" contentScriptType="application/ecmascript" contentStyleType="text/css" height="1272px" preserveAspectRatio="none" style="width:797px;height:1272px;" version="1.1" viewBox="0 0 797 1272" width="797px" zoomAndPan="magnify"><defs><filter height="300%" id="f10j8ng5xpkhdb" width="300%" x="-1" y="-1"><feGaussianBlur result="blurOut" stdDeviation="2.0"/><feColorMatrix in="blurOut" result="blurOut2" type="matrix" values="0 0 0 0 0 0 0 0 0 0 0 0 0 0 0 0 0 0 .4 0"/><feOffset dx="4.0" dy="4.0" in="blurOut2" result="blurOut3"/><feBlend in="SourceGraphic" in2="blurOut3" mode="normal"/></filter></defs><g><rect fill="#ADD8E6" height="1257.7935" style="stroke: #A80036; stroke-width: 1.0;" width="188" x="9" y="4"/><text fill="#000000" font-family="sans-serif" font-size="13" font-weight="bold" lengthAdjust="spacingAndGlyphs" textLength="77" x="64.5" y="19.6597">Alice Realm</text><rect fill="#FFFFFF" height="1257.7935" style="stroke: #A80036; stroke-width: 1.0;" width="359" x="209" y="4"/><text fill="#000000" font-family="sans-serif" font-size="13" font-weight="bold" lengthAdjust="spacingAndGlyphs" textLength="179" x="299" y="19.6597">The kingdom of far far away</text><rect fill="#F08080" height="1257.7935" style="stroke: #A80036; stroke-width: 1.0;" width="199.5" x="580" y="4"/><text fill="#000000" font-family="sans-serif" font-size="13" font-weight="bold" lengthAdjust="spacingAndGlyphs" textLength="70" x="644.75" y="19.6597">Bob Realm</text><line style="stroke: #A80036; stroke-width: 1.0; stroke-dasharray: 5.0,5.0;" x1="37" x2="37" y1="133.397" y2="1151.9126"/><line style="stroke: #A80036; stroke-width: 1.0; stroke-dasharray: 5.0,5.0;" x1="164" x2="164" y1="133.397" y2="1151.9126"/><line style="stroke: #A80036; stroke-width: 1.0; stroke-dasharray: 5.0,5.0;" x1="255" x2="255" y1="133.397" y2="1151.9126"/><line style="stroke: #A80036; stroke-width: 1.0; stroke-dasharray: 5.0,5.0;" x1="382" x2="382" y1="133.397" y2="1151.9126"/><line style="stroke: #A80036; stroke-width: 1.0; stroke-dasharray: 5.0,5.0;" x1="523" x2="523" y1="133.397" y2="1151.9126"/><line style="stroke: #A80036; stroke-width: 1.0; stroke-dasharray: 5.0,5.0;" x1="611" x2="611" y1="133.397" y2="1151.9126"/><line style="stroke: #A80036; stroke-width: 1.0; stroke-dasharray: 5.0,5.0;" x1="751.5" x2="751.5" y1="133.397" y2="1151.9126"/><text fill="#000000" font-family="sans-serif" font-size="14" lengthAdjust="spacingAndGlyphs" textLength="30" x="19" y="110.3804">Alice</text><text fill="#000000" font-family="sans-serif" font-size="14" lengthAdjust="spacingAndGlyphs" textLength="42" x="13" y="130.3208">瀏覽器</text><ellipse cx="37" cy="36.5161" fill="#FFFF00" filter="url(#f10j8ng5xpkhdb)" rx="8" ry="8" style="stroke: #A80036; stroke-width: 2.0;"/><path d="M37,44.5161 L37,71.5161 M24,52.5161 L50,52.5161 M37,71.5161 L24,86.5161 M37,71.5161 L50,86.5161 " fill="none" filter="url(#f10j8ng5xpkhdb)" style="stroke: #A80036; stroke-width: 2.0;"/><text fill="#000000" font-family="sans-serif" font-size="14" lengthAdjust="spacingAndGlyphs" textLength="30" x="19" y="1167.7769">Alice</text><text fill="#000000" font-family="sans-serif" font-size="14" lengthAdjust="spacingAndGlyphs" textLength="42" x="13" y="1187.7173">瀏覽器</text><ellipse cx="37" cy="1200.7935" fill="#FFFF00" filter="url(#f10j8ng5xpkhdb)" rx="8" ry="8" style="stroke: #A80036; stroke-width: 2.0;"/><path d="M37,1208.7935 L37,1235.7935 M24,1216.7935 L50,1216.7935 M37,1235.7935 L24,1250.7935 M37,1235.7935 L50,1250.7935 " fill="none" filter="url(#f10j8ng5xpkhdb)" style="stroke: #A80036; stroke-width: 2.0;"/><rect fill="#FFFFFF" filter="url(#f10j8ng5xpkhdb)" height="53.8809" style="stroke: #A80036; stroke-width: 1.5;" width="44" x="140" y="74.5161"/><text fill="#000000" font-family="sans-serif" font-size="14" lengthAdjust="spacingAndGlyphs" textLength="27" x="148.5" y="98.3804">DoB</text><text fill="#000000" font-family="sans-serif" font-size="14" lengthAdjust="spacingAndGlyphs" textLength="30" x="147" y="118.3208">Alice</text><rect fill="#FFFFFF" filter="url(#f10j8ng5xpkhdb)" height="53.8809" style="stroke: #A80036; stroke-width: 1.5;" width="44" x="140" y="1150.9126"/><text fill="#000000" font-family="sans-serif" font-size="14" lengthAdjust="spacingAndGlyphs" textLength="27" x="148.5" y="1174.7769">DoB</text><text fill="#000000" font-family="sans-serif" font-size="14" lengthAdjust="spacingAndGlyphs" textLength="30" x="147" y="1194.7173">Alice</text><rect fill="#008000" filter="url(#f10j8ng5xpkhdb)" height="53.8809" style="stroke: #A80036; stroke-width: 1.5;" width="70" x="218" y="74.5161"/><text fill="#000000" font-family="sans-serif" font-size="14" lengthAdjust="spacingAndGlyphs" textLength="56" x="225" y="98.3804">DNS善意</text><text fill="#000000" font-family="sans-serif" font-size="14" lengthAdjust="spacingAndGlyphs" textLength="46" x="230" y="118.3208">Port 53</text><rect fill="#008000" filter="url(#f10j8ng5xpkhdb)" height="53.8809" style="stroke: #A80036; stroke-width: 1.5;" width="70" x="218" y="1150.9126"/><text fill="#000000" font-family="sans-serif" font-size="14" lengthAdjust="spacingAndGlyphs" textLength="56" x="225" y="1174.7769">DNS善意</text><text fill="#000000" font-family="sans-serif" font-size="14" lengthAdjust="spacingAndGlyphs" textLength="46" x="230" y="1194.7173">Port 53</text><rect fill="#FF0000" filter="url(#f10j8ng5xpkhdb)" height="53.8809" style="stroke: #A80036; stroke-width: 1.5;" width="70" x="345" y="74.5161"/><text fill="#000000" font-family="sans-serif" font-size="14" lengthAdjust="spacingAndGlyphs" textLength="56" x="352" y="98.3804">DNS惡意</text><text fill="#000000" font-family="sans-serif" font-size="14" lengthAdjust="spacingAndGlyphs" textLength="46" x="357" y="118.3208">Port 53</text><rect fill="#FF0000" filter="url(#f10j8ng5xpkhdb)" height="53.8809" style="stroke: #A80036; stroke-width: 1.5;" width="70" x="345" y="1150.9126"/><text fill="#000000" font-family="sans-serif" font-size="14" lengthAdjust="spacingAndGlyphs" textLength="56" x="352" y="1174.7769">DNS惡意</text><text fill="#000000" font-family="sans-serif" font-size="14" lengthAdjust="spacingAndGlyphs" textLength="46" x="357" y="1194.7173">Port 53</text><rect fill="#FFFF00" filter="url(#f10j8ng5xpkhdb)" height="53.8809" style="stroke: #A80036; stroke-width: 1.5;" width="68" x="487" y="74.5161"/><text fill="#000000" font-family="sans-serif" font-size="14" lengthAdjust="spacingAndGlyphs" textLength="27" x="507.5" y="98.3804">DoH</text><text fill="#000000" font-family="sans-serif" font-size="14" lengthAdjust="spacingAndGlyphs" textLength="54" x="494" y="118.3208">Port 443</text><rect fill="#FFFF00" filter="url(#f10j8ng5xpkhdb)" height="53.8809" style="stroke: #A80036; stroke-width: 1.5;" width="68" x="487" y="1150.9126"/><text fill="#000000" font-family="sans-serif" font-size="14" lengthAdjust="spacingAndGlyphs" textLength="27" x="507.5" y="1174.7769">DoH</text><text fill="#000000" font-family="sans-serif" font-size="14" lengthAdjust="spacingAndGlyphs" textLength="54" x="494" y="1194.7173">Port 443</text><rect fill="#FFFFFF" filter="url(#f10j8ng5xpkhdb)" height="53.8809" style="stroke: #A80036; stroke-width: 1.5;" width="41" x="589" y="74.5161"/><text fill="#000000" font-family="sans-serif" font-size="14" lengthAdjust="spacingAndGlyphs" textLength="27" x="596" y="98.3804">DoB</text><text fill="#000000" font-family="sans-serif" font-size="14" lengthAdjust="spacingAndGlyphs" textLength="25" x="597" y="118.3208">Bob</text><rect fill="#FFFFFF" filter="url(#f10j8ng5xpkhdb)" height="53.8809" style="stroke: #A80036; stroke-width: 1.5;" width="41" x="589" y="1150.9126"/><text fill="#000000" font-family="sans-serif" font-size="14" lengthAdjust="spacingAndGlyphs" textLength="27" x="596" y="1174.7769">DoB</text><text fill="#000000" font-family="sans-serif" font-size="14" lengthAdjust="spacingAndGlyphs" textLength="25" x="597" y="1194.7173">Bob</text><text fill="#000000" font-family="sans-serif" font-size="14" lengthAdjust="spacingAndGlyphs" textLength="25" x="736" y="110.3804">Bob</text><text fill="#000000" font-family="sans-serif" font-size="14" lengthAdjust="spacingAndGlyphs" textLength="42" x="727.5" y="130.3208">瀏覽器</text><ellipse cx="751.5" cy="36.5161" fill="#FEFECE" filter="url(#f10j8ng5xpkhdb)" rx="8" ry="8" style="stroke: #A80036; stroke-width: 2.0;"/><path d="M751.5,44.5161 L751.5,71.5161 M738.5,52.5161 L764.5,52.5161 M751.5,71.5161 L738.5,86.5161 M751.5,71.5161 L764.5,86.5161 " fill="none" filter="url(#f10j8ng5xpkhdb)" style="stroke: #A80036; stroke-width: 2.0;"/><text fill="#000000" font-family="sans-serif" font-size="14" lengthAdjust="spacingAndGlyphs" textLength="25" x="736" y="1167.7769">Bob</text><text fill="#000000" font-family="sans-serif" font-size="14" lengthAdjust="spacingAndGlyphs" textLength="42" x="727.5" y="1187.7173">瀏覽器</text><ellipse cx="751.5" cy="1200.7935" fill="#FEFECE" filter="url(#f10j8ng5xpkhdb)" rx="8" ry="8" style="stroke: #A80036; stroke-width: 2.0;"/><path d="M751.5,1208.7935 L751.5,1235.7935 M738.5,1216.7935 L764.5,1216.7935 M751.5,1235.7935 L738.5,1250.7935 M751.5,1235.7935 L764.5,1250.7935 " fill="none" filter="url(#f10j8ng5xpkhdb)" style="stroke: #A80036; stroke-width: 2.0;"/><rect fill="#EEEEEE" filter="url(#f10j8ng5xpkhdb)" height="3" style="stroke: #EEEEEE; stroke-width: 1.0;" width="782.5" x="3" y="165.655"/><line style="stroke: #000000; stroke-width: 1.0;" x1="3" x2="785.5" y1="165.655" y2="165.655"/><line style="stroke: #000000; stroke-width: 1.0;" x1="3" x2="785.5" y1="168.655" y2="168.655"/><rect fill="#EEEEEE" filter="url(#f10j8ng5xpkhdb)" height="26.5161" style="stroke: #000000; stroke-width: 2.0;" width="130" x="329.25" y="153.397"/><text fill="#000000" font-family="sans-serif" font-size="13" font-weight="bold" lengthAdjust="spacingAndGlyphs" textLength="112" x="335.25" y="173.0566">100 Tracking 追蹤</text><polygon fill="#A80036" points="393,210.4292,383,214.4292,393,218.4292,389,214.4292" style="stroke: #A80036; stroke-width: 1.0;"/><line style="stroke: #A80036; stroke-width: 1.0;" x1="387" x2="750.5" y1="214.4292" y2="214.4292"/><text fill="#000000" font-family="sans-serif" font-size="13" font-weight="bold" lengthAdjust="spacingAndGlyphs" textLength="21" x="399" y="209.5728">101</text><text fill="#000000" font-family="sans-serif" font-size="13" lengthAdjust="spacingAndGlyphs" textLength="43" x="424" y="209.5728">register</text><polygon fill="#A80036" points="243,242.9453,253,246.9453,243,250.9453,247,246.9453" style="stroke: #A80036; stroke-width: 1.0;"/><line style="stroke: #A80036; stroke-width: 1.0;" x1="37" x2="249" y1="246.9453" y2="246.9453"/><text fill="#000000" font-family="sans-serif" font-size="13" font-weight="bold" lengthAdjust="spacingAndGlyphs" textLength="21" x="44" y="242.0889">102</text><text fill="#000000" font-family="sans-serif" font-size="13" lengthAdjust="spacingAndGlyphs" textLength="71" x="69" y="242.0889">DNS port 53</text><polygon fill="#A80036" points="370,275.4614,380,279.4614,370,283.4614,374,279.4614" style="stroke: #A80036; stroke-width: 1.0;"/><line style="stroke: #A80036; stroke-width: 1.0;" x1="255" x2="376" y1="279.4614" y2="279.4614"/><text fill="#000000" font-family="sans-serif" font-size="13" font-weight="bold" lengthAdjust="spacingAndGlyphs" textLength="21" x="262" y="274.605">103</text><text fill="#000000" font-family="sans-serif" font-size="13" lengthAdjust="spacingAndGlyphs" textLength="0" x="291" y="274.605"/><line style="stroke: #A80036; stroke-width: 1.0;" x1="382" x2="424" y1="311.9775" y2="311.9775"/><line style="stroke: #A80036; stroke-width: 1.0;" x1="424" x2="424" y1="311.9775" y2="324.9775"/><line style="stroke: #A80036; stroke-width: 1.0;" x1="383" x2="424" y1="324.9775" y2="324.9775"/><polygon fill="#A80036" points="393,320.9775,383,324.9775,393,328.9775,389,324.9775" style="stroke: #A80036; stroke-width: 1.0;"/><text fill="#000000" font-family="sans-serif" font-size="13" font-weight="bold" lengthAdjust="spacingAndGlyphs" textLength="21" x="389" y="307.1211">104</text><text fill="#000000" font-family="sans-serif" font-size="13" lengthAdjust="spacingAndGlyphs" textLength="102" x="414" y="307.1211">tracking 紀錄追蹤</text><polygon fill="#A80036" points="266,353.4937,256,357.4937,266,361.4937,262,357.4937" style="stroke: #A80036; stroke-width: 1.0;"/><line style="stroke: #A80036; stroke-width: 1.0;" x1="260" x2="381" y1="357.4937" y2="357.4937"/><text fill="#000000" font-family="sans-serif" font-size="13" font-weight="bold" lengthAdjust="spacingAndGlyphs" textLength="21" x="272" y="352.6372">105</text><text fill="#000000" font-family="sans-serif" font-size="13" lengthAdjust="spacingAndGlyphs" textLength="78" x="297" y="352.6372">給正確的地址</text><polygon fill="#A80036" points="48,386.0098,38,390.0098,48,394.0098,44,390.0098" style="stroke: #A80036; stroke-width: 1.0;"/><line style="stroke: #A80036; stroke-width: 1.0;" x1="42" x2="254" y1="390.0098" y2="390.0098"/><text fill="#000000" font-family="sans-serif" font-size="13" font-weight="bold" lengthAdjust="spacingAndGlyphs" textLength="21" x="54" y="385.1533">106</text><text fill="#000000" font-family="sans-serif" font-size="13" lengthAdjust="spacingAndGlyphs" textLength="0" x="83" y="385.1533"/><rect fill="#EEEEEE" filter="url(#f10j8ng5xpkhdb)" height="3" style="stroke: #EEEEEE; stroke-width: 1.0;" width="782.5" x="3" y="420.2678"/><line style="stroke: #000000; stroke-width: 1.0;" x1="3" x2="785.5" y1="420.2678" y2="420.2678"/><line style="stroke: #000000; stroke-width: 1.0;" x1="3" x2="785.5" y1="423.2678" y2="423.2678"/><rect fill="#EEEEEE" filter="url(#f10j8ng5xpkhdb)" height="26.5161" style="stroke: #000000; stroke-width: 2.0;" width="136" x="326.25" y="408.0098"/><text fill="#000000" font-family="sans-serif" font-size="13" font-weight="bold" lengthAdjust="spacingAndGlyphs" textLength="118" x="332.25" y="427.6694">200  Spoofing 欺騙</text><polygon fill="#A80036" points="266,465.042,256,469.042,266,473.042,262,469.042" style="stroke: #A80036; stroke-width: 1.0;"/><line style="stroke: #A80036; stroke-width: 1.0;" x1="260" x2="381" y1="469.042" y2="469.042"/><text fill="#000000" font-family="sans-serif" font-size="13" font-weight="bold" lengthAdjust="spacingAndGlyphs" textLength="21" x="272" y="464.1855">201</text><text fill="#000000" font-family="sans-serif" font-size="13" lengthAdjust="spacingAndGlyphs" textLength="78" x="297" y="464.1855">給假造的地址</text><polygon fill="#A80036" points="48,497.5581,38,501.5581,48,505.5581,44,501.5581" style="stroke: #A80036; stroke-width: 1.0;"/><line style="stroke: #A80036; stroke-width: 1.0;" x1="42" x2="254" y1="501.5581" y2="501.5581"/><text fill="#000000" font-family="sans-serif" font-size="13" font-weight="bold" lengthAdjust="spacingAndGlyphs" textLength="21" x="54" y="496.7017">202</text><text fill="#000000" font-family="sans-serif" font-size="13" lengthAdjust="spacingAndGlyphs" textLength="0" x="83" y="496.7017"/><path d="M47,514.5581 L47,561.5581 L276,561.5581 L276,524.5581 L266,514.5581 L47,514.5581 " fill="#FBFB77" filter="url(#f10j8ng5xpkhdb)" style="stroke: #A80036; stroke-width: 1.0;"/><path d="M266,514.5581 L266,524.5581 L276,524.5581 L266,514.5581 " fill="#FBFB77" style="stroke: #A80036; stroke-width: 1.0;"/><text fill="#000000" font-family="sans-serif" font-size="13" lengthAdjust="spacingAndGlyphs" textLength="208" x="53" y="535.2178">要自保需確認每個查詢都是可信的。</text><text fill="#000000" font-family="sans-serif" font-size="13" lengthAdjust="spacingAndGlyphs" textLength="169" x="53" y="553.7339">一般人在公共場域無法確認。</text><rect fill="#EEEEEE" filter="url(#f10j8ng5xpkhdb)" height="3" style="stroke: #EEEEEE; stroke-width: 1.0;" width="782.5" x="3" y="592.8484"/><line style="stroke: #000000; stroke-width: 1.0;" x1="3" x2="785.5" y1="592.8484" y2="592.8484"/><line style="stroke: #000000; stroke-width: 1.0;" x1="3" x2="785.5" y1="595.8484" y2="595.8484"/><rect fill="#EEEEEE" filter="url(#f10j8ng5xpkhdb)" height="26.5161" style="stroke: #000000; stroke-width: 2.0;" width="187" x="300.75" y="580.5903"/><text fill="#000000" font-family="sans-serif" font-size="13" font-weight="bold" lengthAdjust="spacingAndGlyphs" textLength="169" x="306.75" y="600.25">300 DNS over HTTPS (DoH)</text><polygon fill="#A80036" points="511,656.1387,521,660.1387,511,664.1387,515,660.1387" style="stroke: #A80036; stroke-width: 1.0;"/><line style="stroke: #A80036; stroke-width: 1.0;" x1="37" x2="517" y1="660.1387" y2="660.1387"/><text fill="#000000" font-family="sans-serif" font-size="13" font-weight="bold" lengthAdjust="spacingAndGlyphs" textLength="21" x="44" y="646.0242">301</text><text fill="#000000" font-family="sans-serif" font-size="13" lengthAdjust="spacingAndGlyphs" textLength="107" x="69" y="636.7661">可設定可信的 DoH</text><text fill="#000000" font-family="sans-serif" font-size="13" lengthAdjust="spacingAndGlyphs" textLength="92" x="69" y="655.2822">HTTPS port 443</text><line style="stroke: #A80036; stroke-width: 1.0;" x1="523" x2="565" y1="692.6548" y2="692.6548"/><line style="stroke: #A80036; stroke-width: 1.0;" x1="565" x2="565" y1="692.6548" y2="705.6548"/><line style="stroke: #A80036; stroke-width: 1.0;" x1="524" x2="565" y1="705.6548" y2="705.6548"/><polygon fill="#A80036" points="534,701.6548,524,705.6548,534,709.6548,530,705.6548" style="stroke: #A80036; stroke-width: 1.0;"/><text fill="#000000" font-family="sans-serif" font-size="13" font-weight="bold" lengthAdjust="spacingAndGlyphs" textLength="21" x="530" y="687.7983">302</text><text fill="#000000" font-family="sans-serif" font-size="13" lengthAdjust="spacingAndGlyphs" textLength="26" x="555" y="687.7983">紀錄</text><polygon fill="#A80036" points="48,734.1709,38,738.1709,48,742.1709,44,738.1709" style="stroke: #A80036; stroke-width: 1.0;"/><line style="stroke: #A80036; stroke-width: 1.0;" x1="42" x2="522" y1="738.1709" y2="738.1709"/><text fill="#000000" font-family="sans-serif" font-size="13" font-weight="bold" lengthAdjust="spacingAndGlyphs" textLength="21" x="54" y="733.3145">303</text><text fill="#000000" font-family="sans-serif" font-size="13" lengthAdjust="spacingAndGlyphs" textLength="78" x="79" y="733.3145">可信任的地址</text><path d="M356,751.1709 L356,890.1709 L686,890.1709 L686,761.1709 L676,751.1709 L356,751.1709 " fill="#FBFB77" filter="url(#f10j8ng5xpkhdb)" style="stroke: #A80036; stroke-width: 1.0;"/><path d="M676,751.1709 L676,761.1709 L686,761.1709 L676,751.1709 " fill="#FBFB77" style="stroke: #A80036; stroke-width: 1.0;"/><text fill="#000000" font-family="sans-serif" font-size="13" lengthAdjust="spacingAndGlyphs" textLength="91" x="362" y="771.8306">隱私與內容過濾</text><text fill="#000000" font-family="sans-serif" font-size="13" lengthAdjust="spacingAndGlyphs" textLength="162" x="362" y="790.3467">1. DNS 個人紀錄被移出 ISP</text><text fill="#000000" font-family="sans-serif" font-size="13" lengthAdjust="spacingAndGlyphs" textLength="309" x="362" y="808.8628">2. DNS 紀錄(ISP端與用戶裝置端)的利用、加值、過濾</text><text fill="#000000" font-family="sans-serif" font-size="13" lengthAdjust="spacingAndGlyphs" textLength="162" x="362" y="827.3789">3. DNS 紀錄 ISP端法遵議題</text><text fill="#000000" font-family="sans-serif" font-size="13" lengthAdjust="spacingAndGlyphs" textLength="189" x="362" y="845.895">4. 資料集中化不再分散各個 DNS</text><text fill="#000000" font-family="sans-serif" font-size="13" lengthAdjust="spacingAndGlyphs" textLength="119" x="362" y="864.4111">5. 牽涉不同司法管轄</text><text fill="#000000" font-family="sans-serif" font-size="13" lengthAdjust="spacingAndGlyphs" textLength="139" x="362" y="882.9272">6. 需信任 DoH 不做紀錄</text><rect fill="#EEEEEE" filter="url(#f10j8ng5xpkhdb)" height="3" style="stroke: #EEEEEE; stroke-width: 1.0;" width="782.5" x="3" y="922.0417"/><line style="stroke: #000000; stroke-width: 1.0;" x1="3" x2="785.5" y1="922.0417" y2="922.0417"/><line style="stroke: #000000; stroke-width: 1.0;" x1="3" x2="785.5" y1="925.0417" y2="925.0417"/><rect fill="#EEEEEE" filter="url(#f10j8ng5xpkhdb)" height="26.5161" style="stroke: #000000; stroke-width: 2.0;" width="214" x="287.25" y="909.7837"/><text fill="#000000" font-family="sans-serif" font-size="13" font-weight="bold" lengthAdjust="spacingAndGlyphs" textLength="196" x="293.25" y="929.4434">400 DNS over Blockchain (DoB)</text><polygon fill="#A80036" points="175,966.8159,165,970.8159,175,974.8159,171,970.8159" style="stroke: #A80036; stroke-width: 1.0;"/><polygon fill="#A80036" points="599.5,966.8159,609.5,970.8159,599.5,974.8159,603.5,970.8159" style="stroke: #A80036; stroke-width: 1.0;"/><line style="stroke: #A80036; stroke-width: 1.0;" x1="169" x2="605.5" y1="970.8159" y2="970.8159"/><text fill="#000000" font-family="sans-serif" font-size="13" font-weight="bold" lengthAdjust="spacingAndGlyphs" textLength="21" x="181" y="965.9595">401</text><text fill="#000000" font-family="sans-serif" font-size="13" lengthAdjust="spacingAndGlyphs" textLength="26" x="206" y="965.9595">同步</text><polygon fill="#A80036" points="152,999.332,162,1003.332,152,1007.332,156,1003.332" style="stroke: #A80036; stroke-width: 1.0;"/><line style="stroke: #A80036; stroke-width: 1.0;" x1="37" x2="158" y1="1003.332" y2="1003.332"/><text fill="#000000" font-family="sans-serif" font-size="13" font-weight="bold" lengthAdjust="spacingAndGlyphs" textLength="21" x="44" y="998.4756">402</text><text fill="#000000" font-family="sans-serif" font-size="13" lengthAdjust="spacingAndGlyphs" textLength="78" x="69" y="998.4756">只查自己節點</text><polygon fill="#A80036" points="622.5,1031.8481,612.5,1035.8481,622.5,1039.8481,618.5,1035.8481" style="stroke: #A80036; stroke-width: 1.0;"/><line style="stroke: #A80036; stroke-width: 1.0;" x1="616.5" x2="750.5" y1="1035.8481" y2="1035.8481"/><text fill="#000000" font-family="sans-serif" font-size="13" font-weight="bold" lengthAdjust="spacingAndGlyphs" textLength="21" x="628.5" y="1030.9917">403</text><text fill="#000000" font-family="sans-serif" font-size="13" lengthAdjust="spacingAndGlyphs" textLength="91" x="653.5" y="1030.9917">無紀錄洩漏問題</text><path d="M371,1048.8481 L371,1132.8481 L670,1132.8481 L670,1058.8481 L660,1048.8481 L371,1048.8481 " fill="#FBFB77" filter="url(#f10j8ng5xpkhdb)" style="stroke: #A80036; stroke-width: 1.0;"/><path d="M660,1048.8481 L660,1058.8481 L670,1058.8481 L660,1048.8481 " fill="#FBFB77" style="stroke: #A80036; stroke-width: 1.0;"/><text fill="#000000" font-family="sans-serif" font-size="13" lengthAdjust="spacingAndGlyphs" textLength="83" x="377" y="1069.5078">1. DoB 不普及</text><text fill="#000000" font-family="sans-serif" font-size="13" lengthAdjust="spacingAndGlyphs" textLength="278" x="377" y="1088.0239">2. DoB 節點成本需用客戶在乎隱私動機來支付，</text><text fill="#000000" font-family="sans-serif" font-size="13" lengthAdjust="spacingAndGlyphs" textLength="250" x="389" y="1106.54">否則容易轉成中心化 API 服務架構，回到紀</text><text fill="#000000" font-family="sans-serif" font-size="13" lengthAdjust="spacingAndGlyphs" textLength="218" x="389" y="1125.0562">錄竄改100/200原點，還不如用 DoH。</text><!--
@startuml
skinparam ParticipantPadding 5
skinparam BoxPadding 5
box "Alice Realm" #LightBlue
  actor "Alice\n瀏覽器" as Alice #yellow
  participant "DoB\nAlice" as ADOB #white
end box
box "The kingdom of far far away" #white
  participant "DNS善意\nPort 53" as GDNS #green
  participant "DNS惡意\nPort 53" as BDNS #red
  participant "DoH\nPort 443" as DOH #yellow
end box
box "Bob Realm" #LightCoral
  participant "DoB\nBob" as BDOB #white
  actor "Bob\n瀏覽器" as Bob
end box
== 100 Tracking 追蹤 ==
autonumber 101
Bob -> BDNS : register
Alice -> GDNS : DNS port 53
GDNS -> BDNS
BDNS -> BDNS : tracking 紀錄追蹤
BDNS -> GDNS : 給正確的地址
GDNS -> Alice
== 200  Spoofing 欺騙 ==
autonumber 201
BDNS -> GDNS : 給假造的地址
GDNS -> Alice
note over ADOB
要自保需確認每個查詢都是可信的。
一般人在公共場域無法確認。
end note
== 300 DNS over HTTPS (DoH) ==
autonumber 301
Alice -> DOH : 可設定可信的 DoH\nHTTPS port 443
DOH -> DOH : 紀錄
DOH -> Alice : 可信任的地址
note over DOH
隱私與內容過濾
1. DNS 個人紀錄被移出 ISP
2. DNS 紀錄(ISP端與用戶裝置端)的利用、加值、過濾
3. DNS 紀錄 ISP端法遵議題
4. 資料集中化不再分散各個 DNS
5. 牽涉不同司法管轄
6. 需信任 DoH 不做紀錄
end note
== 400 DNS over Blockchain (DoB) ==
autonumber 401
ADOB <-> BDOB: 同步
Alice -> ADOB: 只查自己節點
Bob -> BDOB: 無紀錄洩漏問題
note over DOH
1. DoB 不普及
2. DoB 節點成本需用客戶在乎隱私動機來支付，
   否則容易轉成中心化 API 服務架構，回到紀
   錄竄改100/200原點，還不如用 DoH。
end note
@enduml

PlantUML version 1.2019.09(Tue Aug 27 00:19:51 CST 2019)
(GPL source distribution)
Java Runtime: Java(TM) SE Runtime Environment
JVM: Java HotSpot(TM) 64-Bit Server VM
Java Version: 1.8.0_221-b11
Operating System: Windows 10
OS Version: 10.0
Default Encoding: MS950
Language: zh
Country: TW
--></g></svg>