<?xml version="1.0" encoding="UTF-8" standalone="no"?><svg xmlns="http://www.w3.org/2000/svg" xmlns:xlink="http://www.w3.org/1999/xlink" contentScriptType="application/ecmascript" contentStyleType="text/css" height="441px" preserveAspectRatio="none" style="width:724px;height:441px;" version="1.1" viewBox="0 0 724 441" width="724px" zoomAndPan="magnify"><defs><filter height="300%" id="f1qlhwsf1wxpru" width="300%" x="-1" y="-1"><feGaussianBlur result="blurOut" stdDeviation="2.0"/><feColorMatrix in="blurOut" result="blurOut2" type="matrix" values="0 0 0 0 0 0 0 0 0 0 0 0 0 0 0 0 0 0 .4 0"/><feOffset dx="4.0" dy="4.0" in="blurOut2" result="blurOut3"/><feBlend in="SourceGraphic" in2="blurOut3" mode="normal"/></filter></defs><g><line style="stroke: #A80036; stroke-width: 1.0; stroke-dasharray: 5.0,5.0;" x1="60" x2="60" y1="45.9404" y2="393.1016"/><line style="stroke: #A80036; stroke-width: 1.0; stroke-dasharray: 5.0,5.0;" x1="159" x2="159" y1="45.9404" y2="393.1016"/><line style="stroke: #A80036; stroke-width: 1.0; stroke-dasharray: 5.0,5.0;" x1="274.5" x2="274.5" y1="45.9404" y2="393.1016"/><line style="stroke: #A80036; stroke-width: 1.0; stroke-dasharray: 5.0,5.0;" x1="390.5" x2="390.5" y1="45.9404" y2="393.1016"/><line style="stroke: #A80036; stroke-width: 1.0; stroke-dasharray: 5.0,5.0;" x1="486.5" x2="486.5" y1="45.9404" y2="393.1016"/><line style="stroke: #A80036; stroke-width: 1.0; stroke-dasharray: 5.0,5.0;" x1="592.5" x2="592.5" y1="45.9404" y2="393.1016"/><line style="stroke: #A80036; stroke-width: 1.0; stroke-dasharray: 5.0,5.0;" x1="677.5" x2="677.5" y1="45.9404" y2="393.1016"/><rect fill="#FFFF00" filter="url(#f1qlhwsf1wxpru)" height="33.9404" style="stroke: #A80036; stroke-width: 1.5;" width="100" x="8" y="7"/><text fill="#000000" font-family="sans-serif" font-size="14" lengthAdjust="spacingAndGlyphs" textLength="86" x="15" y="30.8643">MagentoCorp</text><rect fill="#FFFF00" filter="url(#f1qlhwsf1wxpru)" height="33.9404" style="stroke: #A80036; stroke-width: 1.5;" width="100" x="8" y="392.1016"/><text fill="#000000" font-family="sans-serif" font-size="14" lengthAdjust="spacingAndGlyphs" textLength="86" x="15" y="415.9658">MagentoCorp</text><rect fill="#FEFECE" filter="url(#f1qlhwsf1wxpru)" height="33.9404" style="stroke: #A80036; stroke-width: 1.5;" width="70" x="122" y="7"/><text fill="#000000" font-family="sans-serif" font-size="14" lengthAdjust="spacingAndGlyphs" textLength="56" x="129" y="30.8643">DigiBank</text><rect fill="#FEFECE" filter="url(#f1qlhwsf1wxpru)" height="33.9404" style="stroke: #A80036; stroke-width: 1.5;" width="70" x="122" y="392.1016"/><text fill="#000000" font-family="sans-serif" font-size="14" lengthAdjust="spacingAndGlyphs" textLength="56" x="129" y="415.9658">DigiBank</text><rect fill="#008000" filter="url(#f1qlhwsf1wxpru)" height="33.9404" style="stroke: #A80036; stroke-width: 1.5;" width="73" x="238.5" y="3"/><rect fill="#008000" filter="url(#f1qlhwsf1wxpru)" height="33.9404" style="stroke: #A80036; stroke-width: 1.5;" width="73" x="234.5" y="7"/><text fill="#000000" font-family="sans-serif" font-size="14" lengthAdjust="spacingAndGlyphs" textLength="59" x="241.5" y="30.8643">PaperNet</text><rect fill="#008000" filter="url(#f1qlhwsf1wxpru)" height="33.9404" style="stroke: #A80036; stroke-width: 1.5;" width="73" x="238.5" y="392.1016"/><rect fill="#008000" filter="url(#f1qlhwsf1wxpru)" height="33.9404" style="stroke: #A80036; stroke-width: 1.5;" width="73" x="234.5" y="396.1016"/><text fill="#000000" font-family="sans-serif" font-size="14" lengthAdjust="spacingAndGlyphs" textLength="59" x="241.5" y="419.9658">PaperNet</text><rect fill="#FEFECE" filter="url(#f1qlhwsf1wxpru)" height="33.9404" style="stroke: #A80036; stroke-width: 1.5;" width="67" x="355.5" y="7"/><text fill="#000000" font-family="sans-serif" font-size="14" lengthAdjust="spacingAndGlyphs" textLength="53" x="362.5" y="30.8643">BigFund</text><rect fill="#FEFECE" filter="url(#f1qlhwsf1wxpru)" height="33.9404" style="stroke: #A80036; stroke-width: 1.5;" width="67" x="355.5" y="392.1016"/><text fill="#000000" font-family="sans-serif" font-size="14" lengthAdjust="spacingAndGlyphs" textLength="53" x="362.5" y="415.9658">BigFund</text><rect fill="#FEFECE" filter="url(#f1qlhwsf1wxpru)" height="33.9404" style="stroke: #A80036; stroke-width: 1.5;" width="96" x="436.5" y="7"/><text fill="#000000" font-family="sans-serif" font-size="14" lengthAdjust="spacingAndGlyphs" textLength="82" x="443.5" y="30.8643">BrokerHouse</text><rect fill="#FEFECE" filter="url(#f1qlhwsf1wxpru)" height="33.9404" style="stroke: #A80036; stroke-width: 1.5;" width="96" x="436.5" y="392.1016"/><text fill="#000000" font-family="sans-serif" font-size="14" lengthAdjust="spacingAndGlyphs" textLength="82" x="443.5" y="415.9658">BrokerHouse</text><rect fill="#FEFECE" filter="url(#f1qlhwsf1wxpru)" height="33.9404" style="stroke: #A80036; stroke-width: 1.5;" width="88" x="546.5" y="7"/><text fill="#000000" font-family="sans-serif" font-size="14" lengthAdjust="spacingAndGlyphs" textLength="74" x="553.5" y="30.8643">HedgeMatic</text><rect fill="#FEFECE" filter="url(#f1qlhwsf1wxpru)" height="33.9404" style="stroke: #A80036; stroke-width: 1.5;" width="88" x="546.5" y="392.1016"/><text fill="#000000" font-family="sans-serif" font-size="14" lengthAdjust="spacingAndGlyphs" textLength="74" x="553.5" y="415.9658">HedgeMatic</text><rect fill="#FEFECE" filter="url(#f1qlhwsf1wxpru)" height="33.9404" style="stroke: #A80036; stroke-width: 1.5;" width="55" x="648.5" y="7"/><text fill="#000000" font-family="sans-serif" font-size="14" lengthAdjust="spacingAndGlyphs" textLength="41" x="655.5" y="30.8643">RateM</text><rect fill="#FEFECE" filter="url(#f1qlhwsf1wxpru)" height="33.9404" style="stroke: #A80036; stroke-width: 1.5;" width="55" x="648.5" y="392.1016"/><text fill="#000000" font-family="sans-serif" font-size="14" lengthAdjust="spacingAndGlyphs" textLength="41" x="655.5" y="415.9658">RateM</text><rect fill="#EEEEEE" filter="url(#f1qlhwsf1wxpru)" height="3" style="stroke: #EEEEEE; stroke-width: 1.0;" width="709.5" x="3" y="78.1985"/><line style="stroke: #000000; stroke-width: 1.0;" x1="3" x2="712.5" y1="78.1985" y2="78.1985"/><line style="stroke: #000000; stroke-width: 1.0;" x1="3" x2="712.5" y1="81.1985" y2="81.1985"/><rect fill="#EEEEEE" filter="url(#f1qlhwsf1wxpru)" height="26.5161" style="stroke: #000000; stroke-width: 2.0;" width="277" x="219.25" y="65.9404"/><text fill="#000000" font-family="sans-serif" font-size="13" font-weight="bold" lengthAdjust="spacingAndGlyphs" textLength="259" x="225.25" y="85.6001">100 PaperNet commercial paper network</text><polygon fill="#A80036" points="71,137.2307,61,141.2307,71,145.2307,67,141.2307" style="stroke: #A80036; stroke-width: 1.0;"/><polygon fill="#A80036" points="263,137.2307,273,141.2307,263,145.2307,267,141.2307" style="stroke: #A80036; stroke-width: 1.0;"/><line style="stroke: #A80036; stroke-width: 1.0;" x1="65" x2="269" y1="141.2307" y2="141.2307"/><text fill="#000000" font-family="sans-serif" font-size="13" lengthAdjust="spacingAndGlyphs" textLength="78" x="77" y="136.3743">issue/redeem</text><path d="M280,107.4565 L280,154.4565 L466,154.4565 L466,117.4565 L456,107.4565 L280,107.4565 " fill="#00FFFF" filter="url(#f1qlhwsf1wxpru)" style="stroke: #A80036; stroke-width: 1.0;"/><path d="M456,107.4565 L456,117.4565 L466,117.4565 L456,107.4565 " fill="#00FFFF" style="stroke: #A80036; stroke-width: 1.0;"/><text fill="#000000" font-family="sans-serif" font-size="13" lengthAdjust="spacingAndGlyphs" textLength="144" x="286" y="128.1162">MagentoCorp issues and</text><text fill="#000000" font-family="sans-serif" font-size="13" lengthAdjust="spacingAndGlyphs" textLength="161" x="286" y="146.6323">redeems commercial paper.</text><polygon fill="#A80036" points="170,198.2629,160,202.2629,170,206.2629,166,202.2629" style="stroke: #A80036; stroke-width: 1.0;"/><polygon fill="#A80036" points="263,198.2629,273,202.2629,263,206.2629,267,202.2629" style="stroke: #A80036; stroke-width: 1.0;"/><line style="stroke: #A80036; stroke-width: 1.0;" x1="164" x2="269" y1="202.2629" y2="202.2629"/><text fill="#000000" font-family="sans-serif" font-size="13" lengthAdjust="spacingAndGlyphs" textLength="92" x="176" y="197.4065">buy/sell/redeem</text><path d="M280,168.4888 L280,215.4888 L594,215.4888 L594,178.4888 L584,168.4888 L280,168.4888 " fill="#FBFB77" filter="url(#f1qlhwsf1wxpru)" style="stroke: #A80036; stroke-width: 1.0;"/><path d="M584,168.4888 L584,178.4888 L594,178.4888 L584,168.4888 " fill="#FBFB77" style="stroke: #A80036; stroke-width: 1.0;"/><text fill="#000000" font-family="sans-serif" font-size="13" lengthAdjust="spacingAndGlyphs" textLength="289" x="286" y="189.1484">DigiBank, BigFund, BrokerHouse and HedgeMatic</text><text fill="#000000" font-family="sans-serif" font-size="13" lengthAdjust="spacingAndGlyphs" textLength="249" x="298" y="207.6646">all trade commercial paper with each other.</text><polygon fill="#A80036" points="286,245.0371,276,249.0371,286,253.0371,282,249.0371" style="stroke: #A80036; stroke-width: 1.0;"/><polygon fill="#A80036" points="379,245.0371,389,249.0371,379,253.0371,383,249.0371" style="stroke: #A80036; stroke-width: 1.0;"/><line style="stroke: #A80036; stroke-width: 1.0;" x1="280" x2="385" y1="249.0371" y2="249.0371"/><text fill="#000000" font-family="sans-serif" font-size="13" lengthAdjust="spacingAndGlyphs" textLength="92" x="292" y="244.1807">buy/sell/redeem</text><polygon fill="#A80036" points="286,277.5532,276,281.5532,286,285.5532,282,281.5532" style="stroke: #A80036; stroke-width: 1.0;"/><polygon fill="#A80036" points="474.5,277.5532,484.5,281.5532,474.5,285.5532,478.5,281.5532" style="stroke: #A80036; stroke-width: 1.0;"/><line style="stroke: #A80036; stroke-width: 1.0;" x1="280" x2="480.5" y1="281.5532" y2="281.5532"/><text fill="#000000" font-family="sans-serif" font-size="13" lengthAdjust="spacingAndGlyphs" textLength="92" x="292" y="276.6968">buy/sell/redeem</text><polygon fill="#A80036" points="286,310.0693,276,314.0693,286,318.0693,282,314.0693" style="stroke: #A80036; stroke-width: 1.0;"/><polygon fill="#A80036" points="580.5,310.0693,590.5,314.0693,580.5,318.0693,584.5,314.0693" style="stroke: #A80036; stroke-width: 1.0;"/><line style="stroke: #A80036; stroke-width: 1.0;" x1="280" x2="586.5" y1="314.0693" y2="314.0693"/><text fill="#000000" font-family="sans-serif" font-size="13" lengthAdjust="spacingAndGlyphs" textLength="92" x="292" y="309.2129">buy/sell/redeem</text><polygon fill="#A80036" points="286,356.8435,276,360.8435,286,364.8435,282,360.8435" style="stroke: #A80036; stroke-width: 1.0;"/><polygon fill="#A80036" points="666,356.8435,676,360.8435,666,364.8435,670,360.8435" style="stroke: #A80036; stroke-width: 1.0;"/><line style="stroke: #A80036; stroke-width: 1.0;" x1="280" x2="672" y1="360.8435" y2="360.8435"/><text fill="#000000" font-family="sans-serif" font-size="13" lengthAdjust="spacingAndGlyphs" textLength="57" x="292" y="355.9871">rate/notify</text><path d="M8,327.0693 L8,374.0693 L266,374.0693 L266,337.0693 L256,327.0693 L8,327.0693 " fill="#FF0000" filter="url(#f1qlhwsf1wxpru)" style="stroke: #A80036; stroke-width: 1.0;"/><path d="M256,327.0693 L256,337.0693 L266,337.0693 L256,327.0693 " fill="#FF0000" style="stroke: #A80036; stroke-width: 1.0;"/><text fill="#000000" font-family="sans-serif" font-size="13" lengthAdjust="spacingAndGlyphs" textLength="233" x="14" y="347.729">RateM provides various measures of risk</text><text fill="#000000" font-family="sans-serif" font-size="13" lengthAdjust="spacingAndGlyphs" textLength="125" x="26" y="366.2451">for commercial paper.</text><!--
@startuml

participant MagentoCorp #yellow
participant DigiBank
collections PaperNet #green
participant BigFund
participant BrokerHouse
participant HedgeMatic
participant RateM

== 100 PaperNet commercial paper network ==
MagentoCorp <-> PaperNet: issue/redeem
note right #aqua
  MagentoCorp issues and 
  redeems commercial paper. 
end note
DigiBank <-> PaperNet: buy/sell/redeem
note right
	DigiBank, BigFund, BrokerHouse and HedgeMatic 
    all trade commercial paper with each other. 
end note
BigFund <-> PaperNet: buy/sell/redeem
BrokerHouse <-> PaperNet: buy/sell/redeem
HedgeMatic <-> PaperNet: buy/sell/redeem
RateM <-> PaperNet: rate/notify
note left #red
	RateM provides various measures of risk 
    for commercial paper.
end note
@enduml

PlantUML version 1.2019.09(Tue Aug 27 00:19:51 CST 2019)
(GPL source distribution)
Java Runtime: Java(TM) SE Runtime Environment
JVM: Java HotSpot(TM) 64-Bit Server VM
Java Version: 1.8.0_221-b11
Operating System: Windows 10
OS Version: 10.0
Default Encoding: MS950
Language: zh
Country: TW
--></g></svg>