<?xml version="1.0" encoding="UTF-8" standalone="no"?><svg xmlns="http://www.w3.org/2000/svg" xmlns:xlink="http://www.w3.org/1999/xlink" contentScriptType="application/ecmascript" contentStyleType="text/css" height="598px" preserveAspectRatio="none" style="width:537px;height:598px;" version="1.1" viewBox="0 0 537 598" width="537px" zoomAndPan="magnify"><defs><filter height="300%" id="f1ov8tkwytsjng" width="300%" x="-1" y="-1"><feGaussianBlur result="blurOut" stdDeviation="2.0"/><feColorMatrix in="blurOut" result="blurOut2" type="matrix" values="0 0 0 0 0 0 0 0 0 0 0 0 0 0 0 0 0 0 .4 0"/><feOffset dx="4.0" dy="4.0" in="blurOut2" result="blurOut3"/><feBlend in="SourceGraphic" in2="blurOut3" mode="normal"/></filter></defs><g><rect fill="#FF0000" height="583.9824" style="stroke: #A80036; stroke-width: 1.0;" width="114" x="81" y="4"/><text fill="#000000" font-family="sans-serif" font-size="13" font-weight="bold" lengthAdjust="spacingAndGlyphs" textLength="56" x="110" y="19.6597">三級會議</text><rect fill="#0000FF" height="583.9824" style="stroke: #A80036; stroke-width: 1.0;" width="132" x="279" y="4"/><text fill="#000000" font-family="sans-serif" font-size="13" font-weight="bold" lengthAdjust="spacingAndGlyphs" textLength="56" x="317" y="19.6597">國民議會</text><text fill="#000000" font-family="sans-serif" font-size="13" font-weight="bold" lengthAdjust="spacingAndGlyphs" textLength="70" x="310" y="38.1758">室內網球場</text><line style="stroke: #A80036; stroke-width: 1.0; stroke-dasharray: 5.0,5.0;" x1="39" x2="39" y1="131.9727" y2="478.1016"/><line style="stroke: #A80036; stroke-width: 1.0; stroke-dasharray: 5.0,5.0;" x1="109" x2="109" y1="131.9727" y2="478.1016"/><line style="stroke: #A80036; stroke-width: 1.0; stroke-dasharray: 5.0,5.0;" x1="167" x2="167" y1="131.9727" y2="478.1016"/><line style="stroke: #A80036; stroke-width: 1.0; stroke-dasharray: 5.0,5.0;" x1="237" x2="237" y1="131.9727" y2="478.1016"/><line style="stroke: #A80036; stroke-width: 1.0; stroke-dasharray: 5.0,5.0;" x1="307" x2="307" y1="131.9727" y2="478.1016"/><line style="stroke: #A80036; stroke-width: 1.0; stroke-dasharray: 5.0,5.0;" x1="383" x2="383" y1="131.9727" y2="478.1016"/><line style="stroke: #A80036; stroke-width: 1.0; stroke-dasharray: 5.0,5.0;" x1="471" x2="471" y1="131.9727" y2="478.1016"/><text fill="#000000" font-family="sans-serif" font-size="14" lengthAdjust="spacingAndGlyphs" textLength="56" x="8" y="108.9561">法國國王</text><text fill="#000000" font-family="sans-serif" font-size="14" lengthAdjust="spacingAndGlyphs" textLength="56" x="8" y="128.8965">路易十六</text><ellipse cx="39" cy="35.0918" fill="#FFFF00" filter="url(#f1ov8tkwytsjng)" rx="8" ry="8" style="stroke: #A80036; stroke-width: 2.0;"/><path d="M39,43.0918 L39,70.0918 M26,51.0918 L52,51.0918 M39,70.0918 L26,85.0918 M39,70.0918 L52,85.0918 " fill="none" filter="url(#f1ov8tkwytsjng)" style="stroke: #A80036; stroke-width: 2.0;"/><text fill="#000000" font-family="sans-serif" font-size="14" lengthAdjust="spacingAndGlyphs" textLength="56" x="8" y="493.9658">法國國王</text><text fill="#000000" font-family="sans-serif" font-size="14" lengthAdjust="spacingAndGlyphs" textLength="56" x="8" y="513.9063">路易十六</text><ellipse cx="39" cy="526.9824" fill="#FFFF00" filter="url(#f1ov8tkwytsjng)" rx="8" ry="8" style="stroke: #A80036; stroke-width: 2.0;"/><path d="M39,534.9824 L39,561.9824 M26,542.9824 L52,542.9824 M39,561.9824 L26,576.9824 M39,561.9824 L52,576.9824 " fill="none" filter="url(#f1ov8tkwytsjng)" style="stroke: #A80036; stroke-width: 2.0;"/><text fill="#000000" font-family="sans-serif" font-size="14" lengthAdjust="spacingAndGlyphs" textLength="42" x="85" y="128.8965">代表甲</text><ellipse cx="109" cy="55.0322" fill="#FEFECE" filter="url(#f1ov8tkwytsjng)" rx="8" ry="8" style="stroke: #A80036; stroke-width: 2.0;"/><path d="M109,63.0322 L109,90.0322 M96,71.0322 L122,71.0322 M109,90.0322 L96,105.0322 M109,90.0322 L122,105.0322 " fill="none" filter="url(#f1ov8tkwytsjng)" style="stroke: #A80036; stroke-width: 2.0;"/><text fill="#000000" font-family="sans-serif" font-size="14" lengthAdjust="spacingAndGlyphs" textLength="42" x="85" y="493.9658">代表甲</text><ellipse cx="109" cy="507.042" fill="#FEFECE" filter="url(#f1ov8tkwytsjng)" rx="8" ry="8" style="stroke: #A80036; stroke-width: 2.0;"/><path d="M109,515.042 L109,542.042 M96,523.042 L122,523.042 M109,542.042 L96,557.042 M109,542.042 L122,557.042 " fill="none" filter="url(#f1ov8tkwytsjng)" style="stroke: #A80036; stroke-width: 2.0;"/><text fill="#000000" font-family="sans-serif" font-size="14" lengthAdjust="spacingAndGlyphs" textLength="42" x="143" y="128.8965">代表乙</text><ellipse cx="167" cy="55.0322" fill="#FEFECE" filter="url(#f1ov8tkwytsjng)" rx="8" ry="8" style="stroke: #A80036; stroke-width: 2.0;"/><path d="M167,63.0322 L167,90.0322 M154,71.0322 L180,71.0322 M167,90.0322 L154,105.0322 M167,90.0322 L180,105.0322 " fill="none" filter="url(#f1ov8tkwytsjng)" style="stroke: #A80036; stroke-width: 2.0;"/><text fill="#000000" font-family="sans-serif" font-size="14" lengthAdjust="spacingAndGlyphs" textLength="42" x="143" y="493.9658">代表乙</text><ellipse cx="167" cy="507.042" fill="#FEFECE" filter="url(#f1ov8tkwytsjng)" rx="8" ry="8" style="stroke: #A80036; stroke-width: 2.0;"/><path d="M167,515.042 L167,542.042 M154,523.042 L180,523.042 M167,542.042 L154,557.042 M167,542.042 L180,557.042 " fill="none" filter="url(#f1ov8tkwytsjng)" style="stroke: #A80036; stroke-width: 2.0;"/><text fill="#000000" font-family="sans-serif" font-size="14" lengthAdjust="spacingAndGlyphs" textLength="56" x="206" y="128.8965">議會大樓</text><path d="M219,76.0322 C219,66.0322 237,66.0322 237,66.0322 C237,66.0322 255,66.0322 255,76.0322 L255,102.0322 C255,112.0322 237,112.0322 237,112.0322 C237,112.0322 219,112.0322 219,102.0322 L219,76.0322 " fill="#FEFECE" filter="url(#f1ov8tkwytsjng)" style="stroke: #000000; stroke-width: 1.5;"/><path d="M219,76.0322 C219,86.0322 237,86.0322 237,86.0322 C237,86.0322 255,86.0322 255,76.0322 " fill="none" style="stroke: #000000; stroke-width: 1.5;"/><text fill="#000000" font-family="sans-serif" font-size="14" lengthAdjust="spacingAndGlyphs" textLength="56" x="206" y="493.9658">議會大樓</text><path d="M219,507.042 C219,497.042 237,497.042 237,497.042 C237,497.042 255,497.042 255,507.042 L255,533.042 C255,543.042 237,543.042 237,543.042 C237,543.042 219,543.042 219,533.042 L219,507.042 " fill="#FEFECE" filter="url(#f1ov8tkwytsjng)" style="stroke: #000000; stroke-width: 1.5;"/><path d="M219,507.042 C219,517.042 237,517.042 237,517.042 C237,517.042 255,517.042 255,507.042 " fill="none" style="stroke: #000000; stroke-width: 1.5;"/><text fill="#000000" font-family="sans-serif" font-size="14" lengthAdjust="spacingAndGlyphs" textLength="42" x="283" y="128.8965">代表丙</text><ellipse cx="307" cy="55.0322" fill="#FEFECE" filter="url(#f1ov8tkwytsjng)" rx="8" ry="8" style="stroke: #A80036; stroke-width: 2.0;"/><path d="M307,63.0322 L307,90.0322 M294,71.0322 L320,71.0322 M307,90.0322 L294,105.0322 M307,90.0322 L320,105.0322 " fill="none" filter="url(#f1ov8tkwytsjng)" style="stroke: #A80036; stroke-width: 2.0;"/><text fill="#000000" font-family="sans-serif" font-size="14" lengthAdjust="spacingAndGlyphs" textLength="42" x="283" y="493.9658">代表丙</text><ellipse cx="307" cy="507.042" fill="#FEFECE" filter="url(#f1ov8tkwytsjng)" rx="8" ry="8" style="stroke: #A80036; stroke-width: 2.0;"/><path d="M307,515.042 L307,542.042 M294,523.042 L320,523.042 M307,542.042 L294,557.042 M307,542.042 L320,557.042 " fill="none" filter="url(#f1ov8tkwytsjng)" style="stroke: #A80036; stroke-width: 2.0;"/><text fill="#000000" font-family="sans-serif" font-size="14" lengthAdjust="spacingAndGlyphs" textLength="42" x="359" y="128.8965">代表丁</text><ellipse cx="383" cy="55.0322" fill="#FEFECE" filter="url(#f1ov8tkwytsjng)" rx="8" ry="8" style="stroke: #A80036; stroke-width: 2.0;"/><path d="M383,63.0322 L383,90.0322 M370,71.0322 L396,71.0322 M383,90.0322 L370,105.0322 M383,90.0322 L396,105.0322 " fill="none" filter="url(#f1ov8tkwytsjng)" style="stroke: #A80036; stroke-width: 2.0;"/><text fill="#000000" font-family="sans-serif" font-size="14" lengthAdjust="spacingAndGlyphs" textLength="42" x="359" y="493.9658">代表丁</text><ellipse cx="383" cy="507.042" fill="#FEFECE" filter="url(#f1ov8tkwytsjng)" rx="8" ry="8" style="stroke: #A80036; stroke-width: 2.0;"/><path d="M383,515.042 L383,542.042 M370,523.042 L396,523.042 M383,542.042 L370,557.042 M383,542.042 L396,557.042 " fill="none" filter="url(#f1ov8tkwytsjng)" style="stroke: #A80036; stroke-width: 2.0;"/><rect fill="#FEFECE" filter="url(#f1ov8tkwytsjng)" height="33.9404" style="stroke: #A80036; stroke-width: 1.5;" width="84" x="427" y="93.0322"/><text fill="#000000" font-family="sans-serif" font-size="14" lengthAdjust="spacingAndGlyphs" textLength="70" x="434" y="116.8965">巴士底監獄</text><rect fill="#FEFECE" filter="url(#f1ov8tkwytsjng)" height="33.9404" style="stroke: #A80036; stroke-width: 1.5;" width="84" x="427" y="477.1016"/><text fill="#000000" font-family="sans-serif" font-size="14" lengthAdjust="spacingAndGlyphs" textLength="70" x="434" y="500.9658">巴士底監獄</text><rect fill="#EEEEEE" filter="url(#f1ov8tkwytsjng)" height="3" style="stroke: #EEEEEE; stroke-width: 1.0;" width="522" x="3" y="164.2307"/><line style="stroke: #000000; stroke-width: 1.0;" x1="3" x2="525" y1="164.2307" y2="164.2307"/><line style="stroke: #000000; stroke-width: 1.0;" x1="3" x2="525" y1="167.2307" y2="167.2307"/><rect fill="#EEEEEE" filter="url(#f1ov8tkwytsjng)" height="26.5161" style="stroke: #000000; stroke-width: 2.0;" width="74" x="227" y="151.9727"/><text fill="#000000" font-family="sans-serif" font-size="13" font-weight="bold" lengthAdjust="spacingAndGlyphs" textLength="56" x="233" y="171.6323">三級會議</text><polygon fill="#A80036" points="120,209.0049,110,213.0049,120,217.0049,116,213.0049" style="stroke: #A80036; stroke-width: 1.0;"/><polygon fill="#A80036" points="155,209.0049,165,213.0049,155,217.0049,159,213.0049" style="stroke: #A80036; stroke-width: 1.0;"/><line style="stroke: #A80036; stroke-width: 1.0;" x1="114" x2="161" y1="213.0049" y2="213.0049"/><text fill="#000000" font-family="sans-serif" font-size="13" lengthAdjust="spacingAndGlyphs" textLength="26" x="126" y="208.1484">衝突</text><polygon fill="#A80036" points="225,241.521,235,245.521,225,249.521,229,245.521" style="stroke: #A80036; stroke-width: 1.0;"/><line style="stroke: #A80036; stroke-width: 1.0;" x1="39" x2="231" y1="245.521" y2="245.521"/><text fill="#000000" font-family="sans-serif" font-size="13" lengthAdjust="spacingAndGlyphs" textLength="52" x="46" y="240.6646">整修關閉</text><rect fill="#EEEEEE" filter="url(#f1ov8tkwytsjng)" height="3" style="stroke: #EEEEEE; stroke-width: 1.0;" width="522" x="3" y="275.7791"/><line style="stroke: #000000; stroke-width: 1.0;" x1="3" x2="525" y1="275.7791" y2="275.7791"/><line style="stroke: #000000; stroke-width: 1.0;" x1="3" x2="525" y1="278.7791" y2="278.7791"/><rect fill="#EEEEEE" filter="url(#f1ov8tkwytsjng)" height="26.5161" style="stroke: #000000; stroke-width: 2.0;" width="88" x="220" y="263.521"/><text fill="#000000" font-family="sans-serif" font-size="13" font-weight="bold" lengthAdjust="spacingAndGlyphs" textLength="70" x="226" y="283.1807">附近網球場</text><polygon fill="#A80036" points="295,320.5532,305,324.5532,295,328.5532,299,324.5532" style="stroke: #A80036; stroke-width: 1.0;"/><line style="stroke: #A80036; stroke-width: 1.0;" x1="167" x2="301" y1="324.5532" y2="324.5532"/><text fill="#000000" font-family="sans-serif" font-size="13" lengthAdjust="spacingAndGlyphs" textLength="39" x="174" y="319.6968">換地方</text><polygon fill="#A80036" points="318,358.0693,308,362.0693,318,366.0693,314,362.0693" style="stroke: #A80036; stroke-width: 1.0;"/><polygon fill="#A80036" points="371,358.0693,381,362.0693,371,366.0693,375,362.0693" style="stroke: #A80036; stroke-width: 1.0;"/><line style="stroke: #A80036; stroke-width: 1.0;" x1="312" x2="377" y1="362.0693" y2="362.0693"/><text fill="#000000" font-family="sans-serif" font-size="13" lengthAdjust="spacingAndGlyphs" textLength="52" x="324" y="357.2129">繼續衝突</text><path d="M388,337.5532 L388,365.5532 L474,365.5532 L474,347.5532 L464,337.5532 L388,337.5532 " fill="#FBFB77" filter="url(#f1ov8tkwytsjng)" style="stroke: #A80036; stroke-width: 1.0;"/><path d="M464,337.5532 L464,347.5532 L474,347.5532 L464,337.5532 " fill="#FBFB77" style="stroke: #A80036; stroke-width: 1.0;"/><text fill="#000000" font-family="sans-serif" font-size="13" lengthAdjust="spacingAndGlyphs" textLength="65" x="394" y="358.2129">網球場宣言</text><polygon fill="#A80036" points="459,377.0693,469,381.0693,459,385.0693,463,381.0693" style="stroke: #A80036; stroke-width: 1.0;"/><line style="stroke: #A80036; stroke-width: 1.0;" x1="383" x2="465" y1="381.0693" y2="381.0693"/><rect fill="#EEEEEE" filter="url(#f1ov8tkwytsjng)" height="3" style="stroke: #EEEEEE; stroke-width: 1.0;" width="522" x="3" y="411.3274"/><line style="stroke: #000000; stroke-width: 1.0;" x1="3" x2="525" y1="411.3274" y2="411.3274"/><line style="stroke: #000000; stroke-width: 1.0;" x1="3" x2="525" y1="414.3274" y2="414.3274"/><rect fill="#EEEEEE" filter="url(#f1ov8tkwytsjng)" height="26.5161" style="stroke: #000000; stroke-width: 2.0;" width="88" x="220" y="399.0693"/><text fill="#000000" font-family="sans-serif" font-size="13" font-weight="bold" lengthAdjust="spacingAndGlyphs" textLength="70" x="226" y="418.729">法國大革命</text><polygon fill="#A80036" points="50,456.1016,40,460.1016,50,464.1016,46,460.1016" style="stroke: #A80036; stroke-width: 1.0;"/><line style="stroke: #A80036; stroke-width: 1.0; stroke-dasharray: 2.0,2.0;" x1="44" x2="470" y1="460.1016" y2="460.1016"/><text fill="#000000" font-family="sans-serif" font-size="13" lengthAdjust="spacingAndGlyphs" textLength="169" x="56" y="455.2451">三年後法蘭西第一共和國成立</text><!--
@startuml
skinparam ParticipantPadding 5
skinparam BoxPadding 5

actor "法國國王\n路易十六" as King #Yellow

box "三級會議" #Red
	actor "代表甲" as A
	actor "代表乙" as B
end box

database "議會大樓" as BUILDING

box "國民議會\n室內網球場" #Blue
	actor "代表丙" as C
	actor "代表丁" as D
end box

participant "巴士底監獄" as Bastille

== 三級會議 ==
A <-> B : 衝突
King -> BUILDING: 整修關閉
== 附近網球場 ==
B -> C : 換地方
C <-> D : 繼續衝突
note right: 網球場宣言
D -> Bastille
== 法國大革命 ==
Bastille - -> King : 三年後法蘭西第一共和國成立
@enduml

PlantUML version 1.2019.09(Tue Aug 27 00:19:51 CST 2019)
(GPL source distribution)
Java Runtime: Java(TM) SE Runtime Environment
JVM: Java HotSpot(TM) 64-Bit Server VM
Java Version: 1.8.0_221-b11
Operating System: Windows 10
OS Version: 10.0
Default Encoding: MS950
Language: zh
Country: TW
--></g></svg>