<?xml version="1.0" encoding="UTF-8" standalone="no"?><svg xmlns="http://www.w3.org/2000/svg" xmlns:xlink="http://www.w3.org/1999/xlink" contentScriptType="application/ecmascript" contentStyleType="text/css" height="594px" preserveAspectRatio="none" style="width:648px;height:594px;" version="1.1" viewBox="0 0 648 594" width="648px" zoomAndPan="magnify"><defs><filter height="300%" id="f1l0v8oc4inhqo" width="300%" x="-1" y="-1"><feGaussianBlur result="blurOut" stdDeviation="2.0"/><feColorMatrix in="blurOut" result="blurOut2" type="matrix" values="0 0 0 0 0 0 0 0 0 0 0 0 0 0 0 0 0 0 .4 0"/><feOffset dx="4.0" dy="4.0" in="blurOut2" result="blurOut3"/><feBlend in="SourceGraphic" in2="blurOut3" mode="normal"/></filter></defs><g><line style="stroke: #A80036; stroke-width: 1.0; stroke-dasharray: 5.0,5.0;" x1="32" x2="32" y1="109.8809" y2="483.5581"/><line style="stroke: #A80036; stroke-width: 1.0; stroke-dasharray: 5.0,5.0;" x1="213.5" x2="213.5" y1="109.8809" y2="483.5581"/><line style="stroke: #A80036; stroke-width: 1.0; stroke-dasharray: 5.0,5.0;" x1="372" x2="372" y1="109.8809" y2="483.5581"/><line style="stroke: #A80036; stroke-width: 1.0; stroke-dasharray: 5.0,5.0;" x1="493" x2="493" y1="109.8809" y2="483.5581"/><line style="stroke: #A80036; stroke-width: 1.0; stroke-dasharray: 5.0,5.0;" x1="607" x2="607" y1="109.8809" y2="483.5581"/><text fill="#000000" font-family="sans-serif" font-size="14" lengthAdjust="spacingAndGlyphs" textLength="42" x="8" y="86.8643">消費者</text><text fill="#000000" font-family="sans-serif" font-size="14" lengthAdjust="spacingAndGlyphs" textLength="30" x="14" y="106.8047">Alice</text><ellipse cx="32" cy="13" fill="#FF0000" filter="url(#f1l0v8oc4inhqo)" rx="8" ry="8" style="stroke: #A80036; stroke-width: 2.0;"/><path d="M32,21 L32,48 M19,29 L45,29 M32,48 L19,63 M32,48 L45,63 " fill="none" filter="url(#f1l0v8oc4inhqo)" style="stroke: #A80036; stroke-width: 2.0;"/><text fill="#000000" font-family="sans-serif" font-size="14" lengthAdjust="spacingAndGlyphs" textLength="42" x="8" y="499.4224">消費者</text><text fill="#000000" font-family="sans-serif" font-size="14" lengthAdjust="spacingAndGlyphs" textLength="30" x="14" y="519.3628">Alice</text><ellipse cx="32" cy="532.439" fill="#FF0000" filter="url(#f1l0v8oc4inhqo)" rx="8" ry="8" style="stroke: #A80036; stroke-width: 2.0;"/><path d="M32,540.439 L32,567.439 M19,548.439 L45,548.439 M32,567.439 L19,582.439 M32,567.439 L45,582.439 " fill="none" filter="url(#f1l0v8oc4inhqo)" style="stroke: #A80036; stroke-width: 2.0;"/><rect fill="#FEFECE" filter="url(#f1l0v8oc4inhqo)" height="53.8809" style="stroke: #A80036; stroke-width: 1.5;" width="65" x="179.5" y="51"/><text fill="#000000" font-family="sans-serif" font-size="14" lengthAdjust="spacingAndGlyphs" textLength="42" x="191" y="74.8643">瀏覽器</text><text fill="#000000" font-family="sans-serif" font-size="14" lengthAdjust="spacingAndGlyphs" textLength="51" x="186.5" y="94.8047">Browser</text><rect fill="#FEFECE" filter="url(#f1l0v8oc4inhqo)" height="53.8809" style="stroke: #A80036; stroke-width: 1.5;" width="65" x="179.5" y="482.5581"/><text fill="#000000" font-family="sans-serif" font-size="14" lengthAdjust="spacingAndGlyphs" textLength="42" x="191" y="506.4224">瀏覽器</text><text fill="#000000" font-family="sans-serif" font-size="14" lengthAdjust="spacingAndGlyphs" textLength="51" x="186.5" y="526.3628">Browser</text><rect fill="#FEFECE" filter="url(#f1l0v8oc4inhqo)" height="53.8809" style="stroke: #A80036; stroke-width: 1.5;" width="140" x="302" y="47"/><rect fill="#FEFECE" filter="url(#f1l0v8oc4inhqo)" height="53.8809" style="stroke: #A80036; stroke-width: 1.5;" width="140" x="298" y="51"/><text fill="#000000" font-family="sans-serif" font-size="14" lengthAdjust="spacingAndGlyphs" textLength="126" x="305" y="74.8643">超文本傳輸協定服務</text><text fill="#000000" font-family="sans-serif" font-size="14" lengthAdjust="spacingAndGlyphs" textLength="46" x="345" y="94.8047">HTTPD</text><rect fill="#FEFECE" filter="url(#f1l0v8oc4inhqo)" height="53.8809" style="stroke: #A80036; stroke-width: 1.5;" width="140" x="302" y="482.5581"/><rect fill="#FEFECE" filter="url(#f1l0v8oc4inhqo)" height="53.8809" style="stroke: #A80036; stroke-width: 1.5;" width="140" x="298" y="486.5581"/><text fill="#000000" font-family="sans-serif" font-size="14" lengthAdjust="spacingAndGlyphs" textLength="126" x="305" y="510.4224">超文本傳輸協定服務</text><text fill="#000000" font-family="sans-serif" font-size="14" lengthAdjust="spacingAndGlyphs" textLength="46" x="345" y="530.3628">HTTPD</text><rect fill="#FEFECE" filter="url(#f1l0v8oc4inhqo)" height="53.8809" style="stroke: #A80036; stroke-width: 1.5;" width="70" x="456" y="51"/><text fill="#000000" font-family="sans-serif" font-size="14" lengthAdjust="spacingAndGlyphs" textLength="56" x="463" y="74.8643">那個平台</text><text fill="#000000" font-family="sans-serif" font-size="14" lengthAdjust="spacingAndGlyphs" textLength="28" x="477" y="94.8047">SRV</text><rect fill="#FEFECE" filter="url(#f1l0v8oc4inhqo)" height="53.8809" style="stroke: #A80036; stroke-width: 1.5;" width="70" x="456" y="482.5581"/><text fill="#000000" font-family="sans-serif" font-size="14" lengthAdjust="spacingAndGlyphs" textLength="56" x="463" y="506.4224">那個平台</text><text fill="#000000" font-family="sans-serif" font-size="14" lengthAdjust="spacingAndGlyphs" textLength="28" x="477" y="526.3628">SRV</text><text fill="#000000" font-family="sans-serif" font-size="14" lengthAdjust="spacingAndGlyphs" textLength="42" x="583" y="86.8643">生產者</text><text fill="#000000" font-family="sans-serif" font-size="14" lengthAdjust="spacingAndGlyphs" textLength="25" x="591.5" y="106.8047">Bob</text><ellipse cx="607" cy="13" fill="#FFFF00" filter="url(#f1l0v8oc4inhqo)" rx="8" ry="8" style="stroke: #A80036; stroke-width: 2.0;"/><path d="M607,21 L607,48 M594,29 L620,29 M607,48 L594,63 M607,48 L620,63 " fill="none" filter="url(#f1l0v8oc4inhqo)" style="stroke: #A80036; stroke-width: 2.0;"/><text fill="#000000" font-family="sans-serif" font-size="14" lengthAdjust="spacingAndGlyphs" textLength="42" x="583" y="499.4224">生產者</text><text fill="#000000" font-family="sans-serif" font-size="14" lengthAdjust="spacingAndGlyphs" textLength="25" x="591.5" y="519.3628">Bob</text><ellipse cx="607" cy="532.439" fill="#FFFF00" filter="url(#f1l0v8oc4inhqo)" rx="8" ry="8" style="stroke: #A80036; stroke-width: 2.0;"/><path d="M607,540.439 L607,567.439 M594,548.439 L620,548.439 M607,567.439 L594,582.439 M607,567.439 L620,582.439 " fill="none" filter="url(#f1l0v8oc4inhqo)" style="stroke: #A80036; stroke-width: 2.0;"/><rect fill="#EEEEEE" filter="url(#f1l0v8oc4inhqo)" height="3" style="stroke: #EEEEEE; stroke-width: 1.0;" width="633" x="3" y="142.1389"/><line style="stroke: #000000; stroke-width: 1.0;" x1="3" x2="636" y1="142.1389" y2="142.1389"/><line style="stroke: #000000; stroke-width: 1.0;" x1="3" x2="636" y1="145.1389" y2="145.1389"/><rect fill="#EEEEEE" filter="url(#f1l0v8oc4inhqo)" height="26.5161" style="stroke: #000000; stroke-width: 2.0;" width="97" x="271" y="129.8809"/><text fill="#000000" font-family="sans-serif" font-size="13" font-weight="bold" lengthAdjust="spacingAndGlyphs" textLength="79" x="277" y="149.5405">100 寫 HTML</text><polygon fill="#A80036" points="504,186.9131,494,190.9131,504,194.9131,500,190.9131" style="stroke: #A80036; stroke-width: 1.0;"/><line style="stroke: #A80036; stroke-width: 1.0;" x1="498" x2="606" y1="190.9131" y2="190.9131"/><text fill="#000000" font-family="sans-serif" font-size="13" font-weight="bold" lengthAdjust="spacingAndGlyphs" textLength="21" x="510" y="186.0566">101</text><text fill="#000000" font-family="sans-serif" font-size="13" lengthAdjust="spacingAndGlyphs" textLength="65" x="535" y="186.0566">註冊或架設</text><polygon fill="#A80036" points="383,233.6873,373,237.6873,383,241.6873,379,237.6873" style="stroke: #A80036; stroke-width: 1.0;"/><line style="stroke: #A80036; stroke-width: 1.0;" x1="377" x2="606" y1="237.6873" y2="237.6873"/><text fill="#000000" font-family="sans-serif" font-size="13" font-weight="bold" lengthAdjust="spacingAndGlyphs" textLength="21" x="389" y="232.8308">102</text><text fill="#000000" font-family="sans-serif" font-size="13" lengthAdjust="spacingAndGlyphs" textLength="103" x="414" y="232.8308">上傳或產生 HTML</text><path d="M160,203.9131 L160,250.9131 L363,250.9131 L363,213.9131 L353,203.9131 L160,203.9131 " fill="#FBFB77" filter="url(#f1l0v8oc4inhqo)" style="stroke: #A80036; stroke-width: 1.0;"/><path d="M353,203.9131 L353,213.9131 L363,213.9131 L353,203.9131 " fill="#FBFB77" style="stroke: #A80036; stroke-width: 1.0;"/><text fill="#000000" font-family="sans-serif" font-size="13" lengthAdjust="spacingAndGlyphs" textLength="182" x="166" y="224.5728">文字創作、圖片、歌曲、影片、</text><text fill="#000000" font-family="sans-serif" font-size="13" lengthAdjust="spacingAndGlyphs" textLength="156" x="166" y="243.0889">人際關係、個資、身分識別</text><rect fill="#EEEEEE" filter="url(#f1l0v8oc4inhqo)" height="3" style="stroke: #EEEEEE; stroke-width: 1.0;" width="633" x="3" y="282.2034"/><line style="stroke: #000000; stroke-width: 1.0;" x1="3" x2="636" y1="282.2034" y2="282.2034"/><line style="stroke: #000000; stroke-width: 1.0;" x1="3" x2="636" y1="285.2034" y2="285.2034"/><rect fill="#EEEEEE" filter="url(#f1l0v8oc4inhqo)" height="26.5161" style="stroke: #000000; stroke-width: 2.0;" width="109" x="265" y="269.9453"/><text fill="#000000" font-family="sans-serif" font-size="13" font-weight="bold" lengthAdjust="spacingAndGlyphs" textLength="91" x="271" y="289.605">200 HTTP 協定</text><polygon fill="#A80036" points="202,326.9775,212,330.9775,202,334.9775,206,330.9775" style="stroke: #A80036; stroke-width: 1.0;"/><line style="stroke: #A80036; stroke-width: 1.0;" x1="32" x2="208" y1="330.9775" y2="330.9775"/><text fill="#000000" font-family="sans-serif" font-size="13" font-weight="bold" lengthAdjust="spacingAndGlyphs" textLength="21" x="39" y="326.1211">201</text><text fill="#000000" font-family="sans-serif" font-size="13" lengthAdjust="spacingAndGlyphs" textLength="133" x="64" y="326.1211">http://example.com/foo</text><polygon fill="#A80036" points="360,359.4937,370,363.4937,360,367.4937,364,363.4937" style="stroke: #A80036; stroke-width: 1.0;"/><line style="stroke: #A80036; stroke-width: 1.0;" x1="214" x2="366" y1="363.4937" y2="363.4937"/><text fill="#000000" font-family="sans-serif" font-size="13" font-weight="bold" lengthAdjust="spacingAndGlyphs" textLength="21" x="221" y="358.6372">202</text><text fill="#000000" font-family="sans-serif" font-size="13" lengthAdjust="spacingAndGlyphs" textLength="109" x="246" y="358.6372">GET /foo HTTP/1.1</text><polygon fill="#A80036" points="225,410.5259,215,414.5259,225,418.5259,221,414.5259" style="stroke: #A80036; stroke-width: 1.0;"/><line style="stroke: #A80036; stroke-width: 1.0;" x1="219" x2="371" y1="414.5259" y2="414.5259"/><text fill="#000000" font-family="sans-serif" font-size="13" font-weight="bold" lengthAdjust="spacingAndGlyphs" textLength="21" x="231" y="400.4114">203</text><text fill="#000000" font-family="sans-serif" font-size="13" lengthAdjust="spacingAndGlyphs" textLength="102" x="256" y="391.1533">HTTP/1.1 200 OK</text><text fill="#000000" font-family="sans-serif" font-size="13" lengthAdjust="spacingAndGlyphs" textLength="64" x="256" y="409.6694">內容 HTML</text><polygon fill="#A80036" points="43,461.5581,33,465.5581,43,469.5581,39,465.5581" style="stroke: #A80036; stroke-width: 1.0;"/><line style="stroke: #A80036; stroke-width: 1.0;" x1="37" x2="213" y1="465.5581" y2="465.5581"/><text fill="#000000" font-family="sans-serif" font-size="13" font-weight="bold" lengthAdjust="spacingAndGlyphs" textLength="21" x="49" y="451.4436">204</text><text fill="#000000" font-family="sans-serif" font-size="13" lengthAdjust="spacingAndGlyphs" textLength="99" x="74" y="442.1855">解析HTML內容後</text><text fill="#000000" font-family="sans-serif" font-size="13" lengthAdjust="spacingAndGlyphs" textLength="104" x="74" y="460.7017">展現在瀏覽器裡面</text><!--
@startuml
actor "消費者\nAlice" as Alice #red
participant "瀏覽器\nBrowser"  as Browser
collections "超文本傳輸協定服務\nHTTPD" as HTTPD
participant "那個平台\nSRV" as SRV
actor "生產者\nBob" as Bob #yellow
== 100 寫 HTML ==
autonumber 101
Bob -> SRV : 註冊或架設
Bob -> HTTPD : 上傳或產生 HTML
note left
文字創作、圖片、歌曲、影片、
人際關係、個資、身分識別
end note
== 200 HTTP 協定 ==
autonumber 201
Alice -> Browser : http://example.com/foo
Browser -> HTTPD : GET /foo HTTP/1.1
HTTPD -> Browser : HTTP/1.1 200 OK\n內容 HTML 
Browser -> Alice : 解析HTML內容後\n展現在瀏覽器裡面
@enduml

PlantUML version 1.2019.09(Tue Aug 27 00:19:51 CST 2019)
(GPL source distribution)
Java Runtime: Java(TM) SE Runtime Environment
JVM: Java HotSpot(TM) 64-Bit Server VM
Java Version: 1.8.0_221-b11
Operating System: Windows 10
OS Version: 10.0
Default Encoding: MS950
Language: zh
Country: TW
--></g></svg>