<?xml version="1.0" encoding="UTF-8" standalone="no"?><svg xmlns="http://www.w3.org/2000/svg" xmlns:xlink="http://www.w3.org/1999/xlink" contentScriptType="application/ecmascript" contentStyleType="text/css" height="329px" preserveAspectRatio="none" style="width:275px;height:329px;" version="1.1" viewBox="0 0 275 329" width="275px" zoomAndPan="magnify"><defs><filter height="300%" id="f7eud743wobjw" width="300%" x="-1" y="-1"><feGaussianBlur result="blurOut" stdDeviation="2.0"/><feColorMatrix in="blurOut" result="blurOut2" type="matrix" values="0 0 0 0 0 0 0 0 0 0 0 0 0 0 0 0 0 0 .4 0"/><feOffset dx="4.0" dy="4.0" in="blurOut2" result="blurOut3"/><feBlend in="SourceGraphic" in2="blurOut3" mode="normal"/></filter></defs><g><ellipse cx="127.254" cy="33" fill="#000000" filter="url(#f7eud743wobjw)" rx="10" ry="10" style="stroke: none; stroke-width: 1.0;"/><rect fill="#FEFECE" filter="url(#f7eud743wobjw)" height="50" rx="12.5" ry="12.5" style="stroke: #A80036; stroke-width: 1.5;" width="67" x="172.754" y="8"/><line style="stroke: #A80036; stroke-width: 1.5;" x1="172.754" x2="239.754" y1="37.9404" y2="37.9404"/><text fill="#000000" font-family="sans-serif" font-size="14" lengthAdjust="spacingAndGlyphs" textLength="47" x="182.754" y="29.8643">Waiting</text><rect fill="#FEFECE" filter="url(#f7eud743wobjw)" height="50" rx="12.5" ry="12.5" style="stroke: #A80036; stroke-width: 1.5;" width="66" x="96.2545" y="138"/><line style="stroke: #A80036; stroke-width: 1.5;" x1="96.2545" x2="162.2545" y1="167.9404" y2="167.9404"/><text fill="#000000" font-family="sans-serif" font-size="14" lengthAdjust="spacingAndGlyphs" textLength="46" x="106.2545" y="159.8643">Started</text><rect fill="#FEFECE" filter="url(#f7eud743wobjw)" height="50" rx="12.5" ry="12.5" style="stroke: #A80036; stroke-width: 1.5;" width="74" x="189.254" y="268"/><line style="stroke: #A80036; stroke-width: 1.5;" x1="189.254" x2="263.254" y1="297.9404" y2="297.9404"/><text fill="#000000" font-family="sans-serif" font-size="14" lengthAdjust="spacingAndGlyphs" textLength="54" x="199.254" y="289.8643">Finished</text><rect fill="#FEFECE" filter="url(#f7eud743wobjw)" height="50" rx="12.5" ry="12.5" style="stroke: #A80036; stroke-width: 1.5;" width="92" x="13.2545" y="268"/><line style="stroke: #A80036; stroke-width: 1.5;" x1="13.2545" x2="105.2545" y1="297.9404" y2="297.9404"/><text fill="#000000" font-family="sans-serif" font-size="14" lengthAdjust="spacingAndGlyphs" textLength="72" x="23.2545" y="289.8643">Suspended</text><!--link *start to Waiting--><path d="M137.438,33 C147.434,33 157.43,33 167.426,33 " fill="none" id="*start-&gt;Waiting" style="stroke: #A80036; stroke-width: 1.0;"/><polygon fill="#A80036" points="172.653,33,163.653,29,167.653,33,163.653,37,172.653,33" style="stroke: #A80036; stroke-width: 1.0;"/><!--link Waiting to Started--><path d="M191.771,58.076 C178.947,79.394 160.203,110.553 146.586,133.189 " fill="none" id="Waiting-&gt;Started" style="stroke: #A80036; stroke-width: 1.0;"/><polygon fill="#A80036" points="143.934,137.597,152.0022,131.9486,146.5124,133.3131,145.1479,127.8232,143.934,137.597" style="stroke: #A80036; stroke-width: 1.0;"/><text fill="#000000" font-family="sans-serif" font-size="13" lengthAdjust="spacingAndGlyphs" textLength="28" x="173.254" y="104.6597">Start</text><!--link Waiting to Finished--><path d="M210.054,58.029 C215.386,93.085 224.82,160.354 228.254,218 C228.783,226.8732 228.419,229.1126 228.254,238 C228.108,245.9259 227.84,254.5029 227.547,262.4376 " fill="none" id="Waiting-&gt;Finished" style="stroke: #A80036; stroke-width: 1.0;"/><polygon fill="#A80036" points="227.341,267.8123,231.6824,258.9719,227.5323,262.816,223.6883,258.6658,227.341,267.8123" style="stroke: #A80036; stroke-width: 1.0;"/><text fill="#000000" font-family="sans-serif" font-size="13" lengthAdjust="spacingAndGlyphs" textLength="30" x="226.254" y="169.6597">Done</text><!--link Started to Finished--><path d="M147.499,188.076 C163.722,209.483 187.464,240.8124 204.635,263.4713 " fill="none" id="Started-&gt;Finished" style="stroke: #A80036; stroke-width: 1.0;"/><polygon fill="#A80036" points="207.762,267.5969,205.5132,258.0082,204.7417,263.6122,199.1377,262.8407,207.762,267.5969" style="stroke: #A80036; stroke-width: 1.0;"/><text fill="#000000" font-family="sans-serif" font-size="13" lengthAdjust="spacingAndGlyphs" textLength="35" x="184.254" y="234.6597">Finish</text><!--link Started to Suspended--><path d="M96.0953,169.02 C67.8899,175.232 29.0561,188.821 10.2545,218 C0.4134,233.2727 10.0335,250.1755 23.2749,263.9666 " fill="none" id="Started-&gt;Suspended" style="stroke: #A80036; stroke-width: 1.0;"/><polygon fill="#A80036" points="27.0925,267.77,23.5399,258.5842,23.5504,264.241,17.8936,264.2516,27.0925,267.77" style="stroke: #A80036; stroke-width: 1.0;"/><text fill="#000000" font-family="sans-serif" font-size="13" lengthAdjust="spacingAndGlyphs" textLength="51" x="11.2545" y="234.6597">Suspend</text><!--link Suspended to Started--><path d="M72.5999,267.5969 C84.313,246.1786 101.3562,215.014 113.688,192.465 " fill="none" id="Suspended-&gt;Started" style="stroke: #A80036; stroke-width: 1.0;"/><polygon fill="#A80036" points="116.088,188.076,108.2609,194.054,113.6894,192.4631,115.2803,197.8917,116.088,188.076" style="stroke: #A80036; stroke-width: 1.0;"/><text fill="#000000" font-family="sans-serif" font-size="13" lengthAdjust="spacingAndGlyphs" textLength="48" x="99.2545" y="234.6597">Resume</text><!--
@startuml
[*] -> Waiting
Waiting - -> Started: Start
Waiting - -> Finished : Done
Started - -> Finished : Finish
Started - -> Suspended : Suspend
Suspended - -> Started : Resume
@enduml

PlantUML version 1.2019.09(Tue Aug 27 00:19:51 CST 2019)
(GPL source distribution)
Java Runtime: Java(TM) SE Runtime Environment
JVM: Java HotSpot(TM) 64-Bit Server VM
Java Version: 1.8.0_221-b11
Operating System: Windows 10
OS Version: 10.0
Default Encoding: MS950
Language: zh
Country: TW
--></g></svg>