<?xml version="1.0" encoding="UTF-8" standalone="no"?><svg xmlns="http://www.w3.org/2000/svg" xmlns:xlink="http://www.w3.org/1999/xlink" contentScriptType="application/ecmascript" contentStyleType="text/css" height="472px" preserveAspectRatio="none" style="width:811px;height:472px;" version="1.1" viewBox="0 0 811 472" width="811px" zoomAndPan="magnify"><defs><filter height="300%" id="fl18mgiu79rzx" width="300%" x="-1" y="-1"><feGaussianBlur result="blurOut" stdDeviation="2.0"/><feColorMatrix in="blurOut" result="blurOut2" type="matrix" values="0 0 0 0 0 0 0 0 0 0 0 0 0 0 0 0 0 0 .4 0"/><feOffset dx="4.0" dy="4.0" in="blurOut2" result="blurOut3"/><feBlend in="SourceGraphic" in2="blurOut3" mode="normal"/></filter></defs><g><!--cluster DLTDOJO3--><rect fill="#FFFFFF" filter="url(#fl18mgiu79rzx)" height="330" style="stroke: #000000; stroke-width: 1.5;" width="778" x="22" y="131"/><text fill="#000000" font-family="sans-serif" font-size="14" font-weight="bold" lengthAdjust="spacingAndGlyphs" textLength="74" x="374" y="149.8643">DLTDOJO3</text><!--cluster cli--><rect fill="#ADD8E6" filter="url(#fl18mgiu79rzx)" height="204" style="stroke: #000000; stroke-width: 1.5;" width="118" x="658" y="233"/><text fill="#000000" font-family="sans-serif" font-size="14" font-weight="bold" lengthAdjust="spacingAndGlyphs" textLength="16" x="709" y="251.8643">cli</text><!--cluster Kubernetes--><rect fill="#F08080" filter="url(#fl18mgiu79rzx)" height="184" style="stroke: #000000; stroke-width: 1.5;" width="588" x="46" y="177"/><text fill="#000000" font-family="sans-serif" font-size="14" font-weight="bold" lengthAdjust="spacingAndGlyphs" textLength="83" x="298.5" y="195.8643">Kubernetes</text><!--cluster Services--><rect fill="#F08080" filter="url(#fl18mgiu79rzx)" height="114" style="stroke: #000000; stroke-width: 1.5;" width="296" x="194" y="223"/><text fill="#000000" font-family="sans-serif" font-size="14" font-weight="bold" lengthAdjust="spacingAndGlyphs" textLength="62" x="311" y="241.8643">Services</text><!--cluster madwhite--><rect fill="#F08080" filter="url(#fl18mgiu79rzx)" height="114" style="stroke: #000000; stroke-width: 1.5;" width="96" x="514" y="223"/><text fill="#000000" font-family="sans-serif" font-size="14" font-weight="bold" lengthAdjust="spacingAndGlyphs" textLength="80" x="522" y="241.8643">MAD WHITE</text><!--cluster madred--><rect fill="#F08080" filter="url(#fl18mgiu79rzx)" height="114" style="stroke: #000000; stroke-width: 1.5;" width="100" x="70" y="223"/><text fill="#000000" font-family="sans-serif" font-size="14" font-weight="bold" lengthAdjust="spacingAndGlyphs" textLength="65" x="87.5" y="241.8643">MAD RED</text><!--entity TaichuRaw--><rect fill="#FFFF00" filter="url(#fl18mgiu79rzx)" height="39.9404" style="stroke: #A80036; stroke-width: 1.5;" width="85" x="674.5" y="271"/><rect fill="#FFFF00" height="5" style="stroke: #A80036; stroke-width: 1.5;" width="10" x="669.5" y="276"/><rect fill="#FFFF00" height="5" style="stroke: #A80036; stroke-width: 1.5;" width="10" x="669.5" y="300.9404"/><text fill="#000000" font-family="sans-serif" font-size="14" lengthAdjust="spacingAndGlyphs" textLength="65" x="684.5" y="297.8643">taichu-raw</text><!--entity mdbook--><rect fill="#FEFECE" filter="url(#fl18mgiu79rzx)" height="39.9404" style="stroke: #A80036; stroke-width: 1.5;" width="70" x="682" y="381"/><rect fill="#FEFECE" height="5" style="stroke: #A80036; stroke-width: 1.5;" width="10" x="677" y="386"/><rect fill="#FEFECE" height="5" style="stroke: #A80036; stroke-width: 1.5;" width="10" x="677" y="410.9404"/><text fill="#000000" font-family="sans-serif" font-size="14" lengthAdjust="spacingAndGlyphs" textLength="50" x="692" y="407.8643">mdbook</text><!--entity drone--><rect fill="#FEFECE" filter="url(#fl18mgiu79rzx)" height="59.8809" style="stroke: #A80036; stroke-width: 1.5;" width="53" x="420.5" y="261"/><rect fill="#FEFECE" height="5" style="stroke: #A80036; stroke-width: 1.5;" width="10" x="415.5" y="266"/><rect fill="#FEFECE" height="5" style="stroke: #A80036; stroke-width: 1.5;" width="10" x="415.5" y="310.8809"/><text fill="#000000" font-family="sans-serif" font-size="14" lengthAdjust="spacingAndGlyphs" textLength="18" x="430.5" y="287.8643">Git</text><text fill="#000000" font-family="sans-serif" font-size="14" lengthAdjust="spacingAndGlyphs" textLength="33" x="430.5" y="307.8047">CICD</text><!--entity plantuml--><rect fill="#FEFECE" filter="url(#fl18mgiu79rzx)" height="39.9404" style="stroke: #A80036; stroke-width: 1.5;" width="73" x="312.5" y="271"/><rect fill="#FEFECE" height="5" style="stroke: #A80036; stroke-width: 1.5;" width="10" x="307.5" y="276"/><rect fill="#FEFECE" height="5" style="stroke: #A80036; stroke-width: 1.5;" width="10" x="307.5" y="300.9404"/><text fill="#000000" font-family="sans-serif" font-size="14" lengthAdjust="spacingAndGlyphs" textLength="53" x="322.5" y="297.8643">plantuml</text><!--entity registry--><rect fill="#FEFECE" filter="url(#fl18mgiu79rzx)" height="39.9404" style="stroke: #A80036; stroke-width: 1.5;" width="67" x="210.5" y="271"/><rect fill="#FEFECE" height="5" style="stroke: #A80036; stroke-width: 1.5;" width="10" x="205.5" y="276"/><rect fill="#FEFECE" height="5" style="stroke: #A80036; stroke-width: 1.5;" width="10" x="205.5" y="300.9404"/><text fill="#000000" font-family="sans-serif" font-size="14" lengthAdjust="spacingAndGlyphs" textLength="47" x="220.5" y="297.8643">registry</text><!--entity cs--><rect fill="#FEFECE" filter="url(#fl18mgiu79rzx)" height="59.8809" style="stroke: #A80036; stroke-width: 1.5;" width="60" x="530" y="261"/><rect fill="#FEFECE" height="5" style="stroke: #A80036; stroke-width: 1.5;" width="10" x="525" y="266"/><rect fill="#FEFECE" height="5" style="stroke: #A80036; stroke-width: 1.5;" width="10" x="525" y="310.8809"/><text fill="#000000" font-family="sans-serif" font-size="14" lengthAdjust="spacingAndGlyphs" textLength="31" x="540" y="287.8643">code</text><text fill="#000000" font-family="sans-serif" font-size="14" lengthAdjust="spacingAndGlyphs" textLength="40" x="540" y="307.8047">server</text><!--entity vs--><rect fill="#FEFECE" filter="url(#fl18mgiu79rzx)" height="59.8809" style="stroke: #A80036; stroke-width: 1.5;" width="67" x="86.5" y="261"/><rect fill="#FEFECE" height="5" style="stroke: #A80036; stroke-width: 1.5;" width="10" x="81.5" y="266"/><rect fill="#FEFECE" height="5" style="stroke: #A80036; stroke-width: 1.5;" width="10" x="81.5" y="310.8809"/><text fill="#000000" font-family="sans-serif" font-size="14" lengthAdjust="spacingAndGlyphs" textLength="47" x="96.5" y="287.8643">veloren</text><text fill="#000000" font-family="sans-serif" font-size="14" lengthAdjust="spacingAndGlyphs" textLength="40" x="96.5" y="307.8047">server</text><!--entity Dev--><ellipse cx="349" cy="28" fill="#FEFECE" filter="url(#fl18mgiu79rzx)" rx="8" ry="8" style="stroke: #A80036; stroke-width: 2.0;"/><path d="M349,36 L349,63 M336,44 L362,44 M349,63 L336,78 M349,63 L362,78 " fill="none" filter="url(#fl18mgiu79rzx)" style="stroke: #A80036; stroke-width: 2.0;"/><text fill="#000000" font-family="sans-serif" font-size="14" lengthAdjust="spacingAndGlyphs" textLength="65" x="316.5" y="101.8643">Developer</text><!--entity Op--><ellipse cx="717" cy="28" fill="#FEFECE" filter="url(#fl18mgiu79rzx)" rx="8" ry="8" style="stroke: #A80036; stroke-width: 2.0;"/><path d="M717,36 L717,63 M704,44 L730,44 M717,63 L704,78 M717,63 L730,78 " fill="none" filter="url(#fl18mgiu79rzx)" style="stroke: #A80036; stroke-width: 2.0;"/><text fill="#000000" font-family="sans-serif" font-size="14" lengthAdjust="spacingAndGlyphs" textLength="57" x="688.5" y="101.8643">Operator</text><!--entity User--><ellipse cx="560" cy="18" fill="#FF0000" filter="url(#fl18mgiu79rzx)" rx="8" ry="8" style="stroke: #A80036; stroke-width: 2.0;"/><path d="M560,26 L560,53 M547,34 L573,34 M560,53 L547,68 M560,53 L573,68 " fill="none" filter="url(#fl18mgiu79rzx)" style="stroke: #A80036; stroke-width: 2.0;"/><text fill="#000000" font-family="sans-serif" font-size="14" lengthAdjust="spacingAndGlyphs" textLength="28" x="545.5" y="91.8643">駱전니</text><text fill="#000000" font-family="sans-serif" font-size="14" lengthAdjust="spacingAndGlyphs" textLength="29" x="545.5" y="111.8047">User</text><!--link TaichuRaw to mdbook--><path d="M717,311.06 C717,330.68 717,361.084 717,380.7676 " fill="none" id="TaichuRaw-mdbook" style="stroke: #A80036; stroke-width: 1.0;"/><!--link Op to TaichuRaw--><path d="M717,105.024 C717,152.339 717,227.166 717,265.536 " fill="none" id="Op-&gt;TaichuRaw" style="stroke: #A80036; stroke-width: 1.0; stroke-dasharray: 7.0,7.0;"/><polygon fill="#A80036" points="717,270.925,721,261.925,717,265.925,713,261.925,717,270.925" style="stroke: #A80036; stroke-width: 1.0;"/><!--link Dev to plantuml--><path d="M349,105.024 C349,152.339 349,227.166 349,265.536 " fill="none" id="Dev-&gt;plantuml" style="stroke: #A80036; stroke-width: 1.0; stroke-dasharray: 7.0,7.0;"/><polygon fill="#A80036" points="349,270.925,353,261.925,349,265.925,345,261.925,349,270.925" style="stroke: #A80036; stroke-width: 1.0;"/><!--link Dev to registry--><path d="M316.48,93.776 C308.607,102.637 300.8,112.693 295,123 C268.612,169.896 254.298,232.047 248.001,265.752 " fill="none" id="Dev-&gt;registry" style="stroke: #A80036; stroke-width: 1.0; stroke-dasharray: 7.0,7.0;"/><polygon fill="#A80036" points="247.059,270.911,252.6113,262.7764,247.9576,265.9924,244.7416,261.3387,247.059,270.911" style="stroke: #A80036; stroke-width: 1.0;"/><!--link Dev to cs--><path d="M381.545,69.022 C413.008,76.871 460.178,92.926 490,123 C526.5,159.808 545.021,218.483 553.581,255.585 " fill="none" id="Dev-&gt;cs" style="stroke: #A80036; stroke-width: 1.0; stroke-dasharray: 7.0,7.0;"/><polygon fill="#A80036" points="554.773,260.897,556.7062,251.2397,553.6787,256.0182,548.9002,252.9907,554.773,260.897" style="stroke: #A80036; stroke-width: 1.0;"/><!--link User to cs--><path d="M560,115.265 C560,158.427 560,218.222 560,255.482 " fill="none" id="User-&gt;cs" style="stroke: #A80036; stroke-width: 1.0; stroke-dasharray: 7.0,7.0;"/><polygon fill="#A80036" points="560,260.811,564,251.811,560,255.811,556,251.811,560,260.811" style="stroke: #A80036; stroke-width: 1.0;"/><!--
@startuml

actor "Developer" as Dev
actor "Operator" as Op
actor "駱전니\nUser" as User #red

rectangle "DLTDOJO3" {

    rectangle "cli" #LightBlue {
        component "taichu-raw" as TaichuRaw #yellow
        component mdbook
    }

    rectangle "Kubernetes" #LightCoral{
        rectangle "Services" {
            component "Git\nCICD" as drone
            component plantuml
            component registry
        }
        rectangle "MAD WHITE" as madwhite {
            component "code\nserver" as cs
        }
        rectangle "MAD RED" as madred {
            component "veloren\nserver" as vs
        }
    }
}

TaichuRaw - - mdbook
Op ..> TaichuRaw
Dev ..> plantuml
Dev ..> registry
Dev ..> cs
User ..> cs
@enduml

PlantUML version 1.2019.09(Tue Aug 27 00:19:51 CST 2019)
(GPL source distribution)
Java Runtime: Java(TM) SE Runtime Environment
JVM: Java HotSpot(TM) 64-Bit Server VM
Java Version: 1.8.0_221-b11
Operating System: Windows 10
OS Version: 10.0
Default Encoding: MS950
Language: zh
Country: TW
--></g></svg>