<?xml version="1.0" encoding="UTF-8" standalone="no"?><svg xmlns="http://www.w3.org/2000/svg" xmlns:xlink="http://www.w3.org/1999/xlink" contentScriptType="application/ecmascript" contentStyleType="text/css" height="640px" preserveAspectRatio="none" style="width:820px;height:640px;" version="1.1" viewBox="0 0 820 640" width="820px" zoomAndPan="magnify"><defs><filter height="300%" id="frz2686xtmpvm" width="300%" x="-1" y="-1"><feGaussianBlur result="blurOut" stdDeviation="2.0"/><feColorMatrix in="blurOut" result="blurOut2" type="matrix" values="0 0 0 0 0 0 0 0 0 0 0 0 0 0 0 0 0 0 .4 0"/><feOffset dx="4.0" dy="4.0" in="blurOut2" result="blurOut3"/><feBlend in="SourceGraphic" in2="blurOut3" mode="normal"/></filter></defs><g><!--cluster MagnetoCorp--><polygon fill="#FFFFFF" filter="url(#frz2686xtmpvm)" points="22,24,124,24,131,49.9404,371,49.9404,371,320,22,320,22,24" style="stroke: #000000; stroke-width: 1.5;"/><line style="stroke: #000000; stroke-width: 1.5;" x1="22" x2="131" y1="49.9404" y2="49.9404"/><text fill="#000000" font-family="sans-serif" font-size="14" font-weight="bold" lengthAdjust="spacingAndGlyphs" textLength="96" x="26" y="42.8643">MagnetoCorp</text><!--cluster PaperNet--><polygon fill="#FFFFFF" filter="url(#frz2686xtmpvm)" points="395,221,466,221,473,246.9404,798,246.9404,798,628,395,628,395,221" style="stroke: #000000; stroke-width: 1.5;"/><line style="stroke: #000000; stroke-width: 1.5;" x1="395" x2="473" y1="246.9404" y2="246.9404"/><text fill="#000000" font-family="sans-serif" font-size="14" font-weight="bold" lengthAdjust="spacingAndGlyphs" textLength="65" x="399" y="239.8643">PaperNet</text><!--cluster PNMC--><polygon fill="#FFFFFF" filter="url(#frz2686xtmpvm)" points="419,381,521,381,528,406.9404,774,406.9404,774,604,419,604,419,381" style="stroke: #000000; stroke-width: 1.5;"/><line style="stroke: #000000; stroke-width: 1.5;" x1="419" x2="528" y1="406.9404" y2="406.9404"/><text fill="#000000" font-family="sans-serif" font-size="14" font-weight="bold" lengthAdjust="spacingAndGlyphs" textLength="96" x="423" y="399.8643">MagnetoCorp</text><!--cluster MPEER--><polygon fill="#FFFFFF" filter="url(#frz2686xtmpvm)" points="591,439,630,439,637,464.9404,742,464.9404,742,572,591,572,591,439" style="stroke: #000000; stroke-width: 1.5;"/><line style="stroke: #000000; stroke-width: 1.5;" x1="591" x2="637" y1="464.9404" y2="464.9404"/><text fill="#000000" font-family="sans-serif" font-size="14" font-weight="bold" lengthAdjust="spacingAndGlyphs" textLength="33" x="595" y="457.8643">Peer</text><!--cluster CC--><polygon fill="#FFFFFF" filter="url(#frz2686xtmpvm)" points="443,427,524,427,531,472.8809,559,472.8809,559,564,443,564,443,427" style="stroke: #000000; stroke-width: 1.5;"/><line style="stroke: #000000; stroke-width: 1.5;" x1="443" x2="531" y1="472.8809" y2="472.8809"/><text fill="#000000" font-family="sans-serif" font-size="14" font-weight="bold" lengthAdjust="spacingAndGlyphs" textLength="75" x="447" y="445.8643">Chaincode</text><text fill="#000000" font-family="sans-serif" font-size="14" font-weight="bold" lengthAdjust="spacingAndGlyphs" textLength="69" x="450" y="465.8047">Container</text><!--entity Alice--><ellipse cx="53" cy="72" fill="#FEFECE" filter="url(#frz2686xtmpvm)" rx="8" ry="8" style="stroke: #A80036; stroke-width: 2.0;"/><path d="M53,80 L53,107 M40,88 L66,88 M53,107 L40,122 M53,107 L66,122 " fill="none" filter="url(#frz2686xtmpvm)" style="stroke: #A80036; stroke-width: 2.0;"/><text fill="#000000" font-family="sans-serif" font-size="14" lengthAdjust="spacingAndGlyphs" textLength="30" x="38" y="145.8643">Alice</text><!--entity IAPP--><rect fill="#FEFECE" filter="url(#frz2686xtmpvm)" height="39.9404" style="stroke: #A80036; stroke-width: 1.5;" width="82" x="103" y="85.5"/><text fill="#000000" font-family="sans-serif" font-size="14" lengthAdjust="spacingAndGlyphs" textLength="62" x="113" y="112.3643">Issue App</text><!--entity MGW--><rect fill="#FEFECE" filter="url(#frz2686xtmpvm)" height="39.9404" style="stroke: #A80036; stroke-width: 1.5;" width="75" x="271.5" y="264"/><text fill="#000000" font-family="sans-serif" font-size="14" lengthAdjust="spacingAndGlyphs" textLength="55" x="281.5" y="290.8643">Gateway</text><!--entity WALLET--><rect fill="#FEFECE" filter="url(#frz2686xtmpvm)" height="39.9404" style="stroke: #A80036; stroke-width: 1.5;" width="59" x="295.5" y="85.5"/><text fill="#000000" font-family="sans-serif" font-size="14" lengthAdjust="spacingAndGlyphs" textLength="39" x="305.5" y="112.3643">Wallet</text><!--entity CA--><polygon fill="#FEFECE" filter="url(#frz2686xtmpvm)" points="643.5,269,653.5,259,702.5,259,702.5,298.9404,692.5,308.9404,643.5,308.9404,643.5,269" style="stroke: #000000; stroke-width: 1.5;"/><line style="stroke: #000000; stroke-width: 1.5;" x1="692.5" x2="701.5" y1="269" y2="260"/><line style="stroke: #000000; stroke-width: 1.5;" x1="643.5" x2="692.5" y1="269" y2="269"/><line style="stroke: #000000; stroke-width: 1.5;" x1="692.5" x2="692.5" y1="269" y2="308.9404"/><text fill="#000000" font-family="sans-serif" font-size="14" lengthAdjust="spacingAndGlyphs" textLength="19" x="658.5" y="295.8643">CA</text><!--entity Orderer--><polygon fill="#FEFECE" filter="url(#frz2686xtmpvm)" points="497,269,507,259,587,259,587,298.9404,577,308.9404,497,308.9404,497,269" style="stroke: #000000; stroke-width: 1.5;"/><line style="stroke: #000000; stroke-width: 1.5;" x1="577" x2="586" y1="269" y2="260"/><line style="stroke: #000000; stroke-width: 1.5;" x1="497" x2="577" y1="269" y2="269"/><line style="stroke: #000000; stroke-width: 1.5;" x1="577" x2="577" y1="269" y2="308.9404"/><text fill="#000000" font-family="sans-serif" font-size="14" lengthAdjust="spacingAndGlyphs" textLength="50" x="512" y="295.8643">Orderer</text><!--entity PNPC--><rect fill="#FEFECE" filter="url(#frz2686xtmpvm)" height="62.8809" style="stroke: #000000; stroke-width: 1.5;" width="84" x="634" y="485"/><polygon fill="#FEFECE" points="701,490,701,504,713,504,713,496,707,490,701,490" style="stroke: #000000; stroke-width: 1.5;"/><line style="stroke: #000000; stroke-width: 1.5;" x1="707" x2="707" y1="490" y2="496"/><line style="stroke: #000000; stroke-width: 1.5;" x1="713" x2="707" y1="496" y2="496"/><text fill="#000000" font-family="sans-serif" font-size="14" lengthAdjust="spacingAndGlyphs" textLength="38" x="644" y="514.8643">Paper</text><text fill="#000000" font-family="sans-serif" font-size="14" lengthAdjust="spacingAndGlyphs" textLength="54" x="644" y="534.8047">Contract</text><!--entity PNPC_CC--><rect fill="#FEFECE" filter="url(#frz2686xtmpvm)" height="62.8809" style="stroke: #000000; stroke-width: 1.5;" width="84" x="459" y="485"/><polygon fill="#FEFECE" points="526,490,526,504,538,504,538,496,532,490,526,490" style="stroke: #000000; stroke-width: 1.5;"/><line style="stroke: #000000; stroke-width: 1.5;" x1="532" x2="532" y1="490" y2="496"/><line style="stroke: #000000; stroke-width: 1.5;" x1="538" x2="532" y1="496" y2="496"/><text fill="#000000" font-family="sans-serif" font-size="14" lengthAdjust="spacingAndGlyphs" textLength="38" x="469" y="514.8643">Paper</text><text fill="#000000" font-family="sans-serif" font-size="14" lengthAdjust="spacingAndGlyphs" textLength="54" x="469" y="534.8047">Contract</text><!--reverse link IAPP to WALLET--><path d="M190.286,105.5 C223.356,105.5 266.868,105.5 295.368,105.5 " fill="none" id="IAPP&lt;-WALLET" style="stroke: #A80036; stroke-width: 1.0;"/><polygon fill="#A80036" points="185.072,105.5,194.072,109.5,190.072,105.5,194.072,101.5,185.072,105.5" style="stroke: #A80036; stroke-width: 1.0;"/><text fill="#000000" font-family="sans-serif" font-size="17" font-weight="bold" lengthAdjust="spacingAndGlyphs" textLength="74" x="203.25" y="97.978">1 retrieve</text><!--link IAPP to MGW--><path d="M138.368,125.571 C133.32,146.722 128.811,181.018 144,205 C170.61,247.013 226.613,266.829 265.964,275.874 " fill="none" id="IAPP-&gt;MGW" style="stroke: #A80036; stroke-width: 1.0;"/><polygon fill="#A80036" points="271.16,277.028,263.2431,271.1694,266.2793,275.9424,261.5062,278.9786,271.16,277.028" style="stroke: #A80036; stroke-width: 1.0;"/><text fill="#000000" font-family="sans-serif" font-size="17" font-weight="bold" lengthAdjust="spacingAndGlyphs" textLength="67" x="145" y="200.478">2 submit</text><!--link MGW to IAPP--><path d="M293.726,263.653 C276.648,242.336 247.854,207.317 221,179 C204.461,161.559 184.702,142.998 169.341,129.022 " fill="none" id="MGW-&gt;IAPP" style="stroke: #A80036; stroke-width: 1.0;"/><polygon fill="#A80036" points="165.536,125.571,169.515,134.5803,169.2395,128.9302,174.8897,128.6547,165.536,125.571" style="stroke: #A80036; stroke-width: 1.0;"/><text fill="#000000" font-family="sans-serif" font-size="17" font-weight="bold" lengthAdjust="spacingAndGlyphs" textLength="87" x="245" y="200.478">7 response</text><!--link MGW to MPEER--><path d="M298.183,309.105 C292.011,326.936 287.985,350.542 302,365 C321.885,385.513 536.503,355.391 559,373 C571.7475,382.978 580.6433,396.6751 586.8112,411.6564 C589.8951,419.1471 592.297,426.9589 594.1575,434.7873 C594.39,435.7659 594.6141,436.7447 594.83,437.7232 C594.884,437.9678 594.9375,438.2124 594.9904,438.457 " fill="none" id="MGW-MPEER" style="stroke: #A80036; stroke-width: 1.0;"/><polygon fill="#A80036" points="594.9904,438.457,596.9952,428.8143,593.9323,433.5702,589.1764,430.5073,594.9904,438.457" style="stroke: #A80036; stroke-width: 1.0;"/><polygon fill="#A80036" points="299.967,304.241,293.1129,311.3136,298.2456,308.9353,300.6239,314.0679,299.967,304.241" style="stroke: #A80036; stroke-width: 1.0;"/><text fill="#000000" font-family="sans-serif" font-size="17" font-weight="bold" lengthAdjust="spacingAndGlyphs" textLength="148" x="303" y="360.478">3 propose/endorse</text><!--link MPEER to MGW--><path d="M593.9028,438.8481 C593.6838,437.8733 593.457,436.8977 593.2223,435.9218 C591.3441,428.1148 588.9531,420.2898 585.9207,412.7366 C579.8559,397.6303 571.2253,383.6115 559,373 C538.683,355.365 524.175,374.484 499,365 C479.505,357.656 479.363,346.685 460,339 C432.767,328.191 422.852,337.095 395,328 C378.319,322.552 360.835,314.328 346.022,306.526 " fill="none" id="MPEER-&gt;MGW" style="stroke: #A80036; stroke-width: 1.0;"/><polygon fill="#A80036" points="341.514,304.121,347.5737,311.885,345.926,306.4734,351.3376,304.8257,341.514,304.121" style="stroke: #A80036; stroke-width: 1.0;"/><text fill="#000000" font-family="sans-serif" font-size="17" font-weight="bold" lengthAdjust="spacingAndGlyphs" textLength="58" x="500" y="360.478">6 notify</text><!--link MGW to Orderer--><path d="M346.694,284 C386.052,284 447.999,284 491.552,284 " fill="none" id="MGW-&gt;Orderer" style="stroke: #A80036; stroke-width: 1.0;"/><polygon fill="#A80036" points="496.77,284,487.77,280,491.77,284,487.77,288,496.77,284" style="stroke: #A80036; stroke-width: 1.0;"/><text fill="#000000" font-family="sans-serif" font-size="17" font-weight="bold" lengthAdjust="spacingAndGlyphs" textLength="57" x="393.25" y="276.478">4 order</text><!--link Orderer to MPEER--><path d="M550.606,309.028 C553.779,318.324 557.263,329.094 560,339 C570.532,377.1125 580.1442,420.4648 587.1908,454.6663 C588.0716,458.9414 588.9123,463.0736 589.7097,467.0348 C590.1084,469.0153 590.4963,470.9531 590.8729,472.8446 " fill="none" id="Orderer-&gt;MPEER" style="stroke: #A80036; stroke-width: 1.0;"/><polygon fill="#A80036" points="590.8729,472.8446,593.0383,463.2367,589.8965,467.9409,585.1923,464.7991,590.8729,472.8446" style="stroke: #A80036; stroke-width: 1.0;"/><text fill="#000000" font-family="sans-serif" font-size="17" font-weight="bold" lengthAdjust="spacingAndGlyphs" textLength="89" x="567" y="360.478">5 distribute</text><!--
@startuml
folder MagnetoCorp {
    actor Alice
    agent "Issue App" as IAPP
    agent "Gateway" as MGW
    agent "Wallet" as WALLET
}

folder PaperNet {
    node CA 
    node Orderer
    folder "MagnetoCorp" as PNMC {
       package "Peer" as MPEER {
           artifact "Paper\nContract" as PNPC
       } 
       package "Chaincode\nContainer" as CC { 
         artifact "Paper\nContract" as PNPC_CC
       }
    }
}

IAPP <- WALLET: = 1 retrieve
IAPP - -> MGW: = 2 submit
MGW <- -> MPEER: = 3 propose/endorse
MGW - -> Orderer: = 4 order
Orderer - -> MPEER: = 5 distribute
MPEER -> MGW: = 6 notify
MGW -> IAPP: = 7 response
@enduml

PlantUML version 1.2019.09(Tue Aug 27 00:19:51 CST 2019)
(GPL source distribution)
Java Runtime: Java(TM) SE Runtime Environment
JVM: Java HotSpot(TM) 64-Bit Server VM
Java Version: 1.8.0_221-b11
Operating System: Windows 10
OS Version: 10.0
Default Encoding: MS950
Language: zh
Country: TW
--></g></svg>