<?xml version="1.0" encoding="UTF-8" standalone="no"?><svg xmlns="http://www.w3.org/2000/svg" xmlns:xlink="http://www.w3.org/1999/xlink" contentScriptType="application/ecmascript" contentStyleType="text/css" height="946px" preserveAspectRatio="none" style="width:589px;height:946px;" version="1.1" viewBox="0 0 589 946" width="589px" zoomAndPan="magnify"><defs><filter height="300%" id="f1ja0rgp2r5b5n" width="300%" x="-1" y="-1"><feGaussianBlur result="blurOut" stdDeviation="2.0"/><feColorMatrix in="blurOut" result="blurOut2" type="matrix" values="0 0 0 0 0 0 0 0 0 0 0 0 0 0 0 0 0 0 .4 0"/><feOffset dx="4.0" dy="4.0" in="blurOut2" result="blurOut3"/><feBlend in="SourceGraphic" in2="blurOut3" mode="normal"/></filter></defs><g><line style="stroke: #A80036; stroke-width: 1.0; stroke-dasharray: 5.0,5.0;" x1="32" x2="32" y1="109.8809" y2="835.7192"/><line style="stroke: #A80036; stroke-width: 1.0; stroke-dasharray: 5.0,5.0;" x1="184.5" x2="184.5" y1="109.8809" y2="835.7192"/><line style="stroke: #A80036; stroke-width: 1.0; stroke-dasharray: 5.0,5.0;" x1="266.5" x2="266.5" y1="109.8809" y2="835.7192"/><line style="stroke: #A80036; stroke-width: 1.0; stroke-dasharray: 5.0,5.0;" x1="396.5" x2="396.5" y1="109.8809" y2="835.7192"/><line style="stroke: #A80036; stroke-width: 1.0; stroke-dasharray: 5.0,5.0;" x1="548.5" x2="548.5" y1="109.8809" y2="835.7192"/><text fill="#000000" font-family="sans-serif" font-size="14" lengthAdjust="spacingAndGlyphs" textLength="42" x="8" y="86.8643">消費者</text><text fill="#000000" font-family="sans-serif" font-size="14" lengthAdjust="spacingAndGlyphs" textLength="30" x="14" y="106.8047">Alice</text><ellipse cx="32" cy="13" fill="#FF0000" filter="url(#f1ja0rgp2r5b5n)" rx="8" ry="8" style="stroke: #A80036; stroke-width: 2.0;"/><path d="M32,21 L32,48 M19,29 L45,29 M32,48 L19,63 M32,48 L45,63 " fill="none" filter="url(#f1ja0rgp2r5b5n)" style="stroke: #A80036; stroke-width: 2.0;"/><text fill="#000000" font-family="sans-serif" font-size="14" lengthAdjust="spacingAndGlyphs" textLength="42" x="8" y="851.5835">消費者</text><text fill="#000000" font-family="sans-serif" font-size="14" lengthAdjust="spacingAndGlyphs" textLength="30" x="14" y="871.5239">Alice</text><ellipse cx="32" cy="884.6001" fill="#FF0000" filter="url(#f1ja0rgp2r5b5n)" rx="8" ry="8" style="stroke: #A80036; stroke-width: 2.0;"/><path d="M32,892.6001 L32,919.6001 M19,900.6001 L45,900.6001 M32,919.6001 L19,934.6001 M32,919.6001 L45,934.6001 " fill="none" filter="url(#f1ja0rgp2r5b5n)" style="stroke: #A80036; stroke-width: 2.0;"/><rect fill="#FEFECE" filter="url(#f1ja0rgp2r5b5n)" height="73.8213" style="stroke: #A80036; stroke-width: 1.5;" width="65" x="150.5" y="31.0596"/><text fill="#000000" font-family="sans-serif" font-size="14" lengthAdjust="spacingAndGlyphs" textLength="51" x="157.5" y="54.9238">Browser</text><text fill="#000000" font-family="sans-serif" font-size="14" lengthAdjust="spacingAndGlyphs" textLength="42" x="162" y="74.8643">瀏覽器</text><text fill="#000000" font-family="sans-serif" font-size="14" lengthAdjust="spacingAndGlyphs" textLength="51" x="157.5" y="94.8047">Browser</text><rect fill="#FEFECE" filter="url(#f1ja0rgp2r5b5n)" height="73.8213" style="stroke: #A80036; stroke-width: 1.5;" width="65" x="150.5" y="834.7192"/><text fill="#000000" font-family="sans-serif" font-size="14" lengthAdjust="spacingAndGlyphs" textLength="51" x="157.5" y="858.5835">Browser</text><text fill="#000000" font-family="sans-serif" font-size="14" lengthAdjust="spacingAndGlyphs" textLength="42" x="162" y="878.5239">瀏覽器</text><text fill="#000000" font-family="sans-serif" font-size="14" lengthAdjust="spacingAndGlyphs" textLength="51" x="157.5" y="898.4644">Browser</text><rect fill="#FEFECE" filter="url(#f1ja0rgp2r5b5n)" height="73.8213" style="stroke: #A80036; stroke-width: 1.5;" width="70" x="229.5" y="31.0596"/><text fill="#000000" font-family="sans-serif" font-size="14" lengthAdjust="spacingAndGlyphs" textLength="47" x="241" y="54.9238">Service</text><text fill="#000000" font-family="sans-serif" font-size="14" lengthAdjust="spacingAndGlyphs" textLength="56" x="236.5" y="74.8643">那個平台</text><text fill="#000000" font-family="sans-serif" font-size="14" lengthAdjust="spacingAndGlyphs" textLength="28" x="250.5" y="94.8047">SRV</text><rect fill="#FEFECE" filter="url(#f1ja0rgp2r5b5n)" height="73.8213" style="stroke: #A80036; stroke-width: 1.5;" width="70" x="229.5" y="834.7192"/><text fill="#000000" font-family="sans-serif" font-size="14" lengthAdjust="spacingAndGlyphs" textLength="47" x="241" y="858.5835">Service</text><text fill="#000000" font-family="sans-serif" font-size="14" lengthAdjust="spacingAndGlyphs" textLength="56" x="236.5" y="878.5239">那個平台</text><text fill="#000000" font-family="sans-serif" font-size="14" lengthAdjust="spacingAndGlyphs" textLength="28" x="250.5" y="898.4644">SRV</text><rect fill="#FEFECE" filter="url(#f1ja0rgp2r5b5n)" height="73.8213" style="stroke: #A80036; stroke-width: 1.5;" width="140" x="326.5" y="27.0596"/><rect fill="#FEFECE" filter="url(#f1ja0rgp2r5b5n)" height="73.8213" style="stroke: #A80036; stroke-width: 1.5;" width="140" x="322.5" y="31.0596"/><text fill="#000000" font-family="sans-serif" font-size="14" lengthAdjust="spacingAndGlyphs" textLength="82" x="351.5" y="54.9238">HTTP Server</text><text fill="#000000" font-family="sans-serif" font-size="14" lengthAdjust="spacingAndGlyphs" textLength="126" x="329.5" y="74.8643">超文本傳輸協定服務</text><text fill="#000000" font-family="sans-serif" font-size="14" lengthAdjust="spacingAndGlyphs" textLength="46" x="369.5" y="94.8047">HTTPD</text><rect fill="#FEFECE" filter="url(#f1ja0rgp2r5b5n)" height="73.8213" style="stroke: #A80036; stroke-width: 1.5;" width="140" x="326.5" y="834.7192"/><rect fill="#FEFECE" filter="url(#f1ja0rgp2r5b5n)" height="73.8213" style="stroke: #A80036; stroke-width: 1.5;" width="140" x="322.5" y="838.7192"/><text fill="#000000" font-family="sans-serif" font-size="14" lengthAdjust="spacingAndGlyphs" textLength="82" x="351.5" y="862.5835">HTTP Server</text><text fill="#000000" font-family="sans-serif" font-size="14" lengthAdjust="spacingAndGlyphs" textLength="126" x="329.5" y="882.5239">超文本傳輸協定服務</text><text fill="#000000" font-family="sans-serif" font-size="14" lengthAdjust="spacingAndGlyphs" textLength="46" x="369.5" y="902.4644">HTTPD</text><text fill="#000000" font-family="sans-serif" font-size="14" lengthAdjust="spacingAndGlyphs" textLength="42" x="524.5" y="86.8643">生產者</text><text fill="#000000" font-family="sans-serif" font-size="14" lengthAdjust="spacingAndGlyphs" textLength="25" x="533" y="106.8047">Bob</text><ellipse cx="548.5" cy="13" fill="#FFFF00" filter="url(#f1ja0rgp2r5b5n)" rx="8" ry="8" style="stroke: #A80036; stroke-width: 2.0;"/><path d="M548.5,21 L548.5,48 M535.5,29 L561.5,29 M548.5,48 L535.5,63 M548.5,48 L561.5,63 " fill="none" filter="url(#f1ja0rgp2r5b5n)" style="stroke: #A80036; stroke-width: 2.0;"/><text fill="#000000" font-family="sans-serif" font-size="14" lengthAdjust="spacingAndGlyphs" textLength="42" x="524.5" y="851.5835">生產者</text><text fill="#000000" font-family="sans-serif" font-size="14" lengthAdjust="spacingAndGlyphs" textLength="25" x="533" y="871.5239">Bob</text><ellipse cx="548.5" cy="884.6001" fill="#FFFF00" filter="url(#f1ja0rgp2r5b5n)" rx="8" ry="8" style="stroke: #A80036; stroke-width: 2.0;"/><path d="M548.5,892.6001 L548.5,919.6001 M535.5,900.6001 L561.5,900.6001 M548.5,919.6001 L535.5,934.6001 M548.5,919.6001 L561.5,934.6001 " fill="none" filter="url(#f1ja0rgp2r5b5n)" style="stroke: #A80036; stroke-width: 2.0;"/><rect fill="#EEEEEE" filter="url(#f1ja0rgp2r5b5n)" height="3" style="stroke: #EEEEEE; stroke-width: 1.0;" width="574.5" x="3" y="142.1389"/><line style="stroke: #000000; stroke-width: 1.0;" x1="3" x2="577.5" y1="142.1389" y2="142.1389"/><line style="stroke: #000000; stroke-width: 1.0;" x1="3" x2="577.5" y1="145.1389" y2="145.1389"/><rect fill="#EEEEEE" filter="url(#f1ja0rgp2r5b5n)" height="26.5161" style="stroke: #000000; stroke-width: 2.0;" width="97" x="241.75" y="129.8809"/><text fill="#000000" font-family="sans-serif" font-size="13" font-weight="bold" lengthAdjust="spacingAndGlyphs" textLength="79" x="247.75" y="149.5405">100 寫 HTML</text><polygon fill="#A80036" points="407.5,201.1711,397.5,205.1711,407.5,209.1711,403.5,205.1711" style="stroke: #A80036; stroke-width: 1.0;"/><line style="stroke: #A80036; stroke-width: 1.0;" x1="401.5" x2="547.5" y1="205.1711" y2="205.1711"/><text fill="#000000" font-family="sans-serif" font-size="13" font-weight="bold" lengthAdjust="spacingAndGlyphs" textLength="21" x="413.5" y="200.3147">101</text><text fill="#000000" font-family="sans-serif" font-size="13" lengthAdjust="spacingAndGlyphs" textLength="103" x="438.5" y="200.3147">上傳或產生 HTML</text><path d="M184,171.397 L184,218.397 L387,218.397 L387,181.397 L377,171.397 L184,171.397 " fill="#FBFB77" filter="url(#f1ja0rgp2r5b5n)" style="stroke: #A80036; stroke-width: 1.0;"/><path d="M377,171.397 L377,181.397 L387,181.397 L377,171.397 " fill="#FBFB77" style="stroke: #A80036; stroke-width: 1.0;"/><text fill="#000000" font-family="sans-serif" font-size="13" lengthAdjust="spacingAndGlyphs" textLength="182" x="190" y="192.0566">文字創作、圖片、歌曲、影片、</text><text fill="#000000" font-family="sans-serif" font-size="13" lengthAdjust="spacingAndGlyphs" textLength="156" x="190" y="210.5728">人際關係、個資、身分識別</text><rect fill="#EEEEEE" filter="url(#f1ja0rgp2r5b5n)" height="3" style="stroke: #EEEEEE; stroke-width: 1.0;" width="574.5" x="3" y="249.6873"/><line style="stroke: #000000; stroke-width: 1.0;" x1="3" x2="577.5" y1="249.6873" y2="249.6873"/><line style="stroke: #000000; stroke-width: 1.0;" x1="3" x2="577.5" y1="252.6873" y2="252.6873"/><rect fill="#EEEEEE" filter="url(#f1ja0rgp2r5b5n)" height="26.5161" style="stroke: #000000; stroke-width: 2.0;" width="170" x="205.25" y="237.4292"/><text fill="#000000" font-family="sans-serif" font-size="13" font-weight="bold" lengthAdjust="spacingAndGlyphs" textLength="152" x="211.25" y="257.0889">200 給 HTTP RESPONSE</text><polygon fill="#A80036" points="196,312.9775,186,316.9775,196,320.9775,192,316.9775" style="stroke: #A80036; stroke-width: 1.0;"/><line style="stroke: #A80036; stroke-width: 1.0;" x1="190" x2="395.5" y1="316.9775" y2="316.9775"/><text fill="#000000" font-family="sans-serif" font-size="13" font-weight="bold" lengthAdjust="spacingAndGlyphs" textLength="21" x="202" y="302.863">201</text><text fill="#000000" font-family="sans-serif" font-size="13" lengthAdjust="spacingAndGlyphs" textLength="102" x="227" y="293.605">HTTP/1.1 200 OK</text><text fill="#000000" font-family="sans-serif" font-size="13" lengthAdjust="spacingAndGlyphs" textLength="64" x="227" y="312.1211">內容 HTML</text><polygon fill="#A80036" points="43,364.0098,33,368.0098,43,372.0098,39,368.0098" style="stroke: #A80036; stroke-width: 1.0;"/><line style="stroke: #A80036; stroke-width: 1.0;" x1="37" x2="184" y1="368.0098" y2="368.0098"/><text fill="#000000" font-family="sans-serif" font-size="13" font-weight="bold" lengthAdjust="spacingAndGlyphs" textLength="21" x="49" y="353.8953">202</text><text fill="#000000" font-family="sans-serif" font-size="13" lengthAdjust="spacingAndGlyphs" textLength="99" x="74" y="344.6372">解析HTML內容後</text><text fill="#000000" font-family="sans-serif" font-size="13" lengthAdjust="spacingAndGlyphs" textLength="104" x="74" y="363.1533">展現在瀏覽器裡面</text><rect fill="#EEEEEE" filter="url(#f1ja0rgp2r5b5n)" height="3" style="stroke: #EEEEEE; stroke-width: 1.0;" width="574.5" x="3" y="398.2678"/><line style="stroke: #000000; stroke-width: 1.0;" x1="3" x2="577.5" y1="398.2678" y2="398.2678"/><line style="stroke: #000000; stroke-width: 1.0;" x1="3" x2="577.5" y1="401.2678" y2="401.2678"/><rect fill="#EEEEEE" filter="url(#f1ja0rgp2r5b5n)" height="26.5161" style="stroke: #000000; stroke-width: 2.0;" width="338" x="121.25" y="386.0098"/><text fill="#000000" font-family="sans-serif" font-size="13" font-weight="bold" lengthAdjust="spacingAndGlyphs" textLength="320" x="127.25" y="405.6694">300 Web 1.0 免費白吃的午餐 ? 注意力與隱私商品化</text><polygon fill="#A80036" points="43,443.042,33,447.042,43,451.042,39,447.042" style="stroke: #A80036; stroke-width: 1.0;"/><polygon fill="#A80036" points="254.5,443.042,264.5,447.042,254.5,451.042,258.5,447.042" style="stroke: #A80036; stroke-width: 1.0;"/><line style="stroke: #A80036; stroke-width: 1.0;" x1="37" x2="260.5" y1="447.042" y2="447.042"/><text fill="#000000" font-family="sans-serif" font-size="13" font-weight="bold" lengthAdjust="spacingAndGlyphs" textLength="21" x="49" y="442.1855">301</text><text fill="#000000" font-family="sans-serif" font-size="13" lengthAdjust="spacingAndGlyphs" textLength="52" x="74" y="442.1855">給我內容</text><polygon fill="#A80036" points="277.5,475.5581,267.5,479.5581,277.5,483.5581,273.5,479.5581" style="stroke: #A80036; stroke-width: 1.0;"/><polygon fill="#A80036" points="536.5,475.5581,546.5,479.5581,536.5,483.5581,540.5,479.5581" style="stroke: #A80036; stroke-width: 1.0;"/><line style="stroke: #A80036; stroke-width: 1.0;" x1="271.5" x2="542.5" y1="479.5581" y2="479.5581"/><text fill="#000000" font-family="sans-serif" font-size="13" font-weight="bold" lengthAdjust="spacingAndGlyphs" textLength="21" x="283.5" y="474.7017">302</text><text fill="#000000" font-family="sans-serif" font-size="13" lengthAdjust="spacingAndGlyphs" textLength="52" x="308.5" y="474.7017">生產內容</text><polygon fill="#A80036" points="277.5,508.0742,267.5,512.0742,277.5,516.0742,273.5,512.0742" style="stroke: #A80036; stroke-width: 1.0;"/><polygon fill="#A80036" points="536.5,508.0742,546.5,512.0742,536.5,516.0742,540.5,512.0742" style="stroke: #A80036; stroke-width: 1.0;"/><line style="stroke: #A80036; stroke-width: 1.0;" x1="271.5" x2="542.5" y1="512.0742" y2="512.0742"/><text fill="#000000" font-family="sans-serif" font-size="13" font-weight="bold" lengthAdjust="spacingAndGlyphs" textLength="21" x="283.5" y="507.2178">303</text><text fill="#000000" font-family="sans-serif" font-size="13" lengthAdjust="spacingAndGlyphs" textLength="114" x="308.5" y="507.2178">$&#128176;$ 誰來付錢 $&#128176;$</text><rect fill="#EEEEEE" filter="url(#f1ja0rgp2r5b5n)" height="3" style="stroke: #EEEEEE; stroke-width: 1.0;" width="574.5" x="3" y="542.3323"/><line style="stroke: #000000; stroke-width: 1.0;" x1="3" x2="577.5" y1="542.3323" y2="542.3323"/><line style="stroke: #000000; stroke-width: 1.0;" x1="3" x2="577.5" y1="545.3323" y2="545.3323"/><rect fill="#EEEEEE" filter="url(#f1ja0rgp2r5b5n)" height="26.5161" style="stroke: #000000; stroke-width: 2.0;" width="168" x="206.25" y="530.0742"/><text fill="#000000" font-family="sans-serif" font-size="13" font-weight="bold" lengthAdjust="spacingAndGlyphs" textLength="150" x="212.25" y="549.7339">400 Web 2.0 免費的商品</text><polygon fill="#A80036" points="43,605.6226,33,609.6226,43,613.6226,39,609.6226" style="stroke: #A80036; stroke-width: 1.0;"/><polygon fill="#A80036" points="254.5,605.6226,264.5,609.6226,254.5,613.6226,258.5,609.6226" style="stroke: #A80036; stroke-width: 1.0;"/><line style="stroke: #A80036; stroke-width: 1.0;" x1="37" x2="260.5" y1="609.6226" y2="609.6226"/><text fill="#000000" font-family="sans-serif" font-size="13" font-weight="bold" lengthAdjust="spacingAndGlyphs" textLength="21" x="49" y="595.5081">401</text><text fill="#000000" font-family="sans-serif" font-size="13" lengthAdjust="spacingAndGlyphs" textLength="117" x="74" y="586.25">消費者免費拿到內容</text><text fill="#000000" font-family="sans-serif" font-size="13" lengthAdjust="spacingAndGlyphs" textLength="91" x="74" y="604.7661">給平台收賣個資</text><line style="stroke: #A80036; stroke-width: 1.0;" x1="266.5" x2="308.5" y1="642.1387" y2="642.1387"/><line style="stroke: #A80036; stroke-width: 1.0;" x1="308.5" x2="308.5" y1="642.1387" y2="655.1387"/><line style="stroke: #A80036; stroke-width: 1.0;" x1="267.5" x2="308.5" y1="655.1387" y2="655.1387"/><polygon fill="#A80036" points="277.5,651.1387,267.5,655.1387,277.5,659.1387,273.5,655.1387" style="stroke: #A80036; stroke-width: 1.0;"/><text fill="#000000" font-family="sans-serif" font-size="13" font-weight="bold" lengthAdjust="spacingAndGlyphs" textLength="21" x="273.5" y="637.2822">402</text><text fill="#000000" font-family="sans-serif" font-size="13" lengthAdjust="spacingAndGlyphs" textLength="91" x="298.5" y="637.2822">&#128176;&#128176;&#128176;&#128176;&#128176;&#128176;&#128176;</text><polygon fill="#A80036" points="277.5,702.1709,267.5,706.1709,277.5,710.1709,273.5,706.1709" style="stroke: #A80036; stroke-width: 1.0;"/><polygon fill="#A80036" points="536.5,702.1709,546.5,706.1709,536.5,710.1709,540.5,706.1709" style="stroke: #A80036; stroke-width: 1.0;"/><line style="stroke: #A80036; stroke-width: 1.0;" x1="271.5" x2="542.5" y1="706.1709" y2="706.1709"/><text fill="#000000" font-family="sans-serif" font-size="13" font-weight="bold" lengthAdjust="spacingAndGlyphs" textLength="21" x="283.5" y="692.0564">403</text><text fill="#000000" font-family="sans-serif" font-size="13" lengthAdjust="spacingAndGlyphs" textLength="104" x="308.5" y="682.7983">消費者變成生產者</text><text fill="#000000" font-family="sans-serif" font-size="13" lengthAdjust="spacingAndGlyphs" textLength="104" x="308.5" y="701.3145">在平台販售內容。</text><rect fill="#EEEEEE" filter="url(#f1ja0rgp2r5b5n)" height="3" style="stroke: #EEEEEE; stroke-width: 1.0;" width="574.5" x="3" y="736.429"/><line style="stroke: #000000; stroke-width: 1.0;" x1="3" x2="577.5" y1="736.429" y2="736.429"/><line style="stroke: #000000; stroke-width: 1.0;" x1="3" x2="577.5" y1="739.429" y2="739.429"/><rect fill="#EEEEEE" filter="url(#f1ja0rgp2r5b5n)" height="26.5161" style="stroke: #000000; stroke-width: 2.0;" width="168" x="206.25" y="724.1709"/><text fill="#000000" font-family="sans-serif" font-size="13" font-weight="bold" lengthAdjust="spacingAndGlyphs" textLength="150" x="212.25" y="743.8306">500 Web 3.0 去媒介平台</text><polygon fill="#A80036" points="43,781.2031,33,785.2031,43,789.2031,39,785.2031" style="stroke: #A80036; stroke-width: 1.0;"/><line style="stroke: #A80036; stroke-width: 1.0;" x1="37" x2="547.5" y1="785.2031" y2="785.2031"/><text fill="#000000" font-family="sans-serif" font-size="13" font-weight="bold" lengthAdjust="spacingAndGlyphs" textLength="21" x="49" y="780.3467">501</text><text fill="#000000" font-family="sans-serif" font-size="13" lengthAdjust="spacingAndGlyphs" textLength="221" x="74" y="780.3467">消費者變成生產者，買賣不經那個平台</text><polygon fill="#A80036" points="536.5,813.7192,546.5,817.7192,536.5,821.7192,540.5,817.7192" style="stroke: #A80036; stroke-width: 1.0;"/><line style="stroke: #A80036; stroke-width: 1.0;" x1="32" x2="542.5" y1="817.7192" y2="817.7192"/><text fill="#000000" font-family="sans-serif" font-size="13" font-weight="bold" lengthAdjust="spacingAndGlyphs" textLength="21" x="39" y="812.8628">502</text><text fill="#000000" font-family="sans-serif" font-size="13" lengthAdjust="spacingAndGlyphs" textLength="221" x="64" y="812.8628">生產者變成消費者，買賣不經那個平台</text><!--
@startuml
actor "消費者\nAlice" as Alice #red
participant "Browser\n瀏覽器\nBrowser"  as Browser
participant "Service\n那個平台\nSRV" as SRV
collections "HTTP Server\n超文本傳輸協定服務\nHTTPD" as HTTPD
actor "生產者\nBob" as Bob #yellow
== 100 寫 HTML ==
autonumber 101
Bob -> HTTPD : 上傳或產生 HTML
note left
文字創作、圖片、歌曲、影片、
人際關係、個資、身分識別
end note
== 200 給 HTTP RESPONSE ==
autonumber 201
HTTPD -> Browser : HTTP/1.1 200 OK\n內容 HTML 
Browser -> Alice : 解析HTML內容後\n展現在瀏覽器裡面
== 300 Web 1.0 免費白吃的午餐 ? 注意力與隱私商品化 ==
autonumber 301
Alice <-> SRV : 給我內容
SRV <-> Bob : 生產內容
Bob <-> SRV : $💰$ 誰來付錢 $💰$
== 400 Web 2.0 免費的商品 ==
autonumber 401
SRV <-> Alice : 消費者免費拿到內容\n給平台收賣個資
SRV -> SRV : 💰💰💰💰💰💰💰
Bob <-> SRV : 消費者變成生產者\n在平台販售內容。 
== 500 Web 3.0 去媒介平台 ==
autonumber 501
Bob -> Alice : 消費者變成生產者，買賣不經那個平台
Alice -> Bob : 生產者變成消費者，買賣不經那個平台
@enduml

PlantUML version 1.2019.09(Tue Aug 27 00:19:51 CST 2019)
(GPL source distribution)
Java Runtime: Java(TM) SE Runtime Environment
JVM: Java HotSpot(TM) 64-Bit Server VM
Java Version: 1.8.0_221-b11
Operating System: Windows 10
OS Version: 10.0
Default Encoding: MS950
Language: zh
Country: TW
--></g></svg>