<?xml version="1.0" encoding="UTF-8" standalone="no"?><svg xmlns="http://www.w3.org/2000/svg" xmlns:xlink="http://www.w3.org/1999/xlink" contentScriptType="application/ecmascript" contentStyleType="text/css" height="501px" preserveAspectRatio="none" style="width:740px;height:501px;" version="1.1" viewBox="0 0 740 501" width="740px" zoomAndPan="magnify"><defs><filter height="300%" id="f1ebkb4omwf321" width="300%" x="-1" y="-1"><feGaussianBlur result="blurOut" stdDeviation="2.0"/><feColorMatrix in="blurOut" result="blurOut2" type="matrix" values="0 0 0 0 0 0 0 0 0 0 0 0 0 0 0 0 0 0 .4 0"/><feOffset dx="4.0" dy="4.0" in="blurOut2" result="blurOut3"/><feBlend in="SourceGraphic" in2="blurOut3" mode="normal"/></filter></defs><g><!--cluster MagnetoCorp--><polygon fill="#FFFFFF" filter="url(#f1ebkb4omwf321)" points="108,24,210,24,217,49.9404,331,49.9404,331,141,108,141,108,24" style="stroke: #000000; stroke-width: 1.5;"/><line style="stroke: #000000; stroke-width: 1.5;" x1="108" x2="217" y1="49.9404" y2="49.9404"/><text fill="#000000" font-family="sans-serif" font-size="14" font-weight="bold" lengthAdjust="spacingAndGlyphs" textLength="96" x="112" y="42.8643">MagnetoCorp</text><!--cluster PaperNet--><polygon fill="#FFFFFF" filter="url(#f1ebkb4omwf321)" points="22,193,93,193,100,218.9404,718,218.9404,718,489,22,489,22,193" style="stroke: #000000; stroke-width: 1.5;"/><line style="stroke: #000000; stroke-width: 1.5;" x1="22" x2="100" y1="218.9404" y2="218.9404"/><text fill="#000000" font-family="sans-serif" font-size="14" font-weight="bold" lengthAdjust="spacingAndGlyphs" textLength="65" x="26" y="211.8643">PaperNet</text><!--cluster PNMC--><polygon fill="#FFFFFF" filter="url(#f1ebkb4omwf321)" points="239,239,341,239,348,264.9404,694,264.9404,694,465,239,465,239,239" style="stroke: #000000; stroke-width: 1.5;"/><line style="stroke: #000000; stroke-width: 1.5;" x1="239" x2="348" y1="264.9404" y2="264.9404"/><text fill="#000000" font-family="sans-serif" font-size="14" font-weight="bold" lengthAdjust="spacingAndGlyphs" textLength="96" x="243" y="257.8643">MagnetoCorp</text><!--cluster MPEER--><polygon fill="#FFFFFF" filter="url(#f1ebkb4omwf321)" points="271,293,310,293,317,318.9404,662,318.9404,662,433,271,433,271,293" style="stroke: #000000; stroke-width: 1.5;"/><line style="stroke: #000000; stroke-width: 1.5;" x1="271" x2="317" y1="318.9404" y2="318.9404"/><text fill="#000000" font-family="sans-serif" font-size="14" font-weight="bold" lengthAdjust="spacingAndGlyphs" textLength="33" x="275" y="311.8643">Peer</text><!--entity MAC--><rect fill="#FEFECE" filter="url(#f1ebkb4omwf321)" height="59.8809" style="stroke: #A80036; stroke-width: 1.5;" width="72" x="243" y="63.5"/><text fill="#000000" font-family="sans-serif" font-size="14" lengthAdjust="spacingAndGlyphs" textLength="39" x="253" y="90.3643">Admin</text><text fill="#000000" font-family="sans-serif" font-size="14" lengthAdjust="spacingAndGlyphs" textLength="52" x="253" y="110.3047">Console</text><!--entity MPC--><rect fill="#FEFECE" filter="url(#f1ebkb4omwf321)" height="62.8809" style="stroke: #000000; stroke-width: 1.5;" width="84" x="124" y="62"/><polygon fill="#FEFECE" points="191,67,191,81,203,81,203,73,197,67,191,67" style="stroke: #000000; stroke-width: 1.5;"/><line style="stroke: #000000; stroke-width: 1.5;" x1="197" x2="197" y1="67" y2="73"/><line style="stroke: #000000; stroke-width: 1.5;" x1="203" x2="197" y1="73" y2="73"/><text fill="#000000" font-family="sans-serif" font-size="14" lengthAdjust="spacingAndGlyphs" textLength="38" x="134" y="91.8643">Paper</text><text fill="#000000" font-family="sans-serif" font-size="14" lengthAdjust="spacingAndGlyphs" textLength="54" x="134" y="111.8047">Contract</text><!--entity CA--><polygon fill="#FEFECE" filter="url(#f1ebkb4omwf321)" points="163.5,359,173.5,349,222.5,349,222.5,388.9404,212.5,398.9404,163.5,398.9404,163.5,359" style="stroke: #000000; stroke-width: 1.5;"/><line style="stroke: #000000; stroke-width: 1.5;" x1="212.5" x2="221.5" y1="359" y2="350"/><line style="stroke: #000000; stroke-width: 1.5;" x1="163.5" x2="212.5" y1="359" y2="359"/><line style="stroke: #000000; stroke-width: 1.5;" x1="212.5" x2="212.5" y1="359" y2="398.9404"/><text fill="#000000" font-family="sans-serif" font-size="14" lengthAdjust="spacingAndGlyphs" textLength="19" x="178.5" y="385.8643">CA</text><!--entity Orderer--><polygon fill="#FEFECE" filter="url(#f1ebkb4omwf321)" points="38,359,48,349,128,349,128,388.9404,118,398.9404,38,398.9404,38,359" style="stroke: #000000; stroke-width: 1.5;"/><line style="stroke: #000000; stroke-width: 1.5;" x1="118" x2="127" y1="359" y2="350"/><line style="stroke: #000000; stroke-width: 1.5;" x1="38" x2="118" y1="359" y2="359"/><line style="stroke: #000000; stroke-width: 1.5;" x1="118" x2="118" y1="359" y2="398.9404"/><text fill="#000000" font-family="sans-serif" font-size="14" lengthAdjust="spacingAndGlyphs" textLength="50" x="53" y="385.8643">Orderer</text><!--entity LDB--><polygon fill="#FEFECE" filter="url(#f1ebkb4omwf321)" points="536.5,349,546.5,339,637.5,339,637.5,398.8809,627.5,408.8809,536.5,408.8809,536.5,349" style="stroke: #000000; stroke-width: 1.5;"/><line style="stroke: #000000; stroke-width: 1.5;" x1="627.5" x2="636.5" y1="349" y2="340"/><line style="stroke: #000000; stroke-width: 1.5;" x1="536.5" x2="627.5" y1="349" y2="349"/><line style="stroke: #000000; stroke-width: 1.5;" x1="627.5" x2="627.5" y1="349" y2="408.8809"/><text fill="#000000" font-family="sans-serif" font-size="14" lengthAdjust="spacingAndGlyphs" textLength="45" x="551.5" y="375.8643">Ledger</text><text fill="#000000" font-family="sans-serif" font-size="14" lengthAdjust="spacingAndGlyphs" textLength="61" x="551.5" y="395.8047">Database</text><!--entity PNPC--><rect fill="#FEFECE" filter="url(#f1ebkb4omwf321)" height="62.8809" style="stroke: #000000; stroke-width: 1.5;" width="84" x="314" y="342.5"/><polygon fill="#FEFECE" points="381,347.5,381,361.5,393,361.5,393,353.5,387,347.5,381,347.5" style="stroke: #000000; stroke-width: 1.5;"/><line style="stroke: #000000; stroke-width: 1.5;" x1="387" x2="387" y1="347.5" y2="353.5"/><line style="stroke: #000000; stroke-width: 1.5;" x1="393" x2="387" y1="353.5" y2="353.5"/><text fill="#000000" font-family="sans-serif" font-size="14" lengthAdjust="spacingAndGlyphs" textLength="38" x="324" y="372.3643">Paper</text><text fill="#000000" font-family="sans-serif" font-size="14" lengthAdjust="spacingAndGlyphs" textLength="54" x="324" y="392.3047">Contract</text><!--link MPC to MAC--><path d="M208.375,93.5 C218.164,93.5 227.952,93.5 237.741,93.5 " fill="none" id="MPC-&gt;MAC" style="stroke: #A80036; stroke-width: 1.0;"/><polygon fill="#A80036" points="242.86,93.5,233.86,89.5,237.86,93.5,233.86,97.5,242.86,93.5" style="stroke: #A80036; stroke-width: 1.0;"/><!--link MAC to MPEER--><path d="M279,123.516 C279,158.624 279,219.6098 279,272.495 C279,279.1057 279,285.5897 279,291.8809 " fill="none" id="MAC-&gt;MPEER" style="stroke: #A80036; stroke-width: 1.0;"/><polygon fill="#A80036" points="279,291.8809,283,282.8809,279,286.8809,275,282.8809,279,291.8809" style="stroke: #A80036; stroke-width: 1.0;"/><text fill="#000000" font-family="sans-serif" font-size="13" lengthAdjust="spacingAndGlyphs" textLength="34" x="280" y="173.6597">install</text><!--link PNPC to LDB--><path d="M403.218,374 C440.29,374 492.003,374 531.134,374 " fill="none" id="PNPC-LDB" style="stroke: #A80036; stroke-width: 1.0;"/><polygon fill="#A80036" points="536.326,374,527.326,370,531.326,374,527.326,378,536.326,374" style="stroke: #A80036; stroke-width: 1.0;"/><polygon fill="#A80036" points="398.1,374,407.1,378,403.1,374,407.1,370,398.1,374" style="stroke: #A80036; stroke-width: 1.0;"/><text fill="#000000" font-family="sans-serif" font-size="13" lengthAdjust="spacingAndGlyphs" textLength="102" x="416.25" y="367.6597">getState/putState</text><!--
@startuml
folder MagnetoCorp {
    agent "Admin\nConsole" as MAC
    artifact "Paper\nContract" as MPC
}

folder PaperNet {
    node CA 
    node Orderer
    folder "MagnetoCorp" as PNMC {
       package "Peer" as MPEER {
         node "Ledger\nDatabase" as LDB
         artifact "Paper\nContract" as PNPC
       } 
    }
}
MPC -> MAC
MAC - -> MPEER: install
PNPC <-> LDB: getState/putState
@enduml

PlantUML version 1.2019.09(Tue Aug 27 00:19:51 CST 2019)
(GPL source distribution)
Java Runtime: Java(TM) SE Runtime Environment
JVM: Java HotSpot(TM) 64-Bit Server VM
Java Version: 1.8.0_221-b11
Operating System: Windows 10
OS Version: 10.0
Default Encoding: MS950
Language: zh
Country: TW
--></g></svg>