<?xml version="1.0" encoding="UTF-8" standalone="no"?><svg xmlns="http://www.w3.org/2000/svg" xmlns:xlink="http://www.w3.org/1999/xlink" contentScriptType="application/ecmascript" contentStyleType="text/css" height="363px" preserveAspectRatio="none" style="width:387px;height:363px;" version="1.1" viewBox="0 0 387 363" width="387px" zoomAndPan="magnify"><defs><filter height="300%" id="f19n3eu3bk27ke" width="300%" x="-1" y="-1"><feGaussianBlur result="blurOut" stdDeviation="2.0"/><feColorMatrix in="blurOut" result="blurOut2" type="matrix" values="0 0 0 0 0 0 0 0 0 0 0 0 0 0 0 0 0 0 .4 0"/><feOffset dx="4.0" dy="4.0" in="blurOut2" result="blurOut3"/><feBlend in="SourceGraphic" in2="blurOut3" mode="normal"/></filter></defs><g><line style="stroke: #A80036; stroke-width: 1.0; stroke-dasharray: 5.0,5.0;" x1="60" x2="60" y1="89.9404" y2="272.521"/><line style="stroke: #A80036; stroke-width: 1.0; stroke-dasharray: 5.0,5.0;" x1="140" x2="140" y1="89.9404" y2="272.521"/><line style="stroke: #A80036; stroke-width: 1.0; stroke-dasharray: 5.0,5.0;" x1="208" x2="208" y1="89.9404" y2="272.521"/><line style="stroke: #A80036; stroke-width: 1.0; stroke-dasharray: 5.0,5.0;" x1="280" x2="280" y1="89.9404" y2="272.521"/><line style="stroke: #A80036; stroke-width: 1.0; stroke-dasharray: 5.0,5.0;" x1="343" x2="343" y1="89.9404" y2="272.521"/><rect fill="#FEFECE" filter="url(#f19n3eu3bk27ke)" height="33.9404" style="stroke: #A80036; stroke-width: 1.5;" width="100" x="8" y="51"/><text fill="#000000" font-family="sans-serif" font-size="14" lengthAdjust="spacingAndGlyphs" textLength="86" x="15" y="74.8643">MagnetoCorp</text><rect fill="#FEFECE" filter="url(#f19n3eu3bk27ke)" height="33.9404" style="stroke: #A80036; stroke-width: 1.5;" width="100" x="8" y="271.521"/><text fill="#000000" font-family="sans-serif" font-size="14" lengthAdjust="spacingAndGlyphs" textLength="86" x="15" y="295.3853">MagnetoCorp</text><text fill="#000000" font-family="sans-serif" font-size="14" lengthAdjust="spacingAndGlyphs" textLength="30" x="122" y="86.8643">Alice</text><ellipse cx="140" cy="13" fill="#FF0000" filter="url(#f19n3eu3bk27ke)" rx="8" ry="8" style="stroke: #A80036; stroke-width: 2.0;"/><path d="M140,21 L140,48 M127,29 L153,29 M140,48 L127,63 M140,48 L153,63 " fill="none" filter="url(#f19n3eu3bk27ke)" style="stroke: #A80036; stroke-width: 2.0;"/><text fill="#000000" font-family="sans-serif" font-size="14" lengthAdjust="spacingAndGlyphs" textLength="30" x="122" y="288.3853">Alice</text><ellipse cx="140" cy="301.4614" fill="#FF0000" filter="url(#f19n3eu3bk27ke)" rx="8" ry="8" style="stroke: #A80036; stroke-width: 2.0;"/><path d="M140,309.4614 L140,336.4614 M127,317.4614 L153,317.4614 M140,336.4614 L127,351.4614 M140,336.4614 L153,351.4614 " fill="none" filter="url(#f19n3eu3bk27ke)" style="stroke: #A80036; stroke-width: 2.0;"/><rect fill="#FEFECE" filter="url(#f19n3eu3bk27ke)" height="33.9404" style="stroke: #A80036; stroke-width: 1.5;" width="73" x="172" y="47"/><rect fill="#FEFECE" filter="url(#f19n3eu3bk27ke)" height="33.9404" style="stroke: #A80036; stroke-width: 1.5;" width="73" x="168" y="51"/><text fill="#000000" font-family="sans-serif" font-size="14" lengthAdjust="spacingAndGlyphs" textLength="59" x="175" y="74.8643">PaperNet</text><rect fill="#FEFECE" filter="url(#f19n3eu3bk27ke)" height="33.9404" style="stroke: #A80036; stroke-width: 1.5;" width="73" x="172" y="271.521"/><rect fill="#FEFECE" filter="url(#f19n3eu3bk27ke)" height="33.9404" style="stroke: #A80036; stroke-width: 1.5;" width="73" x="168" y="275.521"/><text fill="#000000" font-family="sans-serif" font-size="14" lengthAdjust="spacingAndGlyphs" textLength="59" x="175" y="299.3853">PaperNet</text><text fill="#000000" font-family="sans-serif" font-size="14" lengthAdjust="spacingAndGlyphs" textLength="25" x="265" y="86.8643">Bob</text><ellipse cx="280.5" cy="13" fill="#FFFF00" filter="url(#f19n3eu3bk27ke)" rx="8" ry="8" style="stroke: #A80036; stroke-width: 2.0;"/><path d="M280.5,21 L280.5,48 M267.5,29 L293.5,29 M280.5,48 L267.5,63 M280.5,48 L293.5,63 " fill="none" filter="url(#f19n3eu3bk27ke)" style="stroke: #A80036; stroke-width: 2.0;"/><text fill="#000000" font-family="sans-serif" font-size="14" lengthAdjust="spacingAndGlyphs" textLength="25" x="265" y="288.3853">Bob</text><ellipse cx="280.5" cy="301.4614" fill="#FFFF00" filter="url(#f19n3eu3bk27ke)" rx="8" ry="8" style="stroke: #A80036; stroke-width: 2.0;"/><path d="M280.5,309.4614 L280.5,336.4614 M267.5,317.4614 L293.5,317.4614 M280.5,336.4614 L267.5,351.4614 M280.5,336.4614 L293.5,351.4614 " fill="none" filter="url(#f19n3eu3bk27ke)" style="stroke: #A80036; stroke-width: 2.0;"/><rect fill="#FEFECE" filter="url(#f19n3eu3bk27ke)" height="33.9404" style="stroke: #A80036; stroke-width: 1.5;" width="70" x="306" y="51"/><text fill="#000000" font-family="sans-serif" font-size="14" lengthAdjust="spacingAndGlyphs" textLength="56" x="313" y="74.8643">DigiBank</text><rect fill="#FEFECE" filter="url(#f19n3eu3bk27ke)" height="33.9404" style="stroke: #A80036; stroke-width: 1.5;" width="70" x="306" y="271.521"/><text fill="#000000" font-family="sans-serif" font-size="14" lengthAdjust="spacingAndGlyphs" textLength="56" x="313" y="295.3853">DigiBank</text><polygon fill="#A80036" points="128,120.4565,138,124.4565,128,128.4565,132,124.4565" style="stroke: #A80036; stroke-width: 1.0;"/><line style="stroke: #A80036; stroke-width: 1.0;" x1="60" x2="134" y1="124.4565" y2="124.4565"/><text fill="#000000" font-family="sans-serif" font-size="13" lengthAdjust="spacingAndGlyphs" textLength="34" x="67" y="119.6001">Authz</text><polygon fill="#A80036" points="291.5,152.9727,281.5,156.9727,291.5,160.9727,287.5,156.9727" style="stroke: #A80036; stroke-width: 1.0;"/><line style="stroke: #A80036; stroke-width: 1.0;" x1="285.5" x2="342" y1="156.9727" y2="156.9727"/><text fill="#000000" font-family="sans-serif" font-size="13" lengthAdjust="spacingAndGlyphs" textLength="34" x="297.5" y="152.1162">Authz</text><polygon fill="#A80036" points="196.5,185.4888,206.5,189.4888,196.5,193.4888,200.5,189.4888" style="stroke: #A80036; stroke-width: 1.0;"/><line style="stroke: #A80036; stroke-width: 1.0;" x1="140" x2="202.5" y1="189.4888" y2="189.4888"/><text fill="#000000" font-family="sans-serif" font-size="13" lengthAdjust="spacingAndGlyphs" textLength="31" x="147" y="184.6323">Issue</text><polygon fill="#A80036" points="219.5,218.0049,209.5,222.0049,219.5,226.0049,215.5,222.0049" style="stroke: #A80036; stroke-width: 1.0;"/><line style="stroke: #A80036; stroke-width: 1.0;" x1="213.5" x2="279.5" y1="222.0049" y2="222.0049"/><text fill="#000000" font-family="sans-serif" font-size="13" lengthAdjust="spacingAndGlyphs" textLength="23" x="225.5" y="217.1484">Buy</text><polygon fill="#A80036" points="219.5,250.521,209.5,254.521,219.5,258.521,215.5,254.521" style="stroke: #A80036; stroke-width: 1.0;"/><line style="stroke: #A80036; stroke-width: 1.0;" x1="213.5" x2="279.5" y1="254.521" y2="254.521"/><text fill="#000000" font-family="sans-serif" font-size="13" lengthAdjust="spacingAndGlyphs" textLength="48" x="225.5" y="249.6646">Redeem</text><!--
@startuml
participant MagnetoCorp as COM
actor Alice as Alice #red
collections PaperNet as NET
actor Bob as Bob #Yellow
participant DigiBank as BANK
COM -> Alice: Authz
BANK -> Bob: Authz
Alice -> NET: Issue
Bob -> NET:  Buy 
Bob -> NET: Redeem
@enduml

PlantUML version 1.2019.09(Tue Aug 27 00:19:51 CST 2019)
(GPL source distribution)
Java Runtime: Java(TM) SE Runtime Environment
JVM: Java HotSpot(TM) 64-Bit Server VM
Java Version: 1.8.0_221-b11
Operating System: Windows 10
OS Version: 10.0
Default Encoding: MS950
Language: zh
Country: TW
--></g></svg>