<?xml version="1.0" encoding="UTF-8" standalone="no"?><svg xmlns="http://www.w3.org/2000/svg" xmlns:xlink="http://www.w3.org/1999/xlink" contentScriptType="application/ecmascript" contentStyleType="text/css" height="415px" preserveAspectRatio="none" style="width:545px;height:415px;" version="1.1" viewBox="0 0 545 415" width="545px" zoomAndPan="magnify"><defs><filter height="300%" id="fneobyerssr7c" width="300%" x="-1" y="-1"><feGaussianBlur result="blurOut" stdDeviation="2.0"/><feColorMatrix in="blurOut" result="blurOut2" type="matrix" values="0 0 0 0 0 0 0 0 0 0 0 0 0 0 0 0 0 0 .4 0"/><feOffset dx="4.0" dy="4.0" in="blurOut2" result="blurOut3"/><feBlend in="SourceGraphic" in2="blurOut3" mode="normal"/></filter></defs><g><line style="stroke: #A80036; stroke-width: 1.0; stroke-dasharray: 5.0,5.0;" x1="142" x2="142" y1="89.9404" y2="325.0371"/><line style="stroke: #A80036; stroke-width: 1.0; stroke-dasharray: 5.0,5.0;" x1="255.5" x2="255.5" y1="89.9404" y2="325.0371"/><line style="stroke: #A80036; stroke-width: 1.0; stroke-dasharray: 5.0,5.0;" x1="343.5" x2="343.5" y1="89.9404" y2="325.0371"/><text fill="#000000" font-family="sans-serif" font-size="14" lengthAdjust="spacingAndGlyphs" textLength="30" x="124" y="86.8643">Alice</text><ellipse cx="142" cy="13" fill="#FFFF00" filter="url(#fneobyerssr7c)" rx="8" ry="8" style="stroke: #A80036; stroke-width: 2.0;"/><path d="M142,21 L142,48 M129,29 L155,29 M142,48 L129,63 M142,48 L155,63 " fill="none" filter="url(#fneobyerssr7c)" style="stroke: #A80036; stroke-width: 2.0;"/><text fill="#000000" font-family="sans-serif" font-size="14" lengthAdjust="spacingAndGlyphs" textLength="30" x="124" y="340.9014">Alice</text><ellipse cx="142" cy="353.9775" fill="#FFFF00" filter="url(#fneobyerssr7c)" rx="8" ry="8" style="stroke: #A80036; stroke-width: 2.0;"/><path d="M142,361.9775 L142,388.9775 M129,369.9775 L155,369.9775 M142,388.9775 L129,403.9775 M142,388.9775 L155,403.9775 " fill="none" filter="url(#fneobyerssr7c)" style="stroke: #A80036; stroke-width: 2.0;"/><rect fill="#FFFF00" filter="url(#fneobyerssr7c)" height="33.9404" style="stroke: #A80036; stroke-width: 1.5;" width="113" x="197.5" y="51"/><text fill="#000000" font-family="sans-serif" font-size="14" lengthAdjust="spacingAndGlyphs" textLength="99" x="204.5" y="74.8643">Random Oracle</text><rect fill="#FFFF00" filter="url(#fneobyerssr7c)" height="33.9404" style="stroke: #A80036; stroke-width: 1.5;" width="113" x="197.5" y="324.0371"/><text fill="#000000" font-family="sans-serif" font-size="14" lengthAdjust="spacingAndGlyphs" textLength="99" x="204.5" y="347.9014">Random Oracle</text><text fill="#000000" font-family="sans-serif" font-size="14" lengthAdjust="spacingAndGlyphs" textLength="25" x="328.5" y="86.8643">Bob</text><ellipse cx="344" cy="13" fill="#FEFECE" filter="url(#fneobyerssr7c)" rx="8" ry="8" style="stroke: #A80036; stroke-width: 2.0;"/><path d="M344,21 L344,48 M331,29 L357,29 M344,48 L331,63 M344,48 L357,63 " fill="none" filter="url(#fneobyerssr7c)" style="stroke: #A80036; stroke-width: 2.0;"/><text fill="#000000" font-family="sans-serif" font-size="14" lengthAdjust="spacingAndGlyphs" textLength="25" x="328.5" y="340.9014">Bob</text><ellipse cx="344" cy="353.9775" fill="#FEFECE" filter="url(#fneobyerssr7c)" rx="8" ry="8" style="stroke: #A80036; stroke-width: 2.0;"/><path d="M344,361.9775 L344,388.9775 M331,369.9775 L357,369.9775 M344,388.9775 L331,403.9775 M344,388.9775 L357,403.9775 " fill="none" filter="url(#fneobyerssr7c)" style="stroke: #A80036; stroke-width: 2.0;"/><rect fill="#EEEEEE" filter="url(#fneobyerssr7c)" height="3" style="stroke: #EEEEEE; stroke-width: 1.0;" width="530" x="3" y="122.1985"/><line style="stroke: #000000; stroke-width: 1.0;" x1="3" x2="533" y1="122.1985" y2="122.1985"/><line style="stroke: #000000; stroke-width: 1.0;" x1="3" x2="533" y1="125.1985" y2="125.1985"/><rect fill="#EEEEEE" filter="url(#fneobyerssr7c)" height="26.5161" style="stroke: #000000; stroke-width: 2.0;" width="142" x="197" y="109.9404"/><text fill="#000000" font-family="sans-serif" font-size="13" font-weight="bold" lengthAdjust="spacingAndGlyphs" textLength="124" x="203" y="129.6001">100 Random Oracle</text><polygon fill="#A80036" points="244,166.9727,254,170.9727,244,174.9727,248,170.9727" style="stroke: #A80036; stroke-width: 1.0;"/><line style="stroke: #A80036; stroke-width: 1.0;" x1="142" x2="250" y1="170.9727" y2="170.9727"/><text fill="#000000" font-family="sans-serif" font-size="13" font-weight="bold" lengthAdjust="spacingAndGlyphs" textLength="21" x="149" y="166.1162">101</text><text fill="#000000" font-family="sans-serif" font-size="13" lengthAdjust="spacingAndGlyphs" textLength="39" x="174" y="166.1162">輸入值</text><polygon fill="#A80036" points="153,204.4888,143,208.4888,153,212.4888,149,208.4888" style="stroke: #A80036; stroke-width: 1.0;"/><line style="stroke: #A80036; stroke-width: 1.0;" x1="147" x2="255" y1="208.4888" y2="208.4888"/><text fill="#000000" font-family="sans-serif" font-size="13" font-weight="bold" lengthAdjust="spacingAndGlyphs" textLength="21" x="159" y="203.6323">102</text><text fill="#000000" font-family="sans-serif" font-size="13" lengthAdjust="spacingAndGlyphs" textLength="65" x="184" y="203.6323">輸出隨機值</text><path d="M8,183.9727 L8,211.9727 L133,211.9727 L133,193.9727 L123,183.9727 L8,183.9727 " fill="#FBFB77" filter="url(#fneobyerssr7c)" style="stroke: #A80036; stroke-width: 1.0;"/><path d="M123,183.9727 L123,193.9727 L133,193.9727 L123,183.9727 " fill="#FBFB77" style="stroke: #A80036; stroke-width: 1.0;"/><text fill="#000000" font-family="sans-serif" font-size="13" lengthAdjust="spacingAndGlyphs" textLength="104" x="14" y="204.6323">隨機分佈在值域內</text><polygon fill="#A80036" points="267,242.0049,257,246.0049,267,250.0049,263,246.0049" style="stroke: #A80036; stroke-width: 1.0;"/><line style="stroke: #A80036; stroke-width: 1.0;" x1="261" x2="343" y1="246.0049" y2="246.0049"/><text fill="#000000" font-family="sans-serif" font-size="13" font-weight="bold" lengthAdjust="spacingAndGlyphs" textLength="21" x="273" y="241.1484">103</text><text fill="#000000" font-family="sans-serif" font-size="13" lengthAdjust="spacingAndGlyphs" textLength="39" x="298" y="241.1484">輸入值</text><polygon fill="#A80036" points="332,288.7791,342,292.7791,332,296.7791,336,292.7791" style="stroke: #A80036; stroke-width: 1.0;"/><line style="stroke: #A80036; stroke-width: 1.0;" x1="256" x2="338" y1="292.7791" y2="292.7791"/><text fill="#000000" font-family="sans-serif" font-size="13" font-weight="bold" lengthAdjust="spacingAndGlyphs" textLength="21" x="263" y="287.9226">104</text><text fill="#000000" font-family="sans-serif" font-size="13" lengthAdjust="spacingAndGlyphs" textLength="39" x="288" y="287.9226">隨機值</text><path d="M349,259.0049 L349,306.0049 L519,306.0049 L519,269.0049 L509,259.0049 L349,259.0049 " fill="#FBFB77" filter="url(#fneobyerssr7c)" style="stroke: #A80036; stroke-width: 1.0;"/><path d="M509,259.0049 L509,269.0049 L519,269.0049 L509,259.0049 " fill="#FBFB77" style="stroke: #A80036; stroke-width: 1.0;"/><text fill="#000000" font-family="sans-serif" font-size="13" lengthAdjust="spacingAndGlyphs" textLength="149" x="355" y="279.6646">如 103 輸入值與 101 一樣</text><text fill="#000000" font-family="sans-serif" font-size="13" lengthAdjust="spacingAndGlyphs" textLength="119" x="355" y="298.1807">104 值會與 102 相同</text><!--
@startuml
actor Alice #yellow
participant "Random Oracle" as RO #yellow
actor Bob

== 100 Random Oracle ==
autonumber 101
Alice -> RO: 輸入值
Alice <- RO: 輸出隨機值
note left
隨機分佈在值域內
end note
Bob -> RO: 輸入值
Bob <- RO: 隨機值
note right
如 103 輸入值與 101 一樣
104 值會與 102 相同
end note
@enduml

PlantUML version 1.2019.09(Tue Aug 27 00:19:51 CST 2019)
(GPL source distribution)
Java Runtime: Java(TM) SE Runtime Environment
JVM: Java HotSpot(TM) 64-Bit Server VM
Java Version: 1.8.0_221-b11
Operating System: Windows 10
OS Version: 10.0
Default Encoding: MS950
Language: zh
Country: TW
--></g></svg>