<?xml version="1.0" encoding="UTF-8" standalone="no"?><svg xmlns="http://www.w3.org/2000/svg" xmlns:xlink="http://www.w3.org/1999/xlink" contentScriptType="application/ecmascript" contentStyleType="text/css" height="724px" preserveAspectRatio="none" style="width:527px;height:724px;" version="1.1" viewBox="0 0 527 724" width="527px" zoomAndPan="magnify"><defs><filter height="300%" id="f5p1serwk34s4" width="300%" x="-1" y="-1"><feGaussianBlur result="blurOut" stdDeviation="2.0"/><feColorMatrix in="blurOut" result="blurOut2" type="matrix" values="0 0 0 0 0 0 0 0 0 0 0 0 0 0 0 0 0 0 .4 0"/><feOffset dx="4.0" dy="4.0" in="blurOut2" result="blurOut3"/><feBlend in="SourceGraphic" in2="blurOut3" mode="normal"/></filter></defs><g><!--cluster MagnetoCorp--><polygon fill="#FFFFFF" filter="url(#f5p1serwk34s4)" points="242,24,344,24,351,49.9404,354,49.9404,354,138,242,138,242,24" style="stroke: #000000; stroke-width: 1.5;"/><line style="stroke: #000000; stroke-width: 1.5;" x1="242" x2="351" y1="49.9404" y2="49.9404"/><text fill="#000000" font-family="sans-serif" font-size="14" font-weight="bold" lengthAdjust="spacingAndGlyphs" textLength="96" x="246" y="42.8643">MagnetoCorp</text><!--cluster PaperNet--><polygon fill="#FFFFFF" filter="url(#f5p1serwk34s4)" points="22,196,93,196,100,221.9404,505,221.9404,505,712,22,712,22,196" style="stroke: #000000; stroke-width: 1.5;"/><line style="stroke: #000000; stroke-width: 1.5;" x1="22" x2="100" y1="221.9404" y2="221.9404"/><text fill="#000000" font-family="sans-serif" font-size="14" font-weight="bold" lengthAdjust="spacingAndGlyphs" textLength="65" x="26" y="214.8643">PaperNet</text><!--cluster PNMC--><polygon fill="#FFFFFF" filter="url(#f5p1serwk34s4)" points="239,242,341,242,348,267.9404,481,267.9404,481,688,239,688,239,242" style="stroke: #000000; stroke-width: 1.5;"/><line style="stroke: #000000; stroke-width: 1.5;" x1="239" x2="348" y1="267.9404" y2="267.9404"/><text fill="#000000" font-family="sans-serif" font-size="14" font-weight="bold" lengthAdjust="spacingAndGlyphs" textLength="96" x="243" y="260.8643">MagnetoCorp</text><!--cluster MPEER--><polygon fill="#FFFFFF" filter="url(#f5p1serwk34s4)" points="290,296,329,296,336,321.9404,441,321.9404,441,429,290,429,290,296" style="stroke: #000000; stroke-width: 1.5;"/><line style="stroke: #000000; stroke-width: 1.5;" x1="290" x2="336" y1="321.9404" y2="321.9404"/><text fill="#000000" font-family="sans-serif" font-size="14" font-weight="bold" lengthAdjust="spacingAndGlyphs" textLength="33" x="294" y="314.8643">Peer</text><!--cluster CC--><polygon fill="#FFFFFF" filter="url(#f5p1serwk34s4)" points="290,503,371,503,378,548.8809,441,548.8809,441,656,290,656,290,503" style="stroke: #000000; stroke-width: 1.5;"/><line style="stroke: #000000; stroke-width: 1.5;" x1="290" x2="378" y1="548.8809" y2="548.8809"/><text fill="#000000" font-family="sans-serif" font-size="14" font-weight="bold" lengthAdjust="spacingAndGlyphs" textLength="75" x="294" y="521.8643">Chaincode</text><text fill="#000000" font-family="sans-serif" font-size="14" font-weight="bold" lengthAdjust="spacingAndGlyphs" textLength="69" x="297" y="541.8047">Container</text><!--entity MAC--><rect fill="#FEFECE" filter="url(#f5p1serwk34s4)" height="59.8809" style="stroke: #A80036; stroke-width: 1.5;" width="72" x="262" y="62"/><text fill="#000000" font-family="sans-serif" font-size="14" lengthAdjust="spacingAndGlyphs" textLength="39" x="272" y="88.8643">Admin</text><text fill="#000000" font-family="sans-serif" font-size="14" lengthAdjust="spacingAndGlyphs" textLength="52" x="272" y="108.8047">Console</text><!--entity CA--><polygon fill="#FEFECE" filter="url(#f5p1serwk34s4)" points="163.5,358.5,173.5,348.5,222.5,348.5,222.5,388.4404,212.5,398.4404,163.5,398.4404,163.5,358.5" style="stroke: #000000; stroke-width: 1.5;"/><line style="stroke: #000000; stroke-width: 1.5;" x1="212.5" x2="221.5" y1="358.5" y2="349.5"/><line style="stroke: #000000; stroke-width: 1.5;" x1="163.5" x2="212.5" y1="358.5" y2="358.5"/><line style="stroke: #000000; stroke-width: 1.5;" x1="212.5" x2="212.5" y1="358.5" y2="398.4404"/><text fill="#000000" font-family="sans-serif" font-size="14" lengthAdjust="spacingAndGlyphs" textLength="19" x="178.5" y="385.3643">CA</text><!--entity Orderer--><polygon fill="#FEFECE" filter="url(#f5p1serwk34s4)" points="38,358.5,48,348.5,128,348.5,128,388.4404,118,398.4404,38,398.4404,38,358.5" style="stroke: #000000; stroke-width: 1.5;"/><line style="stroke: #000000; stroke-width: 1.5;" x1="118" x2="127" y1="358.5" y2="349.5"/><line style="stroke: #000000; stroke-width: 1.5;" x1="38" x2="118" y1="358.5" y2="358.5"/><line style="stroke: #000000; stroke-width: 1.5;" x1="118" x2="118" y1="358.5" y2="398.4404"/><text fill="#000000" font-family="sans-serif" font-size="14" lengthAdjust="spacingAndGlyphs" textLength="50" x="53" y="385.3643">Orderer</text><!--entity PNPC--><rect fill="#FEFECE" filter="url(#f5p1serwk34s4)" height="62.8809" style="stroke: #000000; stroke-width: 1.5;" width="84" x="333" y="342"/><polygon fill="#FEFECE" points="400,347,400,361,412,361,412,353,406,347,400,347" style="stroke: #000000; stroke-width: 1.5;"/><line style="stroke: #000000; stroke-width: 1.5;" x1="406" x2="406" y1="347" y2="353"/><line style="stroke: #000000; stroke-width: 1.5;" x1="412" x2="406" y1="353" y2="353"/><text fill="#000000" font-family="sans-serif" font-size="14" lengthAdjust="spacingAndGlyphs" textLength="38" x="343" y="371.8643">Paper</text><text fill="#000000" font-family="sans-serif" font-size="14" lengthAdjust="spacingAndGlyphs" textLength="54" x="343" y="391.8047">Contract</text><!--entity PNPC_CC--><rect fill="#FEFECE" filter="url(#f5p1serwk34s4)" height="62.8809" style="stroke: #000000; stroke-width: 1.5;" width="84" x="333" y="569"/><polygon fill="#FEFECE" points="400,574,400,588,412,588,412,580,406,574,400,574" style="stroke: #000000; stroke-width: 1.5;"/><line style="stroke: #000000; stroke-width: 1.5;" x1="406" x2="406" y1="574" y2="580"/><line style="stroke: #000000; stroke-width: 1.5;" x1="412" x2="406" y1="580" y2="580"/><text fill="#000000" font-family="sans-serif" font-size="14" lengthAdjust="spacingAndGlyphs" textLength="38" x="343" y="598.8643">Paper</text><text fill="#000000" font-family="sans-serif" font-size="14" lengthAdjust="spacingAndGlyphs" textLength="54" x="343" y="618.8047">Contract</text><!--link MAC to MPEER--><path d="M298,122.12 C298,157.3545 298,218.5593 298,271.6343 C298,278.2686 298,284.776 298,291.0897 C298,292.6681 298,294.2344 298,295.7876 " fill="none" id="MAC-&gt;MPEER" style="stroke: #A80036; stroke-width: 1.0;"/><polygon fill="#A80036" points="298,295.7876,302,286.7876,298,290.7876,294,286.7876,298,295.7876" style="stroke: #A80036; stroke-width: 1.0;"/><text fill="#000000" font-family="sans-serif" font-size="17" font-weight="bold" lengthAdjust="spacingAndGlyphs" textLength="101" x="299" y="175.478">1. Instantiate</text><!--link MPEER to CC--><path d="M298.4819,429.3452 C298.4594,429.4652 298.4367,429.5851 298.4137,429.7051 C298.322,430.1847 298.2268,430.6636 298.128,431.1415 C297.9305,432.0973 297.7187,433.0492 297.4919,433.9957 C296.5846,437.7818 295.437,441.4818 294,445 C292.214,449.374 288.662,448.577 287,453 C282.936,463.817 286.474,467.456 287,479 C287.6023,492.2208 288.5743,506.2321 289.6975,519.8443 C289.7678,520.6951 289.8385,521.5443 289.9099,522.3916 C289.9277,522.6035 289.9456,522.8152 289.9635,523.0268 " fill="none" id="MPEER-&gt;CC" style="stroke: #A80036; stroke-width: 1.0;"/><polygon fill="#A80036" points="289.9635,523.0268,293.1906,513.7217,289.542,518.0446,285.2191,514.396,289.9635,523.0268" style="stroke: #A80036; stroke-width: 1.0;"/><text fill="#000000" font-family="sans-serif" font-size="17" font-weight="bold" lengthAdjust="spacingAndGlyphs" textLength="71" x="288" y="474.478">2. Create</text><!--link PNPC to PNPC_CC--><path d="M375,405.314 C375,446.602 375,519.739 375,563.51 " fill="none" id="PNPC-&gt;PNPC_CC" style="stroke: #A80036; stroke-width: 1.0;"/><polygon fill="#A80036" points="375,568.698,379,559.698,375,563.698,371,559.698,375,568.698" style="stroke: #A80036; stroke-width: 1.0;"/><text fill="#000000" font-family="sans-serif" font-size="17" font-weight="bold" lengthAdjust="spacingAndGlyphs" textLength="60" x="376" y="474.478">3. Copy</text><!--
@startuml
folder MagnetoCorp {
    agent "Admin\nConsole" as MAC
}

folder PaperNet {
    node CA 
    node Orderer
    folder "MagnetoCorp" as PNMC {
       package "Peer" as MPEER {
           artifact "Paper\nContract" as PNPC
       } 
       package "Chaincode\nContainer" as CC { 
         artifact "Paper\nContract" as PNPC_CC
       }
    }
}
MAC - -> MPEER: = 1. Instantiate
MPEER - -> CC : = 2. Create
PNPC - -> PNPC_CC: = 3. Copy
@enduml

PlantUML version 1.2019.09(Tue Aug 27 00:19:51 CST 2019)
(GPL source distribution)
Java Runtime: Java(TM) SE Runtime Environment
JVM: Java HotSpot(TM) 64-Bit Server VM
Java Version: 1.8.0_221-b11
Operating System: Windows 10
OS Version: 10.0
Default Encoding: MS950
Language: zh
Country: TW
--></g></svg>