<?xml version="1.0" encoding="UTF-8" standalone="no"?><svg xmlns="http://www.w3.org/2000/svg" xmlns:xlink="http://www.w3.org/1999/xlink" contentScriptType="application/ecmascript" contentStyleType="text/css" height="444px" preserveAspectRatio="none" style="width:328px;height:444px;" version="1.1" viewBox="0 0 328 444" width="328px" zoomAndPan="magnify"><defs><filter height="300%" id="ffhjjnymyb0ck" width="300%" x="-1" y="-1"><feGaussianBlur result="blurOut" stdDeviation="2.0"/><feColorMatrix in="blurOut" result="blurOut2" type="matrix" values="0 0 0 0 0 0 0 0 0 0 0 0 0 0 0 0 0 0 .4 0"/><feOffset dx="4.0" dy="4.0" in="blurOut2" result="blurOut3"/><feBlend in="SourceGraphic" in2="blurOut3" mode="normal"/></filter></defs><g><ellipse cx="16" cy="50" fill="#000000" filter="url(#ffhjjnymyb0ck)" rx="10" ry="10" style="stroke: none; stroke-width: 1.0;"/><rect fill="#FEFECE" filter="url(#ffhjjnymyb0ck)" height="50" rx="12.5" ry="12.5" style="stroke: #A80036; stroke-width: 1.5;" width="61" x="71.5" y="172"/><line style="stroke: #A80036; stroke-width: 1.5;" x1="71.5" x2="132.5" y1="201.9404" y2="201.9404"/><text fill="#000000" font-family="sans-serif" font-size="14" lengthAdjust="spacingAndGlyphs" textLength="41" x="81.5" y="193.8643">issued</text><path d="M61,8 L61,92.0645 A0,0 0 0 0 61,92.0645 L159.586,92.0645 L116.255,171.965 L167.586,92.0645 L315,92.0645 A0,0 0 0 0 315,92.0645 L315,18 L305,8 L61,8 A0,0 0 0 0 61,8 " fill="#FBFB77" filter="url(#ffhjjnymyb0ck)" style="stroke: #A80036; stroke-width: 1.0;"/><path d="M305,8 L305,18 L315,18 L305,8 " fill="#FBFB77" style="stroke: #A80036; stroke-width: 1.0;"/><text fill="#000000" font-family="sans-serif" font-size="13" lengthAdjust="spacingAndGlyphs" textLength="221" x="67" y="28.6597">Commercial papers transition between</text><text fill="#000000" font-family="sans-serif" font-size="13" lengthAdjust="spacingAndGlyphs" textLength="211" x="67" y="47.1758">issued, trading and redeemed states</text><text fill="#000000" font-family="sans-serif" font-size="13" lengthAdjust="spacingAndGlyphs" textLength="229" x="67" y="65.6919">by means of the issue, buy and redeem</text><text fill="#000000" font-family="sans-serif" font-size="13" lengthAdjust="spacingAndGlyphs" textLength="75" x="67" y="84.208">transactions.</text><rect fill="#FEFECE" filter="url(#ffhjjnymyb0ck)" height="50" rx="12.5" ry="12.5" style="stroke: #A80036; stroke-width: 1.5;" width="64" x="190" y="172"/><line style="stroke: #A80036; stroke-width: 1.5;" x1="190" x2="254" y1="201.9404" y2="201.9404"/><text fill="#000000" font-family="sans-serif" font-size="14" lengthAdjust="spacingAndGlyphs" textLength="44" x="200" y="193.8643">trading</text><rect fill="#FEFECE" filter="url(#ffhjjnymyb0ck)" height="50" rx="12.5" ry="12.5" style="stroke: #A80036; stroke-width: 1.5;" width="84" x="180" y="302"/><line style="stroke: #A80036; stroke-width: 1.5;" x1="180" x2="264" y1="331.9404" y2="331.9404"/><text fill="#000000" font-family="sans-serif" font-size="14" lengthAdjust="spacingAndGlyphs" textLength="64" x="190" y="323.8643">redeemed</text><ellipse cx="222" cy="423" fill="none" filter="url(#ffhjjnymyb0ck)" rx="10" ry="10" style="stroke: #000000; stroke-width: 1.0;"/><ellipse cx="222.5" cy="423.5" fill="#000000" rx="6" ry="6" style="stroke: none; stroke-width: 1.0;"/><!--link *start to issued--><path d="M20.8701,59.211 C33.0103,79.68 65.0749,133.742 85.0666,167.449 " fill="none" id="*start-&gt;issued" style="stroke: #A80036; stroke-width: 1.0;"/><polygon fill="#A80036" points="87.6834,171.862,86.5313,162.0808,85.1321,167.5619,79.651,166.1628,87.6834,171.862" style="stroke: #A80036; stroke-width: 1.0;"/><text fill="#000000" font-family="sans-serif" font-size="13" lengthAdjust="spacingAndGlyphs" textLength="31" x="71" y="138.6597">issue</text><!--link issued to trading--><path d="M132.592,197 C148.45,197 167.949,197 184.687,197 " fill="none" id="issued-&gt;trading" style="stroke: #A80036; stroke-width: 1.0;"/><polygon fill="#A80036" points="189.785,197,180.785,193,184.785,197,180.785,201,189.785,197" style="stroke: #A80036; stroke-width: 1.0;"/><text fill="#000000" font-family="sans-serif" font-size="13" lengthAdjust="spacingAndGlyphs" textLength="21" x="150.75" y="190.6597">buy</text><!--link trading to trading--><path d="M254.055,185.616 C272.2,183.393 289,187.187 289,197 C289,205.893 275.203,209.843 259.11,208.851 " fill="none" id="trading-&gt;trading" style="stroke: #A80036; stroke-width: 1.0;"/><polygon fill="#A80036" points="254.055,208.384,262.6488,213.1951,259.0338,208.844,263.3848,205.229,254.055,208.384" style="stroke: #A80036; stroke-width: 1.0;"/><text fill="#000000" font-family="sans-serif" font-size="13" lengthAdjust="spacingAndGlyphs" textLength="21" x="295" y="203.6597">buy</text><!--link trading to redeemed--><path d="M222,222.076 C222,243.128 222,273.775 222,296.336 " fill="none" id="trading-&gt;redeemed" style="stroke: #A80036; stroke-width: 1.0;"/><polygon fill="#A80036" points="222,301.597,226,292.597,222,296.597,218,292.597,222,301.597" style="stroke: #A80036; stroke-width: 1.0;"/><text fill="#000000" font-family="sans-serif" font-size="13" lengthAdjust="spacingAndGlyphs" textLength="43" x="223" y="268.6597">redeem</text><!--link redeemed to *end--><path d="M222,352.2073 C222,369.8423 222,393.1261 222,407.8351 " fill="none" id="redeemed-&gt;*end" style="stroke: #A80036; stroke-width: 1.0;"/><polygon fill="#A80036" points="222,412.8399,226,403.8399,222,407.8399,218,403.8399,222,412.8399" style="stroke: #A80036; stroke-width: 1.0;"/><!--
@startuml
[*] - -> issued : issue
note top
 Commercial papers transition between 
 issued, trading and redeemed states 
 by means of the issue, buy and redeem 
 transactions.
end note
issued -> trading : buy
trading -> trading: buy
trading -down-> redeemed: redeem
redeemed - -> [*]
@enduml

PlantUML version 1.2019.09(Tue Aug 27 00:19:51 CST 2019)
(GPL source distribution)
Java Runtime: Java(TM) SE Runtime Environment
JVM: Java HotSpot(TM) 64-Bit Server VM
Java Version: 1.8.0_221-b11
Operating System: Windows 10
OS Version: 10.0
Default Encoding: MS950
Language: zh
Country: TW
--></g></svg>