<?xml version="1.0" encoding="UTF-8" standalone="no"?><svg xmlns="http://www.w3.org/2000/svg" xmlns:xlink="http://www.w3.org/1999/xlink" contentScriptType="application/ecmascript" contentStyleType="text/css" height="437px" preserveAspectRatio="none" style="width:522px;height:437px;" version="1.1" viewBox="0 0 522 437" width="522px" zoomAndPan="magnify"><defs><filter height="300%" id="fzxmmcg38o961" width="300%" x="-1" y="-1"><feGaussianBlur result="blurOut" stdDeviation="2.0"/><feColorMatrix in="blurOut" result="blurOut2" type="matrix" values="0 0 0 0 0 0 0 0 0 0 0 0 0 0 0 0 0 0 .4 0"/><feOffset dx="4.0" dy="4.0" in="blurOut2" result="blurOut3"/><feBlend in="SourceGraphic" in2="blurOut3" mode="normal"/></filter></defs><g><ellipse cx="16" cy="87" fill="#000000" filter="url(#fzxmmcg38o961)" rx="10" ry="10" style="stroke: none; stroke-width: 1.0;"/><rect fill="#FEFECE" filter="url(#fzxmmcg38o961)" height="50" rx="12.5" ry="12.5" style="stroke: #A80036; stroke-width: 1.5;" width="61" x="120.5" y="246"/><line style="stroke: #A80036; stroke-width: 1.5;" x1="120.5" x2="181.5" y1="275.9404" y2="275.9404"/><text fill="#000000" font-family="sans-serif" font-size="14" lengthAdjust="spacingAndGlyphs" textLength="41" x="130.5" y="267.8643">issued</text><path d="M61.5,8 L61.5,166.1289 A0,0 0 0 0 61.5,166.1289 L223.964,166.1289 L168.936,245.82 L231.964,166.1289 L510.5,166.1289 A0,0 0 0 0 510.5,166.1289 L510.5,18 L500.5,8 L61.5,8 A0,0 0 0 0 61.5,8 " fill="#FBFB77" filter="url(#fzxmmcg38o961)" style="stroke: #A80036; stroke-width: 1.0;"/><path d="M500.5,8 L500.5,18 L510.5,18 L500.5,8 " fill="#FBFB77" style="stroke: #A80036; stroke-width: 1.0;"/><text fill="#000000" font-family="sans-serif" font-size="13" lengthAdjust="spacingAndGlyphs" textLength="187" x="67.5" y="28.6597">EIP 20: ERC-20 Token Standard</text><text fill="#000000" font-family="sans-serif" font-size="13" lengthAdjust="spacingAndGlyphs" textLength="281" x="71.5" y="47.1758">mapping (address =&gt; uint256) private _balances;</text><text fill="#000000" font-family="sans-serif" font-size="13" lengthAdjust="spacingAndGlyphs" textLength="424" x="71.5" y="65.6919">mapping (address =&gt; mapping (address =&gt; uint256)) private _allowances;</text><text fill="#000000" font-family="sans-serif" font-size="13" lengthAdjust="spacingAndGlyphs" textLength="0" x="71.5" y="84.208"/><text fill="#000000" font-family="sans-serif" font-size="13" lengthAdjust="spacingAndGlyphs" textLength="247" x="71.5" y="102.7241">transfer(address recipient, uint256 amount)</text><text fill="#000000" font-family="sans-serif" font-size="13" lengthAdjust="spacingAndGlyphs" textLength="253" x="71.5" y="121.2402">allowance(address owner, address spender)</text><text fill="#000000" font-family="sans-serif" font-size="13" lengthAdjust="spacingAndGlyphs" textLength="245" x="71.5" y="139.7563">approve(address spender, uint256 amount)</text><text fill="#000000" font-family="sans-serif" font-size="13" lengthAdjust="spacingAndGlyphs" textLength="374" x="71.5" y="158.2725">transferFrom(address sender, address recipient, uint256 amount)</text><rect fill="#FEFECE" filter="url(#fzxmmcg38o961)" height="50" rx="12.5" ry="12.5" style="stroke: #A80036; stroke-width: 1.5;" width="57" x="256.5" y="246"/><line style="stroke: #A80036; stroke-width: 1.5;" x1="256.5" x2="313.5" y1="275.9404" y2="275.9404"/><text fill="#000000" font-family="sans-serif" font-size="14" lengthAdjust="spacingAndGlyphs" textLength="37" x="266.5" y="267.8643">active</text><rect fill="#FEFECE" filter="url(#fzxmmcg38o961)" height="50" rx="12.5" ry="12.5" style="stroke: #A80036; stroke-width: 1.5;" width="82" x="243" y="376"/><line style="stroke: #A80036; stroke-width: 1.5;" x1="243" x2="325" y1="405.9404" y2="405.9404"/><text fill="#000000" font-family="sans-serif" font-size="14" lengthAdjust="spacingAndGlyphs" textLength="62" x="253" y="397.8643">allowance</text><!--link *start to issued--><path d="M17.8856,97.26 C21.2952,112.52 29.5108,143.501 44,166 C63.3578,196.06 92.9431,223.936 116.102,243.245 " fill="none" id="*start-&gt;issued" style="stroke: #A80036; stroke-width: 1.0;"/><polygon fill="#A80036" points="120.053,246.51,115.6623,237.694,116.1983,243.3254,110.5669,243.8615,120.053,246.51" style="stroke: #A80036; stroke-width: 1.0;"/><text fill="#000000" font-family="sans-serif" font-size="13" lengthAdjust="spacingAndGlyphs" textLength="31" x="87" y="212.6597">issue</text><!--link issued to active--><path d="M181.742,271 C202.487,271 229.868,271 251.221,271 " fill="none" id="issued-&gt;active" style="stroke: #A80036; stroke-width: 1.0;"/><polygon fill="#A80036" points="256.234,271,247.234,267,251.234,271,247.234,275,256.234,271" style="stroke: #A80036; stroke-width: 1.0;"/><text fill="#000000" font-family="sans-serif" font-size="13" lengthAdjust="spacingAndGlyphs" textLength="38" x="200" y="264.6597">deploy</text><!--link active to active--><path d="M313.734,259.847 C331.548,257.157 348.5,260.875 348.5,271 C348.5,280.176 334.577,284.089 318.708,282.741 " fill="none" id="active-&gt;active" style="stroke: #A80036; stroke-width: 1.0;"/><polygon fill="#A80036" points="313.734,282.153,322.2021,287.1821,318.6994,282.7401,323.1414,279.2375,313.734,282.153" style="stroke: #A80036; stroke-width: 1.0;"/><text fill="#000000" font-family="sans-serif" font-size="13" lengthAdjust="spacingAndGlyphs" textLength="43" x="354.5" y="277.6597">transfer</text><!--link active to allowance--><path d="M256.309,291.217 C245.282,300.318 233.925,312.226 228,326 C220.784,342.7751 230.936,359.2019 244.49,372.3004 " fill="none" id="active-&gt;allowance" style="stroke: #A80036; stroke-width: 1.0;"/><polygon fill="#A80036" points="248.392,375.9041,244.4951,366.859,244.7192,372.5114,239.0668,372.7355,248.392,375.9041" style="stroke: #A80036; stroke-width: 1.0;"/><text fill="#000000" font-family="sans-serif" font-size="13" lengthAdjust="spacingAndGlyphs" textLength="57" x="229" y="342.6597">allowance</text><!--link allowance to active--><path d="M289.973,375.9657 C291.999,366.6684 294.002,355.9 295,346 C296.481,331.3107 294.665,315.046 292.193,301.515 " fill="none" id="allowance-&gt;active" style="stroke: #A80036; stroke-width: 1.0;"/><polygon fill="#A80036" points="291.18,296.281,288.963,305.8771,292.1301,301.1899,296.8172,304.357,291.18,296.281" style="stroke: #A80036; stroke-width: 1.0;"/><text fill="#000000" font-family="sans-serif" font-size="13" lengthAdjust="spacingAndGlyphs" textLength="44" x="297" y="342.6597">approve</text><!--
@startuml
[*] - -> issued : issue
note top
 EIP 20: ERC-20 Token Standard
  mapping (address => uint256) private _balances;
  mapping (address => mapping (address => uint256)) private _allowances;
  
  transfer(address recipient, uint256 amount)
  allowance(address owner, address spender)
  approve(address spender, uint256 amount)
  transferFrom(address sender, address recipient, uint256 amount)
end note
issued -> active : deploy
active -> active: transfer
active -down-> allowance: allowance
allowance -> active: approve
@enduml

PlantUML version 1.2019.09(Tue Aug 27 00:19:51 CST 2019)
(GPL source distribution)
Java Runtime: Java(TM) SE Runtime Environment
JVM: Java HotSpot(TM) 64-Bit Server VM
Java Version: 1.8.0_221-b11
Operating System: Windows 10
OS Version: 10.0
Default Encoding: MS950
Language: zh
Country: TW
--></g></svg>