<?xml version="1.0" encoding="UTF-8" standalone="no"?><svg xmlns="http://www.w3.org/2000/svg" xmlns:xlink="http://www.w3.org/1999/xlink" contentScriptType="application/ecmascript" contentStyleType="text/css" height="552px" preserveAspectRatio="none" style="width:821px;height:552px;" version="1.1" viewBox="0 0 821 552" width="821px" zoomAndPan="magnify"><defs><filter height="300%" id="f1pfxmki3e4aqa" width="300%" x="-1" y="-1"><feGaussianBlur result="blurOut" stdDeviation="2.0"/><feColorMatrix in="blurOut" result="blurOut2" type="matrix" values="0 0 0 0 0 0 0 0 0 0 0 0 0 0 0 0 0 0 .4 0"/><feOffset dx="4.0" dy="4.0" in="blurOut2" result="blurOut3"/><feBlend in="SourceGraphic" in2="blurOut3" mode="normal"/></filter></defs><g><!--cluster TON Main Blockchain--><rect fill="#FFFFFF" filter="url(#f1pfxmki3e4aqa)" height="379" style="stroke: #000000; stroke-width: 1.5;" width="788" x="22" y="162"/><text fill="#000000" font-family="sans-serif" font-size="14" font-weight="bold" lengthAdjust="spacingAndGlyphs" textLength="148" x="342" y="180.8643">TON Main Blockchain</text><!--cluster WC1--><rect fill="#ADD8E6" filter="url(#f1pfxmki3e4aqa)" height="293" style="stroke: #000000; stroke-width: 1.5;" width="287" x="491" y="216"/><text fill="#000000" font-family="sans-serif" font-size="14" font-weight="bold" lengthAdjust="spacingAndGlyphs" textLength="86" x="591.5" y="234.8643">Workchain 1</text><text fill="#000000" font-family="sans-serif" font-size="14" font-weight="bold" lengthAdjust="spacingAndGlyphs" textLength="60" x="604.5" y="254.8047">工作鏈壹</text><!--cluster WC2--><rect fill="#F08080" filter="url(#f1pfxmki3e4aqa)" height="293" style="stroke: #000000; stroke-width: 1.5;" width="286" x="165" y="216"/><text fill="#000000" font-family="sans-serif" font-size="14" font-weight="bold" lengthAdjust="spacingAndGlyphs" textLength="86" x="265" y="234.8643">Workchain 2</text><text fill="#000000" font-family="sans-serif" font-size="14" font-weight="bold" lengthAdjust="spacingAndGlyphs" textLength="60" x="278" y="254.8047">工作鏈貳</text><!--entity Workchain N\n工作鏈N--><rect fill="#FEFECE" filter="url(#f1pfxmki3e4aqa)" height="59.8809" style="stroke: #000000; stroke-width: 1.5;" width="100" x="38" y="282"/><text fill="#000000" font-family="sans-serif" font-size="14" lengthAdjust="spacingAndGlyphs" textLength="80" x="48" y="308.8643">Workchain N</text><text fill="#000000" font-family="sans-serif" font-size="14" lengthAdjust="spacingAndGlyphs" textLength="51" x="48" y="328.8047">工作鏈N</text><!--entity W1SA1--><rect fill="#FEFECE" filter="url(#f1pfxmki3e4aqa)" height="59.8809" style="stroke: #A80036; stroke-width: 1.5;" width="92" x="548" y="282"/><rect fill="#FEFECE" height="5" style="stroke: #A80036; stroke-width: 1.5;" width="10" x="543" y="287"/><rect fill="#FEFECE" height="5" style="stroke: #A80036; stroke-width: 1.5;" width="10" x="543" y="331.8809"/><text fill="#000000" font-family="sans-serif" font-size="14" lengthAdjust="spacingAndGlyphs" textLength="72" x="558" y="308.8643">Shardchain</text><text fill="#000000" font-family="sans-serif" font-size="14" lengthAdjust="spacingAndGlyphs" textLength="59" x="558" y="328.8047">分片鏈A1</text><!--entity W1SA2--><rect fill="#FEFECE" filter="url(#f1pfxmki3e4aqa)" height="59.8809" style="stroke: #A80036; stroke-width: 1.5;" width="92" x="660" y="425"/><rect fill="#FEFECE" height="5" style="stroke: #A80036; stroke-width: 1.5;" width="10" x="655" y="430"/><rect fill="#FEFECE" height="5" style="stroke: #A80036; stroke-width: 1.5;" width="10" x="655" y="474.8809"/><text fill="#000000" font-family="sans-serif" font-size="14" lengthAdjust="spacingAndGlyphs" textLength="72" x="670" y="451.8643">Shardchain</text><text fill="#000000" font-family="sans-serif" font-size="14" lengthAdjust="spacingAndGlyphs" textLength="59" x="670" y="471.8047">分片鏈A2</text><!--entity W1SAN--><rect fill="#FEFECE" filter="url(#f1pfxmki3e4aqa)" height="59.8809" style="stroke: #A80036; stroke-width: 1.5;" width="92" x="523" y="425"/><rect fill="#FEFECE" height="5" style="stroke: #A80036; stroke-width: 1.5;" width="10" x="518" y="430"/><rect fill="#FEFECE" height="5" style="stroke: #A80036; stroke-width: 1.5;" width="10" x="518" y="474.8809"/><text fill="#000000" font-family="sans-serif" font-size="14" lengthAdjust="spacingAndGlyphs" textLength="72" x="533" y="451.8643">Shardchain</text><text fill="#000000" font-family="sans-serif" font-size="14" lengthAdjust="spacingAndGlyphs" textLength="60" x="533" y="471.8047">分片鏈AN</text><!--entity W2SB1--><rect fill="#FEFECE" filter="url(#f1pfxmki3e4aqa)" height="59.8809" style="stroke: #A80036; stroke-width: 1.5;" width="92" x="208" y="282"/><rect fill="#FEFECE" height="5" style="stroke: #A80036; stroke-width: 1.5;" width="10" x="203" y="287"/><rect fill="#FEFECE" height="5" style="stroke: #A80036; stroke-width: 1.5;" width="10" x="203" y="331.8809"/><text fill="#000000" font-family="sans-serif" font-size="14" lengthAdjust="spacingAndGlyphs" textLength="72" x="218" y="308.8643">Shardchain</text><text fill="#000000" font-family="sans-serif" font-size="14" lengthAdjust="spacingAndGlyphs" textLength="59" x="218" y="328.8047">分片鏈B1</text><!--entity W2SB2--><rect fill="#FEFECE" filter="url(#f1pfxmki3e4aqa)" height="59.8809" style="stroke: #A80036; stroke-width: 1.5;" width="92" x="335" y="282"/><rect fill="#FEFECE" height="5" style="stroke: #A80036; stroke-width: 1.5;" width="10" x="330" y="287"/><rect fill="#FEFECE" height="5" style="stroke: #A80036; stroke-width: 1.5;" width="10" x="330" y="331.8809"/><text fill="#000000" font-family="sans-serif" font-size="14" lengthAdjust="spacingAndGlyphs" textLength="72" x="345" y="308.8643">Shardchain</text><text fill="#000000" font-family="sans-serif" font-size="14" lengthAdjust="spacingAndGlyphs" textLength="59" x="345" y="328.8047">分片鏈B2</text><!--entity W2SBN--><rect fill="#FEFECE" filter="url(#f1pfxmki3e4aqa)" height="59.8809" style="stroke: #A80036; stroke-width: 1.5;" width="92" x="208" y="425"/><rect fill="#FEFECE" height="5" style="stroke: #A80036; stroke-width: 1.5;" width="10" x="203" y="430"/><rect fill="#FEFECE" height="5" style="stroke: #A80036; stroke-width: 1.5;" width="10" x="203" y="474.8809"/><text fill="#000000" font-family="sans-serif" font-size="14" lengthAdjust="spacingAndGlyphs" textLength="72" x="218" y="451.8643">Shardchain</text><text fill="#000000" font-family="sans-serif" font-size="14" lengthAdjust="spacingAndGlyphs" textLength="60" x="218" y="471.8047">分片鏈BN</text><!--entity Validator--><ellipse cx="450" cy="18" fill="#FEFECE" filter="url(#f1pfxmki3e4aqa)" rx="8" ry="8" style="stroke: #A80036; stroke-width: 2.0;"/><path d="M450,26 L450,53 M437,34 L463,34 M450,53 L437,68 M450,53 L463,68 " fill="none" filter="url(#f1pfxmki3e4aqa)" style="stroke: #A80036; stroke-width: 2.0;"/><text fill="#000000" font-family="sans-serif" font-size="14" lengthAdjust="spacingAndGlyphs" textLength="56" x="422" y="91.8643">Validator</text><text fill="#000000" font-family="sans-serif" font-size="14" lengthAdjust="spacingAndGlyphs" textLength="42" x="422" y="111.8047">驗證者</text><!--entity Collator--><ellipse cx="219" cy="18" fill="#FEFECE" filter="url(#f1pfxmki3e4aqa)" rx="8" ry="8" style="stroke: #A80036; stroke-width: 2.0;"/><path d="M219,26 L219,53 M206,34 L232,34 M219,53 L206,68 M219,53 L232,68 " fill="none" filter="url(#f1pfxmki3e4aqa)" style="stroke: #A80036; stroke-width: 2.0;"/><text fill="#000000" font-family="sans-serif" font-size="14" lengthAdjust="spacingAndGlyphs" textLength="49" x="194.5" y="91.8643">Collator</text><text fill="#000000" font-family="sans-serif" font-size="14" lengthAdjust="spacingAndGlyphs" textLength="42" x="194.5" y="111.8047">合作者</text><!--entity Nominator--><ellipse cx="127" cy="18" fill="#FEFECE" filter="url(#f1pfxmki3e4aqa)" rx="8" ry="8" style="stroke: #A80036; stroke-width: 2.0;"/><path d="M127,26 L127,53 M114,34 L140,34 M127,53 L114,68 M127,53 L140,68 " fill="none" filter="url(#f1pfxmki3e4aqa)" style="stroke: #A80036; stroke-width: 2.0;"/><text fill="#000000" font-family="sans-serif" font-size="14" lengthAdjust="spacingAndGlyphs" textLength="64" x="95" y="91.8643">Nominator</text><text fill="#000000" font-family="sans-serif" font-size="14" lengthAdjust="spacingAndGlyphs" textLength="42" x="95" y="111.8047">提名者</text><!--entity Fisherman--><ellipse cx="547" cy="18" fill="#FF0000" filter="url(#f1pfxmki3e4aqa)" rx="8" ry="8" style="stroke: #A80036; stroke-width: 2.0;"/><path d="M547,26 L547,53 M534,34 L560,34 M547,53 L534,68 M547,53 L560,68 " fill="none" filter="url(#f1pfxmki3e4aqa)" style="stroke: #A80036; stroke-width: 2.0;"/><text fill="#000000" font-family="sans-serif" font-size="14" lengthAdjust="spacingAndGlyphs" textLength="67" x="513.5" y="91.8643">Fisherman</text><text fill="#000000" font-family="sans-serif" font-size="14" lengthAdjust="spacingAndGlyphs" textLength="28" x="513.5" y="111.8047">漁夫</text><!--link W1SA1 to W1SA2--><path d="M609.78,346.863 C617.758,362.296 628.241,380.348 640,395 C647.407,404.23 656.329,413.245 665.185,421.339 " fill="none" id="W1SA1-W1SA2" style="stroke: #A80036; stroke-width: 1.0;"/><polygon fill="#A80036" points="668.972,424.75,664.9622,415.7544,665.257,421.4035,659.6079,421.6983,668.972,424.75" style="stroke: #A80036; stroke-width: 1.0;"/><polygon fill="#A80036" points="607.386,342.164,607.9074,351.999,609.6557,346.6192,615.0356,348.3675,607.386,342.164" style="stroke: #A80036; stroke-width: 1.0;"/><text fill="#000000" font-family="sans-serif" font-size="15" font-weight="bold" lengthAdjust="spacingAndGlyphs" textLength="144" x="641" y="391.0688">1 Hypercube routing</text><!--link W1SA2 to W1SAN--><path d="M654.743,455 C643.431,455 631.448,455 620.14,455 " fill="none" id="W1SA2-W1SAN" style="stroke: #A80036; stroke-width: 1.0;"/><polygon fill="#A80036" points="615,455,624,459,620,455,624,451,615,455" style="stroke: #A80036; stroke-width: 1.0;"/><polygon fill="#A80036" points="659.888,455,650.888,451,654.888,455,650.888,459,659.888,455" style="stroke: #A80036; stroke-width: 1.0;"/><text fill="#000000" font-family="sans-serif" font-size="15" font-weight="bold" lengthAdjust="spacingAndGlyphs" textLength="8" x="633.5" y="448.0688">1</text><!--link W1SA1 to W1SAN--><path d="M569.282,346.486 C564.635,354.468 560.465,363.228 558,372 C553.671,387.405 555.193,404.932 558.294,419.816 " fill="none" id="W1SA1-W1SAN" style="stroke: #A80036; stroke-width: 1.0;"/><polygon fill="#A80036" points="559.399,424.755,561.3382,415.0989,558.3077,419.8755,553.5311,416.845,559.399,424.755" style="stroke: #A80036; stroke-width: 1.0;"/><polygon fill="#A80036" points="571.905,342.136,563.8318,347.7773,569.3229,346.4177,570.6825,351.9087,571.905,342.136" style="stroke: #A80036; stroke-width: 1.0;"/><text fill="#000000" font-family="sans-serif" font-size="15" font-weight="bold" lengthAdjust="spacingAndGlyphs" textLength="8" x="559" y="391.0688">1</text><!--link Validator to WC1--><path d="M460.392,115.2 C467.471,151.103 476.9343,199.0963 484.7199,238.581 C486.6663,248.4522 488.5078,257.7916 490.1811,266.2774 C490.3902,267.3381 490.5968,268.3855 490.8005,269.4189 C490.8515,269.6772 490.9022,269.9347 490.9528,270.1913 " fill="none" id="Validator-&gt;WC1" style="stroke: #A80036; stroke-width: 1.0; stroke-dasharray: 7.0,7.0;"/><polygon fill="#A80036" points="490.9528,270.1913,493.1362,260.5875,489.9855,265.2858,485.2873,262.1352,490.9528,270.1913" style="stroke: #A80036; stroke-width: 1.0;"/><!--link Fisherman to WC1--><path d="M520.172,115.088 C514.902,127.552 510.063,141.007 507,154 C503.0548,170.7355 500.5668,188.7423 499.0578,206.381 C498.8692,208.5859 498.6959,210.785 498.5369,212.9751 C498.4972,213.5226 498.4584,214.0696 498.4204,214.616 C498.4014,214.8892 498.3827,215.1622 498.3641,215.4351 " fill="none" id="Fisherman-&gt;WC1" style="stroke: #A80036; stroke-width: 1.0; stroke-dasharray: 7.0,7.0;"/><polygon fill="#A80036" points="498.3641,215.4351,502.965,206.7269,498.7031,210.4466,494.9834,206.1846,498.3641,215.4351" style="stroke: #A80036; stroke-width: 1.0;"/><!--link Collator to WC2--><path d="M201.782,115.343 C198.141,127.912 194.613,141.348 192,154 C188.501,170.9395 185.5735,189.0499 183.1481,206.7289 C182.845,208.9388 182.5496,211.142 182.262,213.3352 C182.1901,213.8836 182.1187,214.4313 182.0477,214.9783 C182.0123,215.2518 181.9769,215.5252 181.9417,215.7983 " fill="none" id="Collator-&gt;WC2" style="stroke: #A80036; stroke-width: 1.0; stroke-dasharray: 7.0,7.0;"/><polygon fill="#A80036" points="181.9417,215.7983,187.06,207.3839,182.5812,210.8394,179.1257,206.3606,181.9417,215.7983" style="stroke: #A80036; stroke-width: 1.0;"/><!--link Nominator to WC2--><path d="M155.642,115.402 C161.078,127.738 165.999,141.059 169,154 C172.881,170.7333 175.0941,188.7389 176.2251,206.3772 C176.3665,208.582 176.4909,210.7811 176.5996,212.9712 C176.6268,213.5187 176.653,214.0657 176.6782,214.612 C176.6908,214.8852 176.7032,215.1582 176.7153,215.4311 " fill="none" id="Nominator-&gt;WC2" style="stroke: #A80036; stroke-width: 1.0; stroke-dasharray: 7.0,7.0;"/><polygon fill="#A80036" points="176.7153,215.4311,180.3117,206.2623,176.4933,210.436,172.3196,206.6176,176.7153,215.4311" style="stroke: #A80036; stroke-width: 1.0;"/><!--link W2SB1 to W2SB2--><!--link W2SB1 to W2SBN--><!--
@startuml

actor "Validator\n驗證者" as Validator 
actor "Collator\n合作者" as Collator 
actor "Nominator\n提名者" as Nominator 
actor "Fisherman\n漁夫" as Fisherman #red


rectangle "TON Main Blockchain" {
    rectangle "Workchain 1\n工作鏈壹" as WC1 #LightBlue {
        component "Shardchain\n分片鏈A1" as W1SA1
        component "Shardchain\n分片鏈A2" as W1SA2
        component "Shardchain\n分片鏈AN" as W1SAN
    }

    rectangle "Workchain 2\n工作鏈貳" as WC2 #LightCoral{
        component "Shardchain\n分片鏈B1" as W2SB1
        component "Shardchain\n分片鏈B2" as W2SB2
        component "Shardchain\n分片鏈BN" as W2SBN
    }

    rectangle "Workchain N\n工作鏈N"
}

W1SA1 <- -> W1SA2: == 1 Hypercube routing 
W1SA2 <-> W1SAN: == 1 
W1SA1 <- -> W1SAN: == 1 

Validator ..> WC1
Fisherman ..> WC1
Collator ..> WC2
Nominator ..> WC2

@enduml

PlantUML version 1.2019.09(Tue Aug 27 00:19:51 CST 2019)
(GPL source distribution)
Java Runtime: Java(TM) SE Runtime Environment
JVM: Java HotSpot(TM) 64-Bit Server VM
Java Version: 1.8.0_221-b11
Operating System: Windows 10
OS Version: 10.0
Default Encoding: MS950
Language: zh
Country: TW
--></g></svg>