<?xml version="1.0" encoding="UTF-8" standalone="no"?><svg xmlns="http://www.w3.org/2000/svg" xmlns:xlink="http://www.w3.org/1999/xlink" contentScriptType="application/ecmascript" contentStyleType="text/css" height="1056px" preserveAspectRatio="none" style="width:572px;height:1056px;" version="1.1" viewBox="0 0 572 1056" width="572px" zoomAndPan="magnify"><defs><filter height="300%" id="fl5isxo85dia4" width="300%" x="-1" y="-1"><feGaussianBlur result="blurOut" stdDeviation="2.0"/><feColorMatrix in="blurOut" result="blurOut2" type="matrix" values="0 0 0 0 0 0 0 0 0 0 0 0 0 0 0 0 0 0 .4 0"/><feOffset dx="4.0" dy="4.0" in="blurOut2" result="blurOut3"/><feBlend in="SourceGraphic" in2="blurOut3" mode="normal"/></filter></defs><g><rect fill="#FFA07A" height="1041.1484" style="stroke: #A80036; stroke-width: 1.0;" width="199" x="111" y="4"/><text fill="#000000" font-family="sans-serif" font-size="13" font-weight="bold" lengthAdjust="spacingAndGlyphs" textLength="28" x="196.5" y="19.6597">司法</text><line style="stroke: #A80036; stroke-width: 1.0; stroke-dasharray: 5.0,5.0;" x1="32" x2="32" y1="109.8809" y2="935.2676"/><line style="stroke: #A80036; stroke-width: 1.0; stroke-dasharray: 5.0,5.0;" x1="154" x2="154" y1="109.8809" y2="935.2676"/><line style="stroke: #A80036; stroke-width: 1.0; stroke-dasharray: 5.0,5.0;" x1="254" x2="254" y1="109.8809" y2="935.2676"/><line style="stroke: #A80036; stroke-width: 1.0; stroke-dasharray: 5.0,5.0;" x1="364" x2="364" y1="109.8809" y2="935.2676"/><text fill="#000000" font-family="sans-serif" font-size="14" lengthAdjust="spacingAndGlyphs" textLength="42" x="8" y="106.8047">使用者</text><ellipse cx="32" cy="32.9404" fill="#FFFF00" filter="url(#fl5isxo85dia4)" rx="8" ry="8" style="stroke: #A80036; stroke-width: 2.0;"/><path d="M32,40.9404 L32,67.9404 M19,48.9404 L45,48.9404 M32,67.9404 L19,82.9404 M32,67.9404 L45,82.9404 " fill="none" filter="url(#fl5isxo85dia4)" style="stroke: #A80036; stroke-width: 2.0;"/><text fill="#000000" font-family="sans-serif" font-size="14" lengthAdjust="spacingAndGlyphs" textLength="42" x="8" y="951.1318">使用者</text><ellipse cx="32" cy="964.208" fill="#FFFF00" filter="url(#fl5isxo85dia4)" rx="8" ry="8" style="stroke: #A80036; stroke-width: 2.0;"/><path d="M32,972.208 L32,999.208 M19,980.208 L45,980.208 M32,999.208 L19,1014.208 M32,999.208 L45,1014.208 " fill="none" filter="url(#fl5isxo85dia4)" style="stroke: #A80036; stroke-width: 2.0;"/><rect fill="#FEFECE" filter="url(#fl5isxo85dia4)" height="53.8809" style="stroke: #A80036; stroke-width: 1.5;" width="64" x="120" y="51"/><text fill="#000000" font-family="sans-serif" font-size="14" lengthAdjust="spacingAndGlyphs" textLength="28" x="138" y="74.8643">民法</text><text fill="#000000" font-family="sans-serif" font-size="14" lengthAdjust="spacingAndGlyphs" textLength="50" x="127" y="94.8047">Civil law</text><rect fill="#FEFECE" filter="url(#fl5isxo85dia4)" height="53.8809" style="stroke: #A80036; stroke-width: 1.5;" width="64" x="120" y="934.2676"/><text fill="#000000" font-family="sans-serif" font-size="14" lengthAdjust="spacingAndGlyphs" textLength="28" x="138" y="958.1318">民法</text><text fill="#000000" font-family="sans-serif" font-size="14" lengthAdjust="spacingAndGlyphs" textLength="50" x="127" y="978.0723">Civil law</text><rect fill="#FEFECE" filter="url(#fl5isxo85dia4)" height="53.8809" style="stroke: #A80036; stroke-width: 1.5;" width="89" x="208" y="51"/><text fill="#000000" font-family="sans-serif" font-size="14" lengthAdjust="spacingAndGlyphs" textLength="28" x="238.5" y="74.8643">刑法</text><text fill="#000000" font-family="sans-serif" font-size="14" lengthAdjust="spacingAndGlyphs" textLength="75" x="215" y="94.8047">Criminal law</text><rect fill="#FEFECE" filter="url(#fl5isxo85dia4)" height="53.8809" style="stroke: #A80036; stroke-width: 1.5;" width="89" x="208" y="934.2676"/><text fill="#000000" font-family="sans-serif" font-size="14" lengthAdjust="spacingAndGlyphs" textLength="28" x="238.5" y="958.1318">刑法</text><text fill="#000000" font-family="sans-serif" font-size="14" lengthAdjust="spacingAndGlyphs" textLength="75" x="215" y="978.0723">Criminal law</text><text fill="#000000" font-family="sans-serif" font-size="14" lengthAdjust="spacingAndGlyphs" textLength="81" x="321" y="86.8643">SafeKeeping</text><text fill="#000000" font-family="sans-serif" font-size="14" lengthAdjust="spacingAndGlyphs" textLength="42" x="340.5" y="106.8047">保管人</text><ellipse cx="364.5" cy="13" fill="#FF0000" filter="url(#fl5isxo85dia4)" rx="8" ry="8" style="stroke: #A80036; stroke-width: 2.0;"/><path d="M364.5,21 L364.5,48 M351.5,29 L377.5,29 M364.5,48 L351.5,63 M364.5,48 L377.5,63 " fill="none" filter="url(#fl5isxo85dia4)" style="stroke: #A80036; stroke-width: 2.0;"/><text fill="#000000" font-family="sans-serif" font-size="14" lengthAdjust="spacingAndGlyphs" textLength="81" x="321" y="951.1318">SafeKeeping</text><text fill="#000000" font-family="sans-serif" font-size="14" lengthAdjust="spacingAndGlyphs" textLength="42" x="340.5" y="971.0723">保管人</text><ellipse cx="364.5" cy="984.1484" fill="#FF0000" filter="url(#fl5isxo85dia4)" rx="8" ry="8" style="stroke: #A80036; stroke-width: 2.0;"/><path d="M364.5,992.1484 L364.5,1019.1484 M351.5,1000.1484 L377.5,1000.1484 M364.5,1019.1484 L351.5,1034.1484 M364.5,1019.1484 L377.5,1034.1484 " fill="none" filter="url(#fl5isxo85dia4)" style="stroke: #A80036; stroke-width: 2.0;"/><rect fill="#EEEEEE" filter="url(#fl5isxo85dia4)" height="3" style="stroke: #EEEEEE; stroke-width: 1.0;" width="557.5" x="3" y="142.1389"/><line style="stroke: #000000; stroke-width: 1.0;" x1="3" x2="560.5" y1="142.1389" y2="142.1389"/><line style="stroke: #000000; stroke-width: 1.0;" x1="3" x2="560.5" y1="145.1389" y2="145.1389"/><rect fill="#EEEEEE" filter="url(#fl5isxo85dia4)" height="26.5161" style="stroke: #000000; stroke-width: 2.0;" width="139" x="212.25" y="129.8809"/><text fill="#000000" font-family="sans-serif" font-size="13" font-weight="bold" lengthAdjust="spacingAndGlyphs" textLength="121" x="218.25" y="149.5405">100 C is for custody</text><polygon fill="#A80036" points="352.5,186.9131,362.5,190.9131,352.5,194.9131,356.5,190.9131" style="stroke: #A80036; stroke-width: 1.0;"/><line style="stroke: #A80036; stroke-width: 1.0;" x1="32" x2="358.5" y1="190.9131" y2="190.9131"/><text fill="#000000" font-family="sans-serif" font-size="13" font-weight="bold" lengthAdjust="spacingAndGlyphs" textLength="21" x="39" y="186.0566">101</text><text fill="#000000" font-family="sans-serif" font-size="13" lengthAdjust="spacingAndGlyphs" textLength="52" x="64" y="186.0566">保管申請</text><polygon fill="#A80036" points="352.5,219.4292,362.5,223.4292,352.5,227.4292,356.5,223.4292" style="stroke: #A80036; stroke-width: 1.0;"/><line style="stroke: #A80036; stroke-width: 1.0;" x1="32" x2="358.5" y1="223.4292" y2="223.4292"/><text fill="#000000" font-family="sans-serif" font-size="13" font-weight="bold" lengthAdjust="spacingAndGlyphs" textLength="21" x="39" y="218.5728">102</text><text fill="#000000" font-family="sans-serif" font-size="13" lengthAdjust="spacingAndGlyphs" textLength="65" x="64" y="218.5728">交付保管物</text><polygon fill="#A80036" points="43,288.9775,33,292.9775,43,296.9775,39,292.9775" style="stroke: #A80036; stroke-width: 1.0;"/><line style="stroke: #A80036; stroke-width: 1.0;" x1="37" x2="363.5" y1="292.9775" y2="292.9775"/><text fill="#000000" font-family="sans-serif" font-size="13" font-weight="bold" lengthAdjust="spacingAndGlyphs" textLength="21" x="49" y="269.605">103</text><text fill="#000000" font-family="sans-serif" font-size="13" lengthAdjust="spacingAndGlyphs" textLength="52" x="74" y="251.0889">保管證明</text><text fill="#000000" font-family="sans-serif" font-size="13" lengthAdjust="spacingAndGlyphs" textLength="203" x="74" y="269.605">契約、借據、本票(民法債務不履行)</text><text fill="#000000" font-family="sans-serif" font-size="13" lengthAdjust="spacingAndGlyphs" textLength="99" x="74" y="288.1211">保管條(刑法侵占)</text><polygon fill="#A80036" points="352.5,321.4937,362.5,325.4937,352.5,329.4937,356.5,325.4937" style="stroke: #A80036; stroke-width: 1.0;"/><line style="stroke: #A80036; stroke-width: 1.0;" x1="32" x2="358.5" y1="325.4937" y2="325.4937"/><text fill="#000000" font-family="sans-serif" font-size="13" font-weight="bold" lengthAdjust="spacingAndGlyphs" textLength="21" x="39" y="320.6372">104</text><text fill="#000000" font-family="sans-serif" font-size="13" lengthAdjust="spacingAndGlyphs" textLength="52" x="64" y="320.6372">要求返還</text><line style="stroke: #A80036; stroke-width: 1.0;" x1="364.5" x2="406.5" y1="358.0098" y2="358.0098"/><line style="stroke: #A80036; stroke-width: 1.0;" x1="406.5" x2="406.5" y1="358.0098" y2="371.0098"/><line style="stroke: #A80036; stroke-width: 1.0;" x1="365.5" x2="406.5" y1="371.0098" y2="371.0098"/><polygon fill="#A80036" points="375.5,367.0098,365.5,371.0098,375.5,375.0098,371.5,371.0098" style="stroke: #A80036; stroke-width: 1.0;"/><text fill="#000000" font-family="sans-serif" font-size="13" font-weight="bold" lengthAdjust="spacingAndGlyphs" textLength="21" x="371.5" y="353.1533">105</text><text fill="#000000" font-family="sans-serif" font-size="13" lengthAdjust="spacingAndGlyphs" textLength="52" x="396.5" y="353.1533">無法返還</text><polygon fill="#A80036" points="43,399.5259,33,403.5259,43,407.5259,39,403.5259" style="stroke: #A80036; stroke-width: 1.0;"/><polygon fill="#A80036" points="352.5,399.5259,362.5,403.5259,352.5,407.5259,356.5,403.5259" style="stroke: #A80036; stroke-width: 1.0;"/><line style="stroke: #A80036; stroke-width: 1.0;" x1="37" x2="358.5" y1="403.5259" y2="403.5259"/><text fill="#000000" font-family="sans-serif" font-size="13" font-weight="bold" lengthAdjust="spacingAndGlyphs" textLength="21" x="49" y="398.6694">106</text><text fill="#000000" font-family="sans-serif" font-size="13" lengthAdjust="spacingAndGlyphs" textLength="26" x="74" y="398.6694">協調</text><polygon fill="#A80036" points="142,432.042,152,436.042,142,440.042,146,436.042" style="stroke: #A80036; stroke-width: 1.0;"/><line style="stroke: #A80036; stroke-width: 1.0;" x1="32" x2="148" y1="436.042" y2="436.042"/><text fill="#000000" font-family="sans-serif" font-size="13" font-weight="bold" lengthAdjust="spacingAndGlyphs" textLength="21" x="39" y="431.1855">107</text><text fill="#000000" font-family="sans-serif" font-size="13" lengthAdjust="spacingAndGlyphs" textLength="73" x="64" y="431.1855">最佳利益???</text><polygon fill="#A80036" points="242.5,464.5581,252.5,468.5581,242.5,472.5581,246.5,468.5581" style="stroke: #A80036; stroke-width: 1.0;"/><line style="stroke: #A80036; stroke-width: 1.0;" x1="32" x2="248.5" y1="468.5581" y2="468.5581"/><text fill="#000000" font-family="sans-serif" font-size="13" font-weight="bold" lengthAdjust="spacingAndGlyphs" textLength="21" x="39" y="463.7017">108</text><text fill="#000000" font-family="sans-serif" font-size="13" lengthAdjust="spacingAndGlyphs" textLength="73" x="64" y="463.7017">最佳利益???</text><rect fill="#EEEEEE" filter="url(#fl5isxo85dia4)" height="3" style="stroke: #EEEEEE; stroke-width: 1.0;" width="557.5" x="3" y="498.8162"/><line style="stroke: #000000; stroke-width: 1.0;" x1="3" x2="560.5" y1="498.8162" y2="498.8162"/><line style="stroke: #000000; stroke-width: 1.0;" x1="3" x2="560.5" y1="501.8162" y2="501.8162"/><rect fill="#EEEEEE" filter="url(#fl5isxo85dia4)" height="26.5161" style="stroke: #000000; stroke-width: 2.0;" width="173" x="195.25" y="486.5581"/><text fill="#000000" font-family="sans-serif" font-size="13" font-weight="bold" lengthAdjust="spacingAndGlyphs" textLength="155" x="201.25" y="506.2178">200 C is for complication</text><polygon fill="#A80036" points="43,567.1064,33,571.1064,43,575.1064,39,571.1064" style="stroke: #A80036; stroke-width: 1.0;"/><polygon fill="#A80036" points="352.5,567.1064,362.5,571.1064,352.5,575.1064,356.5,571.1064" style="stroke: #A80036; stroke-width: 1.0;"/><line style="stroke: #A80036; stroke-width: 1.0;" x1="37" x2="358.5" y1="571.1064" y2="571.1064"/><text fill="#000000" font-family="sans-serif" font-size="13" font-weight="bold" lengthAdjust="spacingAndGlyphs" textLength="21" x="49" y="566.25">201</text><text fill="#000000" font-family="sans-serif" font-size="13" lengthAdjust="spacingAndGlyphs" textLength="0" x="78" y="566.25"/><path d="M369,528.0742 L369,593.0742 L546,593.0742 L546,538.0742 L536,528.0742 L369,528.0742 " fill="#FBFB77" filter="url(#fl5isxo85dia4)" style="stroke: #A80036; stroke-width: 1.0;"/><path d="M536,528.0742 L536,538.0742 L546,538.0742 L536,528.0742 " fill="#FBFB77" style="stroke: #A80036; stroke-width: 1.0;"/><text fill="#000000" font-family="sans-serif" font-size="13" lengthAdjust="spacingAndGlyphs" textLength="65" x="375" y="548.7339">無記名資產</text><text fill="#000000" font-family="sans-serif" font-size="13" lengthAdjust="spacingAndGlyphs" textLength="78" x="375" y="567.25">金鑰即所有權</text><text fill="#000000" font-family="sans-serif" font-size="13" lengthAdjust="spacingAndGlyphs" textLength="156" x="375" y="585.7661">交付金鑰與轉帳之保管差異</text><rect fill="#EEEEEE" filter="url(#fl5isxo85dia4)" height="3" style="stroke: #EEEEEE; stroke-width: 1.0;" width="557.5" x="3" y="624.8806"/><line style="stroke: #000000; stroke-width: 1.0;" x1="3" x2="560.5" y1="624.8806" y2="624.8806"/><line style="stroke: #000000; stroke-width: 1.0;" x1="3" x2="560.5" y1="627.8806" y2="627.8806"/><rect fill="#EEEEEE" filter="url(#fl5isxo85dia4)" height="26.5161" style="stroke: #000000; stroke-width: 2.0;" width="140" x="211.75" y="612.6226"/><text fill="#000000" font-family="sans-serif" font-size="13" font-weight="bold" lengthAdjust="spacingAndGlyphs" textLength="122" x="217.75" y="632.2822">300 C is for consent</text><polygon fill="#A80036" points="43,674.6548,33,678.6548,43,682.6548,39,678.6548" style="stroke: #A80036; stroke-width: 1.0;"/><polygon fill="#A80036" points="352.5,674.6548,362.5,678.6548,352.5,682.6548,356.5,678.6548" style="stroke: #A80036; stroke-width: 1.0;"/><line style="stroke: #A80036; stroke-width: 1.0;" x1="37" x2="358.5" y1="678.6548" y2="678.6548"/><text fill="#000000" font-family="sans-serif" font-size="13" font-weight="bold" lengthAdjust="spacingAndGlyphs" textLength="21" x="49" y="673.7983">301</text><text fill="#000000" font-family="sans-serif" font-size="13" lengthAdjust="spacingAndGlyphs" textLength="0" x="78" y="673.7983"/><path d="M369,654.1387 L369,682.1387 L520,682.1387 L520,664.1387 L510,654.1387 L369,654.1387 " fill="#FF0000" filter="url(#fl5isxo85dia4)" style="stroke: #A80036; stroke-width: 1.0;"/><path d="M510,654.1387 L510,664.1387 L520,664.1387 L510,654.1387 " fill="#FF0000" style="stroke: #A80036; stroke-width: 1.0;"/><text fill="#000000" font-family="sans-serif" font-size="13" lengthAdjust="spacingAndGlyphs" textLength="130" x="375" y="674.7983">多簽之部分所有權保管</text><rect fill="#EEEEEE" filter="url(#fl5isxo85dia4)" height="3" style="stroke: #EEEEEE; stroke-width: 1.0;" width="557.5" x="3" y="713.9128"/><line style="stroke: #000000; stroke-width: 1.0;" x1="3" x2="560.5" y1="713.9128" y2="713.9128"/><line style="stroke: #000000; stroke-width: 1.0;" x1="3" x2="560.5" y1="716.9128" y2="716.9128"/><rect fill="#EEEEEE" filter="url(#fl5isxo85dia4)" height="26.5161" style="stroke: #000000; stroke-width: 2.0;" width="153" x="205.25" y="701.6548"/><text fill="#000000" font-family="sans-serif" font-size="13" font-weight="bold" lengthAdjust="spacingAndGlyphs" textLength="135" x="211.25" y="721.3145">400 C is for consumer</text><polygon fill="#A80036" points="43,772.9451,33,776.9451,43,780.9451,39,776.9451" style="stroke: #A80036; stroke-width: 1.0;"/><polygon fill="#A80036" points="352.5,772.9451,362.5,776.9451,352.5,780.9451,356.5,776.9451" style="stroke: #A80036; stroke-width: 1.0;"/><line style="stroke: #A80036; stroke-width: 1.0;" x1="37" x2="358.5" y1="776.9451" y2="776.9451"/><text fill="#000000" font-family="sans-serif" font-size="13" font-weight="bold" lengthAdjust="spacingAndGlyphs" textLength="21" x="49" y="772.0886">401</text><text fill="#000000" font-family="sans-serif" font-size="13" lengthAdjust="spacingAndGlyphs" textLength="0" x="78" y="772.0886"/><path d="M369,743.1709 L369,790.1709 L494,790.1709 L494,753.1709 L484,743.1709 L369,743.1709 " fill="#FBFB77" filter="url(#fl5isxo85dia4)" style="stroke: #A80036; stroke-width: 1.0;"/><path d="M484,743.1709 L484,753.1709 L494,753.1709 L484,743.1709 " fill="#FBFB77" style="stroke: #A80036; stroke-width: 1.0;"/><text fill="#000000" font-family="sans-serif" font-size="13" lengthAdjust="spacingAndGlyphs" textLength="104" x="375" y="763.8306">金融消費者保護法</text><text fill="#000000" font-family="sans-serif" font-size="13" lengthAdjust="spacingAndGlyphs" textLength="78" x="375" y="782.3467">虛擬通貨適用</text><rect fill="#EEEEEE" filter="url(#fl5isxo85dia4)" height="3" style="stroke: #EEEEEE; stroke-width: 1.0;" width="557.5" x="3" y="821.4612"/><line style="stroke: #000000; stroke-width: 1.0;" x1="3" x2="560.5" y1="821.4612" y2="821.4612"/><line style="stroke: #000000; stroke-width: 1.0;" x1="3" x2="560.5" y1="824.4612" y2="824.4612"/><rect fill="#EEEEEE" filter="url(#fl5isxo85dia4)" height="26.5161" style="stroke: #000000; stroke-width: 2.0;" width="154" x="204.75" y="809.2031"/><text fill="#000000" font-family="sans-serif" font-size="13" font-weight="bold" lengthAdjust="spacingAndGlyphs" textLength="136" x="210.75" y="828.8628">500 C is for challenge</text><polygon fill="#A80036" points="43,889.7515,33,893.7515,43,897.7515,39,893.7515" style="stroke: #A80036; stroke-width: 1.0;"/><polygon fill="#A80036" points="352.5,889.7515,362.5,893.7515,352.5,897.7515,356.5,893.7515" style="stroke: #A80036; stroke-width: 1.0;"/><line style="stroke: #A80036; stroke-width: 1.0;" x1="37" x2="358.5" y1="893.7515" y2="893.7515"/><text fill="#000000" font-family="sans-serif" font-size="13" font-weight="bold" lengthAdjust="spacingAndGlyphs" textLength="21" x="49" y="888.895">501</text><text fill="#000000" font-family="sans-serif" font-size="13" lengthAdjust="spacingAndGlyphs" textLength="0" x="78" y="888.895"/><path d="M369,850.7192 L369,915.7192 L519,915.7192 L519,860.7192 L509,850.7192 L369,850.7192 " fill="#FBFB77" filter="url(#fl5isxo85dia4)" style="stroke: #A80036; stroke-width: 1.0;"/><path d="M509,850.7192 L509,860.7192 L519,860.7192 L509,850.7192 " fill="#FBFB77" style="stroke: #A80036; stroke-width: 1.0;"/><text fill="#000000" font-family="sans-serif" font-size="13" lengthAdjust="spacingAndGlyphs" textLength="129" x="375" y="871.3789">有種東西稱為分叉 fork</text><text fill="#000000" font-family="sans-serif" font-size="13" lengthAdjust="spacingAndGlyphs" textLength="65" x="375" y="889.895">ownership?</text><text fill="#000000" font-family="sans-serif" font-size="13" lengthAdjust="spacingAndGlyphs" textLength="47" x="375" y="908.4111">liability?</text><!--
@startuml
skinparam ParticipantPadding 5
skinparam BoxPadding 5

actor "使用者" as User #Yellow
box "司法" #LightSalmon
	participant "民法\nCivil law" as CIVIL
	participant "刑法\nCriminal law" as CRIMINAL
end box
actor "SafeKeeping\n保管人" as SK #Red
== 100 C is for custody ==
autonumber 101
User -> SK: 保管申請
User -> SK: 交付保管物
SK -> User: 保管證明\n契約、借據、本票(民法債務不履行)\n保管條(刑法侵占)
User -> SK: 要求返還
SK -> SK: 無法返還
SK <-> User: 協調
User -> CIVIL: 最佳利益???
User -> CRIMINAL: 最佳利益???
== 200 C is for complication ==
autonumber 201
User <-> SK
note right
無記名資產
金鑰即所有權
交付金鑰與轉帳之保管差異
end note
== 300 C is for consent ==
autonumber 301
User <-> SK
note right #red
多簽之部分所有權保管
end note
== 400 C is for consumer ==
autonumber 401
User <-> SK
note right
金融消費者保護法
虛擬通貨適用
end note
== 500 C is for challenge ==
autonumber 501
User <-> SK
note right
有種東西稱為分叉 fork
ownership?
liability?
end note

@enduml

PlantUML version 1.2019.09(Tue Aug 27 00:19:51 CST 2019)
(GPL source distribution)
Java Runtime: Java(TM) SE Runtime Environment
JVM: Java HotSpot(TM) 64-Bit Server VM
Java Version: 1.8.0_221-b11
Operating System: Windows 10
OS Version: 10.0
Default Encoding: MS950
Language: zh
Country: TW
--></g></svg>