<?xml version="1.0" encoding="UTF-8" standalone="no"?>
<svg
   xmlns:dc="http://purl.org/dc/elements/1.1/"
   xmlns:cc="http://creativecommons.org/ns#"
   xmlns:rdf="http://www.w3.org/1999/02/22-rdf-syntax-ns#"
   xmlns:svg="http://www.w3.org/2000/svg"
   xmlns="http://www.w3.org/2000/svg"
   xmlns:sodipodi="http://sodipodi.sourceforge.net/DTD/sodipodi-0.dtd"
   xmlns:inkscape="http://www.inkscape.org/namespaces/inkscape"
   id="83757a17-2131-48e7-b792-663c4f3f89f6"
   data-name="Layer 1"
   width="85.8"
   height="85.8"
   viewBox="0 0 85.8 85.8"
   version="1.1"
   sodipodi:docname="dltdojo3_activitybar.svg"
   inkscape:version="0.92.3 (2405546, 2018-03-11)">
  <metadata
     id="metadata15">
    <rdf:RDF>
      <cc:Work
         rdf:about="">
        <dc:format>image/svg+xml</dc:format>
        <dc:type
           rdf:resource="http://purl.org/dc/dcmitype/StillImage" />
      </cc:Work>
    </rdf:RDF>
  </metadata>
  <defs
     id="defs13" />
  <sodipodi:namedview
     pagecolor="#ffffff"
     bordercolor="#666666"
     borderopacity="1"
     objecttolerance="10"
     gridtolerance="10"
     guidetolerance="10"
     inkscape:pageopacity="0"
     inkscape:pageshadow="2"
     inkscape:window-width="1416"
     inkscape:window-height="958"
     id="namedview11"
     showgrid="false"
     inkscape:zoom="9.1724938"
     inkscape:cx="42.900002"
     inkscape:cy="42.900002"
     inkscape:window-x="171"
     inkscape:window-y="26"
     inkscape:window-maximized="0"
     inkscape:current-layer="83757a17-2131-48e7-b792-663c4f3f89f6" />
  <title
     id="title2">icon_dark</title>
  <rect
     id="675ff2ae-61d5-4a8c-a2bc-9ffb81565b73"
     data-name="canvas background"
     width="85.8"
     height="85.83"
     fill="none" />
  <path
     inkscape:connector-curvature="0"
     id="path819"
     style="font-style:normal;font-variant:normal;font-weight:normal;font-stretch:normal;font-size:medium;line-height:125%;font-family:Caladea;-inkscape-font-specification:'Caladea, Normal';font-variant-ligatures:normal;font-variant-caps:normal;font-variant-numeric:normal;font-feature-settings:normal;text-align:start;letter-spacing:0px;word-spacing:0px;writing-mode:lr-tb;text-anchor:start;fill:#c5c5c5;fill-opacity:1;stroke:none;stroke-width:1px;stroke-linecap:butt;stroke-linejoin:miter;stroke-opacity:1"
     d="m 11.993311,14.998474 q 9.398177,0 14.070414,4.296309 4.672236,4.29631 4.672236,13.694487 0,9.344473 -4.72594,13.587079 -4.672237,4.242605 -14.338933,4.242605 H 0.23216377 L 0.50068312,48.831911 Q 3.7766191,48.40228 5.3877352,47.435611 V 18.381818 Q 3.5080998,17.361444 0.1784599,16.931813 l 0.26851935,-1.933339 z m 0.751854,2.685193 H 10.16738 v 30.288982 q 0.912965,0.214816 2.416674,0.214816 6.444464,0 9.612992,-3.437048 3.168528,-3.490751 3.168528,-11.814851 0,-8.377803 -3.114824,-11.814851 -3.114824,-3.437048 -9.505585,-3.437048 z" />
  <path
     inkscape:connector-curvature="0"
     id="path821"
     style="font-style:normal;font-variant:normal;font-weight:normal;font-stretch:normal;font-size:medium;line-height:125%;font-family:Caladea;-inkscape-font-specification:'Caladea, Normal';font-variant-ligatures:normal;font-variant-caps:normal;font-variant-numeric:normal;font-feature-settings:normal;text-align:start;letter-spacing:0px;word-spacing:0px;writing-mode:lr-tb;text-anchor:start;fill:#c5c5c5;fill-opacity:1;stroke:none;stroke-width:1px;stroke-linecap:butt;stroke-linejoin:miter;stroke-opacity:1"
     d="m 47.551146,14.998474 q 9.398177,0 14.070413,4.296309 4.672237,4.29631 4.672237,13.694487 0,9.344473 -4.725941,13.587079 -4.672236,4.242605 -14.338933,4.242605 H 35.789998 l 0.26852,-1.987043 q 3.275936,-0.429631 4.887052,-1.3963 V 18.381818 q -1.879636,-1.020374 -5.209275,-1.450005 l 0.268519,-1.933339 z M 48.303,17.683667 h -2.577786 v 30.288982 q 0.912966,0.214816 2.416674,0.214816 6.444464,0 9.612993,-3.437048 3.168528,-3.490751 3.168528,-11.814851 0,-8.377803 -3.114824,-11.814851 Q 54.69376,17.683667 48.303,17.683667 Z" />
  <path
     inkscape:connector-curvature="0"
     id="path823"
     style="font-style:normal;font-variant:normal;font-weight:normal;font-stretch:normal;font-size:medium;line-height:125%;font-family:Caladea;-inkscape-font-specification:'Caladea, Normal';font-variant-ligatures:normal;font-variant-caps:normal;font-variant-numeric:normal;font-feature-settings:normal;text-align:start;letter-spacing:0px;word-spacing:0px;writing-mode:lr-tb;text-anchor:start;fill:#c5c5c5;fill-opacity:1;stroke:none;stroke-width:1px;stroke-linecap:butt;stroke-linejoin:miter;stroke-opacity:1"
     d="m 79.77934,49.959693 q 0,4.72594 -2.738897,7.411133 -2.685193,2.738898 -7.733357,4.081495 L 68.716343,59.841204 Q 71.616352,58.498608 73.334876,56.404157 75.0534,54.36341 75.0534,50.765251 V 18.381818 Q 72.958949,17.30774 69.790421,16.931813 l 0.268519,-1.933339 h 14.875972 q -0.0537,0.644446 -0.26852,1.933339 -3.007416,0.375927 -4.887052,1.450005 z" />
  <circle
     style="opacity:1;fill:#c5c5c5;fill-opacity:1;fill-rule:evenodd;stroke:none;stroke-width:2;stroke-linecap:square;stroke-linejoin:miter;stroke-miterlimit:4;stroke-dasharray:none;stroke-dashoffset:0;stroke-opacity:1"
     id="path871"
     cx="8.292326"
     cy="65.147095"
     r="7.7472181" />
  <circle
     style="opacity:1;fill:#c5c5c5;fill-opacity:1;fill-rule:evenodd;stroke:none;stroke-width:2;stroke-linecap:square;stroke-linejoin:miter;stroke-miterlimit:4;stroke-dasharray:none;stroke-dashoffset:0;stroke-opacity:1"
     id="path871-9"
     cx="29.354067"
     cy="65.147095"
     r="7.7472181" />
  <circle
     style="opacity:1;fill:#c5c5c5;fill-opacity:1;fill-rule:evenodd;stroke:none;stroke-width:2;stroke-linecap:square;stroke-linejoin:miter;stroke-miterlimit:4;stroke-dasharray:none;stroke-dashoffset:0;stroke-opacity:1"
     id="path871-3"
     cx="50.41581"
     cy="65.147095"
     r="7.7472181" />
</svg>
